<svg xmlns:xlink="http://www.w3.org/1999/xlink" viewBox="0 0 48 48" xmlns="http://www.w3.org/2000/svg" width="133"  height="133" ><defs><linearGradient id="a" x1="0%" y1="0%" y2="100%"><stop offset="0" stop-color="#2383ae"></stop><stop offset="1" stop-color="#6dd7b9"></stop></linearGradient></defs><linearGradient id="a" x1="0%" y1="0%" y2="100%"><stop offset="0" stop-color="#2383ae"></stop><stop offset="1" stop-color="#6dd7b9"></stop></linearGradient><path d="M10 8c1.333-5.333 4.667-8 10-8 8 0 9 6 13 7 2.667.667 5-.333 7-3-1.333 5.333-4.667 8-10 8-8 0-9-6-13-7-2.667-.667-5 .333-7 3zM0 20c1.333-5.333 4.667-8 10-8 8 0 9 6 13 7 2.667.667 5-.333 7-3-1.333 5.333-4.667 8-10 8-8 0-9-6-13-7-2.667-.667-5 .333-7 3z" fill="url(&quot;#a&quot;)" transform="translate(4 12)"></path></svg>