<?xml version="1.0" encoding="UTF-8"?>
<svg xmlns="http://www.w3.org/2000/svg" xmlns:xlink="http://www.w3.org/1999/xlink" width="200" zoomAndPan="magnify" viewBox="0 0 150 149.999998" height="200" preserveAspectRatio="xMidYMid meet" version="1.0">
  <defs>
    <clipPath id="12884a9fa4">
      <path d="M 49.625 67.769531 L 100.175781 67.769531 L 100.175781 93.980469 L 49.625 93.980469 Z M 49.625 67.769531 " clip-rule="nonzero"></path>
    </clipPath>
    <clipPath id="40cfda58fd">
      <path d="M 61.003906 125.0625 L 88.8125 125.0625 L 88.8125 127.234375 L 61.003906 127.234375 Z M 61.003906 125.0625 " clip-rule="nonzero"></path>
    </clipPath>
  </defs>
  <g clip-path="url(#12884a9fa4)">
    <path fill="#ffffff" d="M 98.308594 78.117188 C 98.304688 78.210938 98.296875 78.304688 98.292969 78.398438 C 98.257812 78.539062 98.222656 78.675781 98.1875 78.816406 C 98.179688 78.933594 98.171875 79.050781 98.160156 79.171875 C 98.097656 79.496094 98.03125 79.820312 97.964844 80.140625 C 97.957031 80.238281 97.953125 80.328125 97.949219 80.421875 L 97.847656 80.839844 C 97.835938 80.957031 97.824219 81.078125 97.8125 81.195312 C 97.792969 81.265625 97.769531 81.335938 97.75 81.398438 C 97.742188 81.492188 97.734375 81.585938 97.726562 81.679688 C 97.695312 81.820312 97.664062 81.957031 97.628906 82.097656 C 97.621094 82.214844 97.609375 82.332031 97.597656 82.449219 C 97.574219 82.542969 97.550781 82.632812 97.53125 82.726562 C 97.507812 82.890625 97.484375 83.054688 97.460938 83.214844 L 97.40625 83.425781 L 97.378906 83.703125 C 97.347656 83.84375 97.316406 83.984375 97.285156 84.125 L 97.246094 84.472656 L 97.195312 84.683594 C 97.167969 84.867188 97.140625 85.054688 97.109375 85.242188 C 97.09375 85.308594 97.074219 85.378906 97.058594 85.449219 L 97.027344 85.726562 C 96.996094 85.867188 96.96875 86.007812 96.9375 86.148438 C 96.921875 86.261719 96.910156 86.378906 96.898438 86.496094 L 96.847656 86.707031 C 96.816406 86.894531 96.789062 87.078125 96.757812 87.265625 C 96.742188 87.335938 96.726562 87.402344 96.710938 87.472656 L 96.679688 87.753906 C 96.648438 87.894531 96.617188 88.03125 96.585938 88.171875 C 96.574219 88.289062 96.558594 88.40625 96.546875 88.519531 C 96.53125 88.589844 96.511719 88.660156 96.496094 88.730469 C 96.46875 88.917969 96.4375 89.101562 96.410156 89.289062 L 96.359375 89.5 C 96.351562 89.570312 96.34375 89.636719 96.335938 89.707031 C 96.300781 89.871094 96.269531 90.035156 96.234375 90.195312 C 96.222656 90.3125 96.210938 90.429688 96.195312 90.546875 C 96.179688 90.617188 96.164062 90.683594 96.144531 90.753906 C 96.117188 90.941406 96.089844 91.128906 96.058594 91.3125 L 96.023438 91.453125 C 96.007812 91.546875 95.996094 91.636719 95.984375 91.730469 C 95.953125 91.894531 95.917969 92.058594 95.886719 92.222656 C 95.871094 92.335938 95.859375 92.453125 95.84375 92.570312 C 95.828125 92.640625 95.8125 92.710938 95.796875 92.78125 L 95.710938 93.339844 C 95.695312 93.386719 95.683594 93.429688 95.671875 93.476562 L 95.636719 93.757812 L 95.566406 93.898438 C 81.929688 93.898438 68.289062 93.898438 54.652344 93.898438 C 54.515625 93.882812 54.382812 93.863281 54.25 93.828125 C 54.230469 93.730469 54.210938 93.636719 54.191406 93.542969 C 54.171875 93.449219 54.167969 93.359375 54.15625 93.269531 C 54.136719 93.199219 54.121094 93.128906 54.101562 93.058594 L 54.023438 92.570312 C 54.007812 92.5 53.992188 92.429688 53.972656 92.359375 C 53.960938 92.242188 53.945312 92.128906 53.929688 92.011719 L 53.839844 91.59375 L 53.800781 91.3125 C 53.789062 91.265625 53.777344 91.21875 53.761719 91.171875 C 53.730469 90.988281 53.703125 90.800781 53.671875 90.613281 C 53.65625 90.542969 53.636719 90.476562 53.621094 90.40625 L 53.550781 89.984375 L 53.488281 89.636719 C 53.476562 89.566406 53.460938 89.5 53.449219 89.425781 C 53.433594 89.382812 53.417969 89.335938 53.40625 89.289062 C 53.316406 88.703125 53.238281 88.121094 53.140625 87.535156 C 53 86.726562 52.855469 85.917969 52.710938 85.109375 C 52.542969 84.175781 52.367188 83.242188 52.199219 82.308594 C 51.976562 81.089844 51.757812 79.871094 51.539062 78.648438 L 51.035156 75.839844 L 50.136719 70.875 C 49.984375 70.03125 49.832031 69.1875 49.679688 68.339844 C 49.65625 68.195312 49.644531 68.042969 49.625 67.851562 C 50.203125 67.851562 50.746094 67.835938 51.289062 67.863281 C 51.375 67.871094 51.480469 68.046875 51.53125 68.164062 C 52.285156 69.863281 53.230469 71.445312 54.363281 72.917969 C 55.367188 74.214844 56.488281 75.398438 57.726562 76.46875 C 58.96875 77.542969 60.300781 78.480469 61.730469 79.285156 C 63.074219 80.046875 64.472656 80.683594 65.929688 81.199219 C 67.386719 81.714844 68.875 82.097656 70.398438 82.347656 C 72.933594 82.777344 75.480469 82.839844 78.039062 82.542969 C 81.378906 82.148438 84.542969 81.191406 87.503906 79.601562 C 92.167969 77.09375 95.746094 73.511719 98.019531 68.703125 C 98.316406 68.074219 98.632812 67.800781 99.308594 67.914062 C 99.589844 67.960938 99.886719 67.925781 100.175781 67.925781 L 100.175781 68.136719 L 99.953125 68.96875 C 99.9375 69.089844 99.921875 69.207031 99.90625 69.328125 L 99.847656 69.53125 C 99.839844 69.601562 99.832031 69.671875 99.820312 69.742188 C 99.800781 69.859375 99.777344 69.976562 99.753906 70.09375 C 99.734375 70.234375 99.710938 70.375 99.691406 70.511719 L 99.640625 70.722656 C 99.609375 70.90625 99.578125 71.09375 99.550781 71.28125 C 99.535156 71.328125 99.519531 71.375 99.503906 71.421875 L 99.472656 71.628906 C 99.4375 71.792969 99.402344 71.957031 99.371094 72.117188 L 99.335938 72.46875 C 99.316406 72.539062 99.300781 72.605469 99.285156 72.675781 C 99.253906 72.863281 99.226562 73.050781 99.199219 73.234375 C 99.183594 73.28125 99.167969 73.328125 99.152344 73.375 L 99.125 73.515625 C 99.089844 73.703125 99.054688 73.886719 99.023438 74.074219 L 98.988281 74.351562 C 98.972656 74.445312 98.953125 74.539062 98.9375 74.632812 L 98.851562 75.191406 C 98.835938 75.234375 98.824219 75.28125 98.808594 75.328125 C 98.792969 75.375 98.789062 75.421875 98.777344 75.46875 L 98.664062 76.097656 C 98.65625 76.191406 98.648438 76.285156 98.636719 76.375 C 98.605469 76.515625 98.570312 76.65625 98.539062 76.796875 C 98.523438 76.933594 98.511719 77.074219 98.5 77.214844 C 98.4375 77.515625 98.371094 77.816406 98.308594 78.117188 Z M 98.308594 78.117188 " fill-opacity="1" fill-rule="nonzero"></path>
  </g>
  <g clip-path="url(#40cfda58fd)">
    <path fill="#ffffff" d="M 61.441406 127.195312 L 61.355469 126.707031 L 61.300781 126.5 C 61.289062 126.382812 61.273438 126.265625 61.257812 126.148438 C 61.226562 125.984375 61.195312 125.824219 61.160156 125.660156 L 61.132812 125.453125 C 61.117188 125.40625 61.105469 125.359375 61.09375 125.3125 C 61.152344 125.238281 61.203125 125.128906 61.28125 125.097656 C 61.359375 125.0625 61.488281 125.085938 61.589844 125.085938 L 88.113281 125.085938 C 88.300781 125.085938 88.488281 125.082031 88.671875 125.082031 L 88.695312 125.3125 L 88.65625 125.589844 C 88.625 125.730469 88.59375 125.871094 88.566406 126.011719 C 88.550781 126.125 88.535156 126.242188 88.519531 126.359375 C 88.503906 126.425781 88.488281 126.496094 88.472656 126.570312 C 88.445312 126.730469 88.417969 126.898438 88.390625 127.058594 L 88.3125 127.199219 Z M 61.441406 127.195312 " fill-opacity="1" fill-rule="nonzero"></path>
  </g>
  <path fill="#ffffff" d="M 90.339844 117.5625 C 90.003906 118.21875 89.5625 118.773438 88.867188 119.085938 L 88.71875 119.144531 C 88.316406 119.175781 87.914062 119.238281 87.511719 119.238281 C 83.15625 119.246094 78.800781 119.246094 74.445312 119.242188 C 74.0625 119.242188 73.679688 119.269531 73.296875 119.265625 C 73.0625 119.265625 72.980469 119.359375 73.011719 119.582031 L 72.96875 119.796875 C 72.957031 119.839844 72.945312 119.882812 72.9375 119.925781 L 72.898438 120.074219 L 72.800781 120.417969 L 72.753906 120.5625 C 72.648438 120.839844 72.523438 121.105469 72.371094 121.363281 C 72.222656 121.617188 72.050781 121.855469 71.859375 122.082031 C 71.671875 122.308594 71.460938 122.515625 71.234375 122.707031 C 71.007812 122.898438 70.765625 123.066406 70.511719 123.21875 C 70.449219 123.261719 70.390625 123.300781 70.328125 123.34375 L 69.953125 123.480469 L 69.742188 123.558594 L 69.46875 123.644531 L 69.316406 123.6875 L 69.1875 123.71875 L 68.976562 123.769531 L 68.835938 123.796875 L 68.691406 123.832031 L 68.488281 123.855469 L 68.132812 123.90625 L 66.332031 123.90625 L 66.117188 123.863281 L 65.652344 123.558594 C 65.644531 123.003906 65.636719 122.445312 65.628906 121.890625 C 65.902344 121.460938 66.339844 121.582031 66.734375 121.554688 L 67.445312 121.554688 L 67.859375 121.546875 L 68.492188 121.484375 L 68.625 121.457031 L 68.773438 121.417969 C 69.421875 121.285156 69.875 120.882812 70.214844 120.335938 C 70.277344 120.238281 70.28125 120.105469 70.320312 119.988281 L 70.429688 119.800781 C 70.460938 119.707031 70.488281 119.613281 70.515625 119.519531 C 70.628906 119.273438 70.433594 119.3125 70.308594 119.3125 C 69.351562 119.3125 68.394531 119.3125 67.4375 119.3125 L 66.746094 119.15625 L 66.601562 119.105469 C 65.96875 118.773438 65.574219 118.253906 65.40625 117.5625 C 65.390625 117.46875 65.375 117.371094 65.359375 117.277344 C 65.359375 116.324219 65.363281 115.371094 65.359375 114.414062 C 65.359375 113.628906 65.726562 113.054688 66.363281 112.625 C 66.4375 112.574219 66.519531 112.527344 66.597656 112.480469 L 67.027344 112.339844 L 67.226562 112.316406 L 67.441406 112.265625 L 70.988281 112.265625 L 71.207031 112.3125 C 72.152344 112.515625 72.863281 112.992188 73.050781 114.34375 C 73.050781 114.625 73.050781 114.902344 73.046875 115.183594 C 73.035156 115.734375 73.011719 116.289062 73.023438 116.84375 C 73.023438 116.914062 73.210938 117.035156 73.3125 117.035156 C 73.910156 117.042969 74.511719 117.023438 75.113281 117.011719 L 76.007812 117.011719 C 75.527344 116.019531 75.074219 115.078125 74.621094 114.136719 C 74.601562 114.089844 74.585938 114.039062 74.570312 113.992188 C 74.550781 113.945312 74.550781 113.902344 74.539062 113.855469 C 74.53125 113.8125 74.511719 113.761719 74.5 113.710938 C 74.40625 112.957031 74.804688 112.542969 75.464844 112.308594 L 75.609375 112.269531 L 75.742188 112.246094 L 76.097656 112.199219 L 80.761719 112.199219 L 81.046875 112.234375 L 81.25 112.265625 L 81.394531 112.304688 C 81.84375 112.484375 82.269531 112.695312 82.386719 113.230469 C 82.386719 113.417969 82.386719 113.605469 82.386719 113.789062 C 82.109375 114.4375 81.835938 115.085938 81.554688 115.730469 C 81.390625 116.101562 81.222656 116.46875 81.054688 116.839844 C 81.066406 116.894531 81.066406 116.988281 81.085938 116.992188 C 81.1875 117.011719 81.292969 117.019531 81.394531 117.023438 L 83.140625 117.007812 C 83.515625 116.832031 83.382812 116.453125 83.472656 116.164062 L 83.503906 115.960938 C 83.539062 115.824219 83.574219 115.679688 83.605469 115.539062 C 83.617188 115.46875 83.628906 115.398438 83.640625 115.332031 C 83.65625 115.285156 83.667969 115.238281 83.679688 115.1875 C 83.695312 115.117188 83.707031 115.054688 83.71875 114.988281 C 83.75 114.847656 83.789062 114.703125 83.820312 114.558594 L 83.851562 114.355469 L 83.957031 113.929688 C 83.964844 113.863281 83.976562 113.792969 83.988281 113.726562 C 84 113.660156 84.023438 113.585938 84.042969 113.511719 L 84.066406 113.378906 C 84.097656 113.238281 84.132812 113.097656 84.167969 112.953125 C 84.175781 112.882812 84.1875 112.816406 84.199219 112.75 C 84.222656 112.65625 84.242188 112.558594 84.265625 112.464844 L 84.335938 112.121094 C 84.351562 112.050781 84.371094 111.980469 84.386719 111.90625 L 84.414062 111.773438 C 84.445312 111.632812 84.476562 111.488281 84.511719 111.347656 C 84.523438 111.277344 84.535156 111.210938 84.546875 111.140625 C 84.585938 110.933594 84.625 110.722656 84.667969 110.511719 C 84.695312 110.371094 84.726562 110.230469 84.753906 110.097656 C 84.78125 110.003906 84.808594 109.910156 84.835938 109.816406 C 85.097656 109.796875 85.359375 109.765625 85.621094 109.761719 C 86.210938 109.75 86.800781 109.753906 87.390625 109.75 L 87.40625 110.226562 C 87.394531 110.273438 87.390625 110.316406 87.382812 110.363281 L 87.132812 111.34375 L 87.109375 111.480469 C 87.066406 111.667969 87.023438 111.855469 86.984375 112.042969 L 86.960938 112.175781 L 86.785156 112.949219 C 86.773438 113.019531 86.761719 113.085938 86.75 113.152344 L 86.648438 113.578125 C 86.636719 113.648438 86.625 113.714844 86.613281 113.78125 C 86.601562 113.851562 86.582031 113.921875 86.5625 113.996094 L 86.539062 114.128906 C 86.507812 114.269531 86.46875 114.414062 86.4375 114.554688 L 86.402344 114.757812 C 86.367188 114.921875 86.328125 115.089844 86.289062 115.253906 L 86.265625 115.390625 C 86.25 115.460938 86.234375 115.527344 86.21875 115.601562 L 86.191406 115.734375 L 86.078125 116.230469 L 86.054688 116.363281 C 86.011719 116.503906 85.949219 116.644531 85.9375 116.789062 C 85.933594 116.859375 86.027344 117 86.074219 117 C 86.65625 116.992188 87.238281 116.964844 87.824219 116.945312 L 87.96875 116.65625 C 88.03125 116.378906 88.089844 116.097656 88.152344 115.8125 C 88.160156 115.769531 88.167969 115.722656 88.179688 115.679688 L 88.289062 115.183594 C 88.296875 115.136719 88.304688 115.09375 88.316406 115.050781 C 88.375 114.769531 88.4375 114.488281 88.5 114.207031 C 88.507812 114.160156 88.515625 114.117188 88.523438 114.070312 C 88.5625 113.90625 88.597656 113.742188 88.636719 113.578125 C 88.644531 113.535156 88.65625 113.488281 88.664062 113.441406 L 88.773438 112.949219 C 88.785156 112.882812 88.796875 112.816406 88.808594 112.746094 C 88.867188 112.488281 88.925781 112.230469 88.984375 111.972656 C 88.996094 111.902344 89.007812 111.839844 89.019531 111.769531 C 89.054688 111.632812 89.089844 111.488281 89.121094 111.34375 C 89.132812 111.273438 89.144531 111.210938 89.15625 111.140625 L 89.207031 110.925781 L 89.226562 110.792969 L 89.28125 110.4375 C 89.296875 110.40625 89.3125 110.375 89.324219 110.34375 C 89.492188 109.757812 89.488281 109.757812 90.132812 109.757812 L 91.621094 109.757812 C 92.09375 109.757812 92.09375 109.757812 91.988281 110.21875 C 91.949219 110.386719 91.910156 110.550781 91.871094 110.714844 C 91.84375 110.832031 91.8125 110.945312 91.78125 111.058594 C 91.765625 111.128906 91.75 111.199219 91.730469 111.273438 C 91.722656 111.316406 91.714844 111.363281 91.703125 111.40625 C 91.691406 111.476562 91.675781 111.550781 91.660156 111.625 C 91.652344 111.667969 91.644531 111.710938 91.636719 111.753906 C 91.628906 111.796875 91.605469 111.851562 91.59375 111.902344 C 91.578125 111.953125 91.578125 111.992188 91.570312 112.035156 L 91.457031 112.53125 L 91.425781 112.734375 C 91.414062 112.78125 91.398438 112.832031 91.386719 112.878906 L 91.359375 113.011719 L 91.3125 113.226562 L 91.289062 113.359375 C 91.273438 113.410156 91.261719 113.460938 91.246094 113.507812 C 91.234375 113.554688 91.230469 113.597656 91.222656 113.640625 C 91.183594 113.804688 91.148438 113.972656 91.109375 114.136719 L 91.078125 114.339844 C 91.066406 114.386719 91.050781 114.433594 91.039062 114.484375 C 91.023438 114.535156 91.019531 114.574219 91.011719 114.621094 C 90.996094 114.6875 90.980469 114.757812 90.964844 114.835938 L 90.941406 114.96875 C 90.929688 115.015625 90.914062 115.0625 90.898438 115.113281 C 90.886719 115.183594 90.878906 115.246094 90.867188 115.3125 C 90.832031 115.457031 90.796875 115.597656 90.765625 115.742188 C 90.753906 115.8125 90.742188 115.878906 90.730469 115.945312 C 90.71875 115.992188 90.703125 116.042969 90.691406 116.089844 C 90.679688 116.140625 90.671875 116.179688 90.664062 116.226562 C 90.648438 116.292969 90.632812 116.363281 90.617188 116.4375 C 90.609375 116.484375 90.601562 116.53125 90.59375 116.574219 L 90.554688 116.71875 L 90.519531 116.917969 C 90.503906 116.988281 90.484375 117.066406 90.46875 117.136719 L 90.382812 117.410156 C 90.375 117.464844 90.359375 117.515625 90.339844 117.5625 Z M 69.171875 117.019531 C 69.511719 117.019531 69.847656 117.011719 70.183594 117.019531 C 70.40625 117.027344 70.503906 116.949219 70.496094 116.714844 C 70.472656 116.078125 70.472656 115.4375 70.441406 114.800781 C 70.4375 114.714844 70.289062 114.570312 70.207031 114.566406 C 69.53125 114.546875 68.859375 114.546875 68.179688 114.566406 C 68.097656 114.566406 67.953125 114.722656 67.949219 114.808594 C 67.921875 115.460938 67.933594 116.113281 67.921875 116.765625 C 67.921875 116.96875 68.007812 117.023438 68.195312 117.019531 C 68.523438 117.011719 68.847656 117.019531 69.171875 117.019531 Z M 78.4375 117.019531 L 78.558594 117.023438 L 80.234375 114.03125 L 76.871094 114.03125 Z M 78.4375 117.019531 " fill-opacity="1" fill-rule="nonzero"></path>
  <path fill="#ffffff" d="M 77.929688 60.460938 C 77.902344 60.507812 77.859375 60.554688 77.855469 60.605469 C 77.773438 61.65625 77.496094 62.65625 77.105469 63.632812 C 77.023438 63.832031 76.972656 64.042969 76.90625 64.246094 C 76.890625 64.28125 76.875 64.320312 76.859375 64.359375 L 76.542969 64.9375 C 76.53125 64.957031 76.523438 64.972656 76.515625 64.992188 L 76.332031 65.289062 C 76.25 65.417969 76.167969 65.554688 76.089844 65.6875 L 75.910156 65.917969 C 75.878906 65.957031 75.847656 66 75.8125 66.039062 L 75.691406 66.191406 C 75.679688 66.207031 75.671875 66.222656 75.664062 66.238281 C 75.625 66.292969 75.589844 66.347656 75.550781 66.402344 L 75.460938 66.527344 L 75.0625 66.960938 L 74.296875 67.738281 L 74.269531 67.429688 C 74.28125 67.414062 74.289062 67.398438 74.292969 67.378906 C 74.75 67.046875 74.894531 66.542969 75.035156 66.035156 C 75.046875 66.015625 75.054688 66 75.058594 65.980469 C 75.28125 65.792969 75.433594 65.574219 75.378906 65.265625 C 75.390625 65.246094 75.398438 65.230469 75.402344 65.210938 C 75.433594 65.195312 75.488281 65.1875 75.492188 65.164062 C 75.742188 64.3125 76.015625 63.464844 76.21875 62.601562 C 76.347656 62.054688 76.390625 61.484375 76.421875 60.917969 C 76.4375 60.492188 76.414062 60.0625 76.355469 59.636719 C 76.324219 59.359375 76.164062 59.308594 75.949219 59.472656 C 75.859375 59.535156 75.734375 59.582031 75.683594 59.671875 C 75.328125 60.265625 74.972656 60.863281 74.644531 61.472656 C 74.316406 62.085938 73.984375 62.691406 73.726562 63.328125 C 73.558594 63.742188 73.519531 64.207031 73.425781 64.648438 C 73.425781 64.753906 73.425781 64.863281 73.425781 64.972656 C 73.378906 65.035156 73.339844 65.097656 73.3125 65.167969 C 73.140625 66.011719 73.273438 66.84375 73.417969 67.675781 C 73.460938 67.933594 73.640625 68.164062 73.757812 68.410156 L 73.773438 68.605469 L 74.277344 69.609375 L 74.585938 70.148438 L 74.765625 70.445312 L 74.925781 70.640625 L 75.042969 70.796875 C 75.050781 70.816406 75.0625 70.832031 75.070312 70.847656 C 75.109375 70.898438 75.148438 70.949219 75.1875 71.003906 L 76.234375 72.117188 L 76.453125 72.316406 C 76.464844 72.328125 76.484375 72.335938 76.5 72.34375 L 76.878906 72.765625 L 76.515625 72.675781 C 76.5 72.664062 76.484375 72.65625 76.464844 72.648438 L 76.296875 72.546875 C 76.28125 72.539062 76.265625 72.527344 76.25 72.519531 L 75.953125 72.335938 C 75.9375 72.324219 75.921875 72.3125 75.90625 72.304688 C 75.613281 72.085938 75.3125 71.878906 75.027344 71.648438 C 74.503906 71.226562 73.980469 70.785156 73.464844 70.355469 C 73.457031 70.339844 73.445312 70.324219 73.4375 70.308594 C 73.222656 70.011719 73.007812 69.714844 72.796875 69.417969 C 72.414062 68.890625 72.113281 68.320312 71.894531 67.710938 C 71.671875 67.097656 71.539062 66.464844 71.496094 65.816406 C 71.375 64.050781 71.757812 62.382812 72.5 60.777344 C 73.210938 59.234375 74.09375 57.808594 75.253906 56.5625 C 75.308594 56.488281 75.339844 56.410156 75.355469 56.324219 C 75.371094 56.238281 75.367188 56.152344 75.34375 56.066406 C 75.128906 55.53125 74.871094 55.011719 74.578125 54.511719 C 73.910156 53.421875 73.21875 52.34375 72.503906 51.28125 C 72.132812 50.726562 71.703125 50.207031 71.285156 49.6875 C 70.867188 49.164062 70.445312 48.667969 70.015625 48.167969 C 69.378906 47.421875 68.730469 46.679688 68.089844 45.933594 C 67.71875 45.503906 67.359375 45.0625 66.988281 44.636719 C 66.851562 44.5 66.707031 44.367188 66.554688 44.246094 C 66.546875 44.230469 66.535156 44.214844 66.527344 44.199219 C 66.453125 44.058594 66.375 43.917969 66.289062 43.785156 C 65.882812 43.207031 65.449219 42.648438 65.0625 42.058594 C 63.859375 40.226562 62.765625 38.335938 62.339844 36.152344 C 62.164062 35.304688 62.054688 34.449219 62.007812 33.582031 C 61.9375 32.085938 62.078125 30.601562 62.558594 29.171875 C 62.828125 28.378906 63.152344 27.601562 63.480469 26.828125 C 63.675781 26.363281 63.921875 25.921875 64.144531 25.472656 L 64.183594 25.363281 L 64.652344 24.714844 C 64.660156 24.699219 64.667969 24.683594 64.671875 24.664062 L 64.925781 24.292969 C 64.9375 24.28125 64.949219 24.265625 64.953125 24.246094 C 65.128906 24.027344 65.304688 23.8125 65.480469 23.59375 L 65.574219 23.472656 L 65.761719 23.242188 C 65.769531 23.230469 65.78125 23.214844 65.789062 23.199219 L 66.136719 23.003906 L 65.980469 23.390625 L 65.886719 23.515625 C 65.394531 24.132812 65.035156 24.816406 64.8125 25.570312 L 64.800781 25.691406 C 64.703125 25.84375 64.578125 25.984375 64.519531 26.148438 C 64.328125 26.722656 64.15625 27.300781 63.980469 27.875 C 63.980469 27.914062 63.972656 27.953125 63.96875 27.992188 C 63.886719 28.261719 63.765625 28.523438 63.730469 28.792969 C 63.605469 29.683594 63.414062 30.578125 63.425781 31.46875 C 63.4375 32.476562 63.636719 33.480469 63.765625 34.484375 C 63.78125 34.609375 63.898438 34.71875 63.96875 34.832031 C 63.96875 34.898438 63.972656 34.960938 63.976562 35.023438 C 63.984375 35.125 63.96875 35.230469 64 35.324219 C 64.261719 36.042969 64.503906 36.773438 64.804688 37.476562 C 65.003906 37.941406 65.289062 38.375 65.535156 38.824219 C 65.546875 38.839844 65.558594 38.855469 65.566406 38.875 C 65.589844 38.960938 65.589844 39.0625 65.640625 39.132812 C 66.304688 40.136719 66.953125 41.152344 67.65625 42.125 C 68.820312 43.722656 70.183594 45.144531 71.574219 46.546875 C 72.101562 47.0625 72.597656 47.609375 73.0625 48.183594 C 73.78125 49.101562 74.488281 50.035156 75.117188 51.011719 C 75.703125 51.925781 76.191406 52.902344 76.710938 53.859375 C 76.957031 54.320312 77.003906 54.347656 77.332031 53.9375 C 77.792969 53.355469 78.226562 52.746094 78.648438 52.132812 C 79.070312 51.519531 79.519531 50.914062 79.859375 50.257812 C 80.308594 49.375 80.714844 48.472656 81.066406 47.542969 C 81.324219 46.871094 81.5625 46.167969 81.652344 45.457031 C 81.78125 44.40625 81.859375 43.328125 81.789062 42.273438 C 81.726562 41.34375 81.457031 40.421875 81.210938 39.515625 C 81.070312 38.996094 80.828125 38.496094 80.570312 38.023438 C 80.261719 37.449219 79.882812 36.914062 79.535156 36.359375 C 79.523438 36.34375 79.511719 36.328125 79.507812 36.3125 C 79.441406 36.210938 79.378906 36.109375 79.324219 36.003906 C 79.265625 35.878906 79.226562 35.742188 79.175781 35.613281 C 79.621094 36.050781 80.0625 36.488281 80.503906 36.921875 L 80.902344 37.355469 L 81.203125 37.6875 L 81.332031 37.832031 L 81.488281 38.035156 C 81.527344 38.085938 81.566406 38.140625 81.601562 38.191406 C 81.609375 38.210938 81.617188 38.226562 81.628906 38.242188 L 81.746094 38.394531 L 81.84375 38.519531 L 82.027344 38.816406 C 82.128906 38.996094 82.230469 39.175781 82.335938 39.355469 L 82.914062 40.644531 C 82.921875 40.710938 82.929688 40.773438 82.933594 40.839844 C 83.042969 41.238281 83.152344 41.640625 83.257812 42.042969 L 83.269531 42.164062 C 83.3125 42.332031 83.359375 42.5 83.402344 42.671875 C 83.402344 42.691406 83.410156 42.707031 83.425781 42.722656 C 83.417969 42.769531 83.410156 42.8125 83.40625 42.859375 C 83.324219 43.164062 83.335938 43.441406 83.621094 43.644531 L 83.621094 45.152344 C 83.269531 45.367188 83.332031 45.683594 83.410156 46.003906 C 83.410156 46.046875 83.402344 46.085938 83.402344 46.128906 C 83.246094 46.691406 83.085938 47.253906 82.933594 47.820312 C 82.925781 47.882812 82.921875 47.949219 82.917969 48.015625 C 82.679688 48.609375 82.445312 49.199219 82.207031 49.792969 C 82.191406 49.828125 82.175781 49.867188 82.15625 49.90625 C 82.097656 50.027344 82.039062 50.152344 81.976562 50.277344 C 81.96875 50.292969 81.957031 50.308594 81.953125 50.328125 L 81.839844 50.625 C 81.828125 50.640625 81.820312 50.660156 81.8125 50.679688 L 81.480469 51.320312 L 81.378906 51.503906 L 81.273438 51.667969 C 81.261719 51.707031 81.25 51.742188 81.234375 51.78125 C 81.042969 52.117188 80.847656 52.453125 80.652344 52.789062 C 80.640625 52.804688 80.632812 52.824219 80.625 52.839844 C 80.546875 52.964844 80.46875 53.089844 80.390625 53.210938 L 80.34375 53.328125 L 79.789062 54.167969 C 79.46875 54.582031 79.144531 54.988281 78.832031 55.414062 C 78.613281 55.714844 78.414062 56.035156 78.207031 56.347656 C 78.195312 56.363281 78.1875 56.378906 78.179688 56.398438 C 78.023438 56.59375 77.746094 56.789062 77.738281 56.992188 C 77.726562 57.421875 77.855469 57.855469 77.929688 58.285156 C 77.941406 58.355469 77.953125 58.425781 77.964844 58.496094 C 77.960938 58.539062 77.953125 58.582031 77.945312 58.625 " fill-opacity="1" fill-rule="nonzero"></path>
  <path fill="#ffffff" d="M 67.867188 102.847656 L 70.996094 102.847656 L 71.277344 102.765625 L 71.269531 100.949219 C 71.269531 100.625 71.269531 100.296875 71.269531 99.972656 C 71.277344 99.375 71.285156 98.78125 71.292969 98.183594 L 71.433594 98.101562 L 73.722656 98.101562 L 73.859375 98.175781 C 73.867188 99.707031 73.871094 101.234375 73.875 102.765625 L 74.15625 102.851562 L 76.167969 102.851562 C 76.460938 102.917969 76.386719 102.695312 76.386719 102.558594 C 76.390625 101.203125 76.386719 99.851562 76.394531 98.492188 C 76.394531 98.363281 76.484375 98.230469 76.53125 98.101562 L 78.820312 98.101562 L 78.957031 98.167969 L 78.988281 99.96875 L 78.988281 100.945312 C 78.988281 101.550781 78.988281 102.15625 78.980469 102.761719 L 79.25 102.847656 L 81.339844 102.847656 C 81.410156 102.804688 81.53125 102.761719 81.53125 102.722656 C 81.53125 102.128906 81.507812 101.535156 81.492188 100.941406 C 81.492188 100.621094 81.492188 100.300781 81.492188 99.976562 C 81.507812 99.484375 81.523438 98.992188 81.546875 98.5 C 81.566406 98.367188 81.59375 98.234375 81.628906 98.105469 L 83.984375 98.105469 L 84.125 98.191406 C 84.125 99.851562 84.125 101.515625 84.125 103.179688 L 84.074219 103.464844 C 83.882812 104.199219 83.449219 104.722656 82.742188 105.011719 C 82.246094 105.058594 81.75 105.136719 81.253906 105.140625 C 77.789062 105.148438 74.324219 105.144531 70.855469 105.148438 C 70.71875 105.15625 70.582031 105.171875 70.449219 105.195312 L 68.4375 105.195312 C 68.339844 105.175781 68.238281 105.15625 68.136719 105.148438 C 66.179688 105.148438 64.226562 105.148438 62.265625 105.148438 C 62.175781 105.15625 62.089844 105.171875 62 105.195312 L 61.3125 105.21875 L 61.027344 105.273438 C 60.792969 105.3125 60.578125 105.375 60.527344 105.65625 C 60.488281 105.71875 60.449219 105.777344 60.410156 105.839844 L 60.320312 106.183594 C 60.320312 106.445312 60.320312 106.703125 60.320312 106.964844 L 60.347656 107.097656 C 60.429688 107.378906 60.511719 107.664062 60.589844 107.945312 L 60.625 108.074219 C 60.636719 108.125 60.652344 108.171875 60.667969 108.21875 L 60.699219 108.355469 L 60.804688 108.710938 C 60.816406 108.753906 60.824219 108.800781 60.835938 108.84375 L 60.945312 109.027344 C 61 109.246094 61.054688 109.464844 61.113281 109.679688 L 61.027344 109.816406 C 60.21875 109.8125 59.414062 109.804688 58.609375 109.804688 C 58.035156 109.804688 58.035156 109.804688 57.886719 109.261719 C 57.863281 109.214844 57.847656 109.167969 57.824219 109.117188 C 57.824219 109.074219 57.820312 109.027344 57.816406 108.984375 C 57.800781 108.859375 57.789062 108.734375 57.769531 108.609375 C 57.578125 107.550781 57.183594 106.523438 57.25 105.421875 L 57.269531 105.289062 C 57.289062 105.191406 57.308594 105.097656 57.328125 105.003906 C 57.347656 104.910156 57.382812 104.820312 57.410156 104.730469 L 57.460938 104.585938 C 57.863281 103.789062 58.511719 103.257812 59.289062 102.859375 L 59.707031 102.777344 L 59.847656 102.71875 C 59.886719 102.679688 59.957031 102.636719 59.957031 102.597656 C 59.953125 102.117188 59.933594 101.636719 59.921875 101.15625 L 59.921875 100.191406 C 59.9375 100.097656 59.953125 100.003906 59.96875 99.90625 C 59.976562 99.835938 59.988281 99.773438 59.996094 99.703125 L 60.03125 99.558594 C 60.109375 99.304688 60.230469 99.070312 60.390625 98.859375 C 60.550781 98.644531 60.742188 98.464844 60.964844 98.320312 L 61.523438 98.101562 L 61.660156 98.066406 L 65.566406 98.015625 L 65.699219 98.035156 L 66.332031 98.183594 L 66.605469 98.320312 L 66.746094 98.402344 C 66.980469 98.695312 67.214844 98.988281 67.453125 99.28125 C 67.472656 99.332031 67.488281 99.378906 67.507812 99.429688 L 67.539062 99.5625 L 67.582031 99.707031 C 67.589844 99.75 67.597656 99.796875 67.605469 99.84375 L 67.65625 100.820312 C 67.65625 100.933594 67.648438 101.042969 67.648438 101.15625 C 67.632812 101.675781 67.621094 102.191406 67.613281 102.707031 C 67.613281 102.738281 67.671875 102.765625 67.703125 102.792969 L 67.703125 102.800781 Z M 63.777344 102.894531 C 64.113281 102.894531 64.449219 102.890625 64.785156 102.894531 C 64.96875 102.898438 65.070312 102.839844 65.070312 102.640625 C 65.066406 101.933594 65.078125 101.226562 65.058594 100.515625 C 65.058594 100.433594 64.90625 100.28125 64.816406 100.277344 C 64.144531 100.257812 63.472656 100.269531 62.800781 100.265625 C 62.597656 100.265625 62.503906 100.355469 62.503906 100.5625 C 62.503906 101.242188 62.496094 101.921875 62.484375 102.601562 C 62.476562 102.8125 62.558594 102.898438 62.769531 102.894531 C 63.105469 102.890625 63.441406 102.894531 63.777344 102.894531 Z M 63.777344 102.894531 " fill-opacity="1" fill-rule="nonzero"></path>
  <path fill="#ffffff" d="M 94.039062 99.832031 L 94.019531 99.960938 C 94 100.058594 93.984375 100.15625 93.964844 100.25 C 93.957031 100.292969 93.949219 100.335938 93.941406 100.378906 L 93.90625 100.527344 C 93.898438 100.597656 93.890625 100.664062 93.882812 100.730469 L 93.832031 100.945312 C 93.824219 100.992188 93.816406 101.035156 93.8125 101.078125 C 93.792969 101.175781 93.777344 101.269531 93.761719 101.367188 C 93.753906 101.410156 93.746094 101.453125 93.738281 101.5 C 93.722656 101.566406 93.707031 101.644531 93.691406 101.714844 L 93.664062 101.914062 C 93.648438 101.984375 93.632812 102.0625 93.621094 102.132812 L 93.59375 102.261719 C 93.582031 102.335938 93.566406 102.410156 93.550781 102.484375 C 93.535156 102.554688 93.535156 102.617188 93.527344 102.683594 C 93.511719 102.734375 93.5 102.78125 93.488281 102.832031 C 93.453125 102.945312 93.417969 103.058594 93.382812 103.171875 C 93.367188 103.222656 93.347656 103.269531 93.328125 103.320312 C 92.910156 104.238281 92.230469 104.839844 91.242188 105.074219 L 90.953125 105.113281 L 87.066406 105.113281 L 86.777344 105.066406 C 86.011719 104.8125 85.53125 104.296875 85.308594 103.527344 C 85.296875 103.480469 85.28125 103.429688 85.269531 103.378906 C 85.269531 100.925781 85.269531 98.472656 85.25 96.019531 C 85.25 95.699219 85.347656 95.625 85.648438 95.636719 C 86.238281 95.65625 86.835938 95.65625 87.425781 95.636719 C 87.726562 95.625 87.824219 95.703125 87.820312 96.019531 C 87.804688 98.195312 87.816406 100.367188 87.804688 102.542969 C 87.804688 102.816406 87.855469 102.984375 88.175781 102.886719 L 90.636719 102.871094 C 90.828125 102.898438 90.996094 102.894531 90.980469 102.628906 C 91.019531 102.460938 91.058594 102.296875 91.09375 102.132812 L 91.125 101.933594 L 91.300781 101.15625 C 91.3125 101.085938 91.328125 101.023438 91.335938 100.957031 C 91.371094 100.816406 91.40625 100.671875 91.441406 100.527344 L 91.472656 100.324219 C 91.488281 100.257812 91.507812 100.179688 91.523438 100.109375 L 91.546875 99.980469 L 91.65625 99.339844 L 91.679688 99.207031 C 91.695312 99.160156 91.707031 99.109375 91.722656 99.0625 C 91.734375 98.992188 91.746094 98.929688 91.757812 98.859375 L 91.867188 98.503906 C 91.878906 98.460938 91.886719 98.417969 91.894531 98.371094 C 91.914062 98.300781 91.9375 98.230469 91.957031 98.160156 L 91.953125 98.167969 L 92.09375 98.097656 L 92.773438 98.097656 C 93.171875 98.117188 93.570312 98.125 93.96875 98.15625 C 94.09375 98.167969 94.207031 98.242188 94.328125 98.289062 C 94.320312 98.332031 94.3125 98.378906 94.304688 98.421875 C 94.289062 98.539062 94.269531 98.65625 94.253906 98.777344 C 94.246094 98.820312 94.242188 98.863281 94.234375 98.910156 C 94.21875 98.976562 94.203125 99.050781 94.183594 99.125 C 94.152344 99.285156 94.121094 99.445312 94.089844 99.605469 Z M 94.039062 99.832031 " fill-opacity="1" fill-rule="nonzero"></path>
  <path fill="#ffffff" d="M 58.367188 112.25 L 59.695312 112.25 L 61.992188 112.273438 L 62.207031 112.316406 L 63.296875 112.753906 L 63.59375 113.046875 L 64 113.800781 L 64.070312 113.941406 C 64.070312 114.378906 64.070312 114.816406 64.074219 115.25 C 64.050781 115.351562 64.03125 115.449219 64.023438 115.550781 C 64.019531 116.171875 64.019531 116.800781 64.019531 117.421875 C 64.011719 117.492188 64.003906 117.554688 63.996094 117.621094 C 63.984375 117.671875 63.972656 117.722656 63.960938 117.769531 C 63.65625 118.730469 62.9375 119.160156 61.996094 119.308594 L 59.769531 119.285156 L 59.472656 118.1875 C 59.460938 118.140625 59.445312 118.089844 59.433594 118.039062 C 59.371094 117.738281 59.3125 117.441406 59.253906 117.140625 C 59.363281 117.097656 59.46875 117.023438 59.582031 117.019531 C 60.109375 117.007812 60.644531 117.023438 61.175781 117.007812 C 61.285156 117.003906 61.476562 116.894531 61.480469 116.835938 C 61.488281 116.308594 61.460938 115.777344 61.445312 115.25 C 61.441406 115.089844 61.433594 114.929688 61.429688 114.769531 C 61.375 114.699219 61.320312 114.570312 61.265625 114.570312 C 60.738281 114.570312 60.210938 114.597656 59.683594 114.617188 L 59.277344 114.617188 L 58.71875 114.546875 C 58.667969 114.363281 58.617188 114.183594 58.566406 114.003906 C 58.550781 113.953125 58.535156 113.90625 58.519531 113.855469 C 58.484375 113.695312 58.453125 113.535156 58.421875 113.375 L 58.382812 113.226562 C 58.328125 112.949219 58.273438 112.671875 58.214844 112.398438 Z M 58.367188 112.25 " fill-opacity="1" fill-rule="nonzero"></path>
  <path fill="#ffffff" d="M 91.289062 106.824219 L 91.289062 107.429688 C 91.246094 107.609375 91.203125 107.789062 91.160156 107.96875 L 88.742188 107.96875 L 88.617188 107.84375 C 88.632812 107.308594 88.667969 106.777344 88.664062 106.242188 C 88.664062 105.992188 88.71875 105.894531 88.988281 105.894531 C 89.734375 105.910156 90.476562 105.902344 91.222656 105.902344 C 91.246094 106.214844 91.265625 106.519531 91.289062 106.824219 Z M 91.289062 106.824219 " fill-opacity="1" fill-rule="nonzero"></path>
  <path fill="#ffffff" d="M 78.210938 56.351562 C 78.421875 56.039062 78.617188 55.722656 78.839844 55.417969 C 79.148438 54.992188 79.472656 54.585938 79.792969 54.171875 C 79.539062 54.578125 79.304688 54.996094 79.023438 55.386719 C 78.78125 55.726562 78.484375 56.027344 78.210938 56.351562 Z M 78.210938 56.351562 " fill-opacity="1" fill-rule="nonzero"></path>
  <path fill="#ffffff" d="M 64.8125 25.570312 C 65.035156 24.8125 65.390625 24.128906 65.882812 23.515625 C 65.878906 23.59375 65.863281 23.667969 65.839844 23.742188 C 65.558594 24.300781 65.273438 24.855469 64.984375 25.40625 C 64.949219 25.472656 64.871094 25.515625 64.8125 25.570312 Z M 64.8125 25.570312 " fill-opacity="1" fill-rule="nonzero"></path>
  <path fill="#ffffff" d="M 82.210938 49.792969 C 82.445312 49.199219 82.683594 48.609375 82.921875 48.015625 C 82.683594 48.609375 82.445312 49.203125 82.210938 49.792969 Z M 82.210938 49.792969 " fill-opacity="1" fill-rule="nonzero"></path>
  <path fill="#ffffff" d="M 82.917969 40.648438 L 82.339844 39.359375 C 82.644531 39.738281 82.835938 40.167969 82.917969 40.648438 Z M 82.917969 40.648438 " fill-opacity="1" fill-rule="nonzero"></path>
  <path fill="#ffffff" d="M 83.261719 42.046875 C 83.152344 41.644531 83.046875 41.242188 82.9375 40.839844 C 83.0625 41.015625 83.15625 41.207031 83.210938 41.414062 C 83.265625 41.621094 83.285156 41.832031 83.261719 42.046875 Z M 83.261719 42.046875 " fill-opacity="1" fill-rule="nonzero"></path>
  <path fill="#ffffff" d="M 80.65625 52.789062 C 80.851562 52.453125 81.046875 52.117188 81.242188 51.78125 Z M 80.65625 52.789062 " fill-opacity="1" fill-rule="nonzero"></path>
  <path fill="#ffffff" d="M 83.621094 43.644531 C 83.34375 43.441406 83.328125 43.164062 83.40625 42.863281 L 83.492188 42.867188 C 83.535156 43.125 83.578125 43.386719 83.621094 43.644531 Z M 83.621094 43.644531 " fill-opacity="1" fill-rule="nonzero"></path>
  <path fill="#ffffff" d="M 67.644531 100.8125 L 67.59375 99.832031 " fill-opacity="1" fill-rule="nonzero"></path>
  <path fill="#ffffff" d="M 79.792969 54.171875 L 80.351562 53.332031 Z M 79.792969 54.171875 " fill-opacity="1" fill-rule="nonzero"></path>
  <path fill="#ffffff" d="M 74.003906 68 C 73.96875 67.957031 73.898438 67.886719 73.90625 67.875 C 74.019531 67.722656 74.148438 67.578125 74.269531 67.429688 L 74.292969 67.738281 L 74.246094 67.792969 L 74.179688 67.773438 L 74.21875 67.820312 Z M 74.003906 68 " fill-opacity="1" fill-rule="nonzero"></path>
  <path fill="#ffffff" d="M 65.476562 23.589844 C 65.300781 23.808594 65.125 24.027344 64.949219 24.242188 Z M 65.476562 23.589844 " fill-opacity="1" fill-rule="nonzero"></path>
  <path fill="#ffffff" d="M 64.648438 24.710938 L 64.179688 25.363281 Z M 64.648438 24.710938 " fill-opacity="1" fill-rule="nonzero"></path>
  <path fill="#ffffff" d="M 88.507812 114.210938 C 88.445312 114.492188 88.386719 114.773438 88.324219 115.054688 " fill-opacity="1" fill-rule="nonzero"></path>
  <path fill="#ffffff" d="M 88.992188 111.980469 C 88.933594 112.238281 88.875 112.496094 88.816406 112.753906 " fill-opacity="1" fill-rule="nonzero"></path>
  <path fill="#ffffff" d="M 76.539062 64.9375 L 76.855469 64.359375 Z M 76.539062 64.9375 " fill-opacity="1" fill-rule="nonzero"></path>
  <path fill="#ffffff" d="M 84.671875 110.511719 C 84.636719 110.722656 84.59375 110.933594 84.554688 111.144531 " fill-opacity="1" fill-rule="nonzero"></path>
  <path fill="#ffffff" d="M 66.324219 98.175781 L 65.691406 98.027344 " fill-opacity="1" fill-rule="nonzero"></path>
  <path fill="#ffffff" d="M 81.484375 51.320312 L 81.816406 50.679688 Z M 81.484375 51.320312 " fill-opacity="1" fill-rule="nonzero"></path>
  <path fill="#ffffff" d="M 75.066406 66.960938 L 75.464844 66.527344 Z M 75.066406 66.960938 " fill-opacity="1" fill-rule="nonzero"></path>
  <path fill="#ffffff" d="M 58.722656 114.546875 L 59.28125 114.613281 " fill-opacity="1" fill-rule="nonzero"></path>
  <path fill="#ffffff" d="M 80.90625 37.355469 L 80.503906 36.921875 Z M 80.90625 37.355469 " fill-opacity="1" fill-rule="nonzero"></path>
  <path fill="#ffffff" d="M 83.40625 42.671875 C 83.359375 42.503906 83.316406 42.332031 83.273438 42.167969 C 83.316406 42.332031 83.359375 42.503906 83.40625 42.671875 Z M 83.40625 42.671875 " fill-opacity="1" fill-rule="nonzero"></path>
  <path fill="#ffffff" d="M 86.296875 115.257812 C 86.335938 115.09375 86.375 114.925781 86.410156 114.761719 " fill-opacity="1" fill-rule="nonzero"></path>
  <path fill="#ffffff" d="M 91.882812 110.71875 C 91.921875 110.554688 91.960938 110.390625 92 110.226562 " fill-opacity="1" fill-rule="nonzero"></path>
  <path fill="#ffffff" d="M 88.78125 112.957031 L 88.671875 113.449219 " fill-opacity="1" fill-rule="nonzero"></path>
  <path fill="#ffffff" d="M 88.644531 113.582031 C 88.609375 113.75 88.570312 113.914062 88.53125 114.078125 " fill-opacity="1" fill-rule="nonzero"></path>
  <path fill="#ffffff" d="M 86.445312 114.558594 C 86.480469 114.421875 86.515625 114.277344 86.546875 114.132812 " fill-opacity="1" fill-rule="nonzero"></path>
  <path fill="#ffffff" d="M 59.699219 102.769531 L 59.277344 102.851562 " fill-opacity="1" fill-rule="nonzero"></path>
  <path fill="#ffffff" d="M 80.394531 53.214844 C 80.472656 53.089844 80.550781 52.964844 80.628906 52.839844 C 80.550781 52.964844 80.472656 53.089844 80.394531 53.214844 Z M 80.394531 53.214844 " fill-opacity="1" fill-rule="nonzero"></path>
  <path fill="#ffffff" d="M 89.128906 111.351562 C 89.097656 111.488281 89.0625 111.632812 89.03125 111.777344 " fill-opacity="1" fill-rule="nonzero"></path>
  <path fill="#ffffff" d="M 83.613281 115.539062 C 83.578125 115.679688 83.542969 115.824219 83.511719 115.964844 " fill-opacity="1" fill-rule="nonzero"></path>
  <path fill="#ffffff" d="M 64.921875 24.289062 L 64.667969 24.664062 Z M 64.921875 24.289062 " fill-opacity="1" fill-rule="nonzero"></path>
  <path fill="#ffffff" d="M 76.105469 112.203125 L 75.75 112.25 " fill-opacity="1" fill-rule="nonzero"></path>
  <path fill="#ffffff" d="M 60.796875 108.703125 L 60.6875 108.347656 Z M 60.796875 108.703125 " fill-opacity="1" fill-rule="nonzero"></path>
  <path fill="#ffffff" d="M 91.867188 98.503906 L 91.753906 98.863281 Z M 91.867188 98.503906 " fill-opacity="1" fill-rule="nonzero"></path>
  <path fill="#ffffff" d="M 81.984375 50.277344 C 82.042969 50.152344 82.101562 50.027344 82.164062 49.90625 C 82.101562 50.027344 82.039062 50.152344 81.984375 50.277344 Z M 81.984375 50.277344 " fill-opacity="1" fill-rule="nonzero"></path>
  <path fill="#ffffff" d="M 74.765625 70.445312 L 74.585938 70.148438 Z M 74.765625 70.445312 " fill-opacity="1" fill-rule="nonzero"></path>
  <path fill="#ffffff" d="M 84.847656 109.820312 C 84.820312 109.914062 84.792969 110.003906 84.765625 110.101562 " fill-opacity="1" fill-rule="nonzero"></path>
  <path fill="#ffffff" d="M 90.953125 105.113281 L 91.242188 105.074219 " fill-opacity="1" fill-rule="nonzero"></path>
  <path fill="#ffffff" d="M 76.332031 65.289062 L 76.511719 64.992188 Z M 76.332031 65.289062 " fill-opacity="1" fill-rule="nonzero"></path>
  <path fill="#ffffff" d="M 97.53125 82.726562 C 97.550781 82.632812 97.574219 82.542969 97.597656 82.445312 C 97.574219 82.542969 97.550781 82.636719 97.53125 82.726562 Z M 97.53125 82.726562 " fill-opacity="1" fill-rule="nonzero"></path>
  <path fill="#ffffff" d="M 81.84375 50.625 L 81.957031 50.328125 Z M 81.84375 50.625 " fill-opacity="1" fill-rule="nonzero"></path>
  <path fill="#ffffff" d="M 98.9375 74.628906 C 98.957031 74.535156 98.972656 74.441406 98.988281 74.347656 C 98.972656 74.441406 98.957031 74.535156 98.9375 74.628906 Z M 98.9375 74.628906 " fill-opacity="1" fill-rule="nonzero"></path>
  <path fill="#ffffff" d="M 81.050781 112.238281 L 80.765625 112.203125 Z M 81.050781 112.238281 " fill-opacity="1" fill-rule="nonzero"></path>
  <path fill="#ffffff" d="M 75.953125 72.332031 L 76.25 72.519531 Z M 75.953125 72.332031 " fill-opacity="1" fill-rule="nonzero"></path>
  <path fill="#ffffff" d="M 82.027344 38.816406 L 81.847656 38.523438 Z M 82.027344 38.816406 " fill-opacity="1" fill-rule="nonzero"></path>
  <path fill="#ffffff" d="M 59.960938 99.898438 C 59.945312 99.996094 59.929688 100.089844 59.914062 100.183594 C 59.925781 100.085938 59.945312 99.996094 59.960938 99.898438 Z M 59.960938 99.898438 " fill-opacity="1" fill-rule="nonzero"></path>
  <path fill="#ffffff" d="M 84.269531 112.464844 C 84.25 112.5625 84.230469 112.65625 84.207031 112.753906 " fill-opacity="1" fill-rule="nonzero"></path>
  <path fill="#ffffff" d="M 79.246094 102.847656 L 78.976562 102.761719 Z M 79.246094 102.847656 " fill-opacity="1" fill-rule="nonzero"></path>
  <path fill="#ffffff" d="M 74.148438 102.847656 L 73.871094 102.761719 Z M 74.148438 102.847656 " fill-opacity="1" fill-rule="nonzero"></path>
  <path fill="#ffffff" d="M 75.910156 65.917969 L 76.089844 65.6875 Z M 75.910156 65.917969 " fill-opacity="1" fill-rule="nonzero"></path>
  <path fill="#ffffff" d="M 76.453125 72.316406 L 76.234375 72.117188 Z M 76.453125 72.316406 " fill-opacity="1" fill-rule="nonzero"></path>
  <path fill="#ffffff" d="M 65.757812 23.242188 L 65.570312 23.46875 Z M 65.757812 23.242188 " fill-opacity="1" fill-rule="nonzero"></path>
  <path fill="#ffffff" d="M 91.519531 100.109375 C 91.503906 100.179688 91.488281 100.253906 91.472656 100.328125 C 91.488281 100.253906 91.503906 100.183594 91.519531 100.109375 Z M 91.519531 100.109375 " fill-opacity="1" fill-rule="nonzero"></path>
  <path fill="#ffffff" d="M 71.210938 112.320312 L 70.992188 112.273438 Z M 71.210938 112.320312 " fill-opacity="1" fill-rule="nonzero"></path>
  <path fill="#ffffff" d="M 94.039062 99.832031 L 94.085938 99.613281 Z M 94.039062 99.832031 " fill-opacity="1" fill-rule="nonzero"></path>
  <path fill="#ffffff" d="M 89.214844 110.929688 L 89.164062 111.148438 Z M 89.214844 110.929688 " fill-opacity="1" fill-rule="nonzero"></path>
  <path fill="#ffffff" d="M 91.738281 111.277344 C 91.757812 111.210938 91.777344 111.140625 91.792969 111.066406 C 91.777344 111.136719 91.757812 111.207031 91.738281 111.277344 Z M 91.738281 111.277344 " fill-opacity="1" fill-rule="nonzero"></path>
  <path fill="#ffffff" d="M 91.667969 111.628906 C 91.683594 111.558594 91.699219 111.484375 91.714844 111.410156 C 91.699219 111.484375 91.6875 111.554688 91.667969 111.628906 Z M 91.667969 111.628906 " fill-opacity="1" fill-rule="nonzero"></path>
  <path fill="#ffffff" d="M 84.394531 111.910156 C 84.378906 111.976562 84.359375 112.046875 84.339844 112.121094 C 84.355469 112.050781 84.378906 111.980469 84.394531 111.910156 Z M 84.394531 111.910156 " fill-opacity="1" fill-rule="nonzero"></path>
  <path fill="#ffffff" d="M 62.207031 112.316406 L 61.992188 112.273438 Z M 62.207031 112.316406 " fill-opacity="1" fill-rule="nonzero"></path>
  <path fill="#ffffff" d="M 67.449219 112.269531 L 67.234375 112.320312 Z M 67.449219 112.269531 " fill-opacity="1" fill-rule="nonzero"></path>
  <path fill="#ffffff" d="M 91.320312 113.234375 L 91.367188 113.015625 Z M 91.320312 113.234375 " fill-opacity="1" fill-rule="nonzero"></path>
  <path fill="#ffffff" d="M 84.046875 113.511719 C 84.03125 113.582031 84.011719 113.652344 83.996094 113.726562 C 84.011719 113.65625 84.03125 113.585938 84.046875 113.511719 Z M 84.046875 113.511719 " fill-opacity="1" fill-rule="nonzero"></path>
  <path fill="#ffffff" d="M 86.570312 114 C 86.589844 113.929688 86.605469 113.863281 86.625 113.785156 C 86.605469 113.859375 86.589844 113.929688 86.570312 114 Z M 86.570312 114 " fill-opacity="1" fill-rule="nonzero"></path>
  <path fill="#ffffff" d="M 97.0625 85.449219 C 97.078125 85.378906 97.09375 85.308594 97.113281 85.238281 C 97.09375 85.3125 97.074219 85.378906 97.0625 85.449219 Z M 97.0625 85.449219 " fill-opacity="1" fill-rule="nonzero"></path>
  <path fill="#ffffff" d="M 94.179688 99.132812 C 94.199219 99.0625 94.214844 98.988281 94.230469 98.917969 C 94.214844 98.988281 94.199219 99.058594 94.179688 99.132812 Z M 94.179688 99.132812 " fill-opacity="1" fill-rule="nonzero"></path>
  <path fill="#ffffff" d="M 99.847656 69.53125 L 99.90625 69.324219 Z M 99.847656 69.53125 " fill-opacity="1" fill-rule="nonzero"></path>
  <path fill="#ffffff" d="M 90.972656 114.839844 C 90.988281 114.769531 91.003906 114.699219 91.019531 114.625 C 91.003906 114.695312 90.988281 114.769531 90.972656 114.839844 Z M 90.972656 114.839844 " fill-opacity="1" fill-rule="nonzero"></path>
  <path fill="#ffffff" d="M 99.640625 70.71875 L 99.691406 70.507812 Z M 99.640625 70.71875 " fill-opacity="1" fill-rule="nonzero"></path>
  <path fill="#ffffff" d="M 99.285156 72.671875 C 99.300781 72.601562 99.320312 72.535156 99.335938 72.464844 C 99.320312 72.53125 99.300781 72.601562 99.285156 72.671875 Z M 99.285156 72.671875 " fill-opacity="1" fill-rule="nonzero"></path>
  <path fill="#ffffff" d="M 97.75 81.398438 C 97.769531 81.328125 97.792969 81.261719 97.8125 81.195312 C 97.792969 81.261719 97.769531 81.332031 97.75 81.398438 Z M 97.75 81.398438 " fill-opacity="1" fill-rule="nonzero"></path>
  <path fill="#ffffff" d="M 97.410156 83.425781 L 97.464844 83.214844 Z M 97.410156 83.425781 " fill-opacity="1" fill-rule="nonzero"></path>
  <path fill="#ffffff" d="M 97.195312 84.679688 L 97.246094 84.472656 Z M 97.195312 84.679688 " fill-opacity="1" fill-rule="nonzero"></path>
  <path fill="#ffffff" d="M 86.226562 115.609375 C 86.242188 115.539062 86.261719 115.46875 86.277344 115.394531 C 86.261719 115.464844 86.242188 115.535156 86.226562 115.609375 Z M 86.226562 115.609375 " fill-opacity="1" fill-rule="nonzero"></path>
  <path fill="#ffffff" d="M 96.851562 86.707031 C 96.867188 86.636719 96.882812 86.566406 96.898438 86.496094 C 96.882812 86.566406 96.863281 86.636719 96.851562 86.707031 Z M 96.851562 86.707031 " fill-opacity="1" fill-rule="nonzero"></path>
  <path fill="#ffffff" d="M 96.710938 87.472656 C 96.730469 87.402344 96.746094 87.332031 96.761719 87.265625 C 96.742188 87.335938 96.726562 87.402344 96.710938 87.472656 Z M 96.710938 87.472656 " fill-opacity="1" fill-rule="nonzero"></path>
  <path fill="#ffffff" d="M 96.496094 88.730469 C 96.511719 88.660156 96.53125 88.589844 96.546875 88.519531 C 96.53125 88.589844 96.511719 88.660156 96.496094 88.730469 Z M 96.496094 88.730469 " fill-opacity="1" fill-rule="nonzero"></path>
  <path fill="#ffffff" d="M 96.363281 89.5 L 96.414062 89.289062 Z M 96.363281 89.5 " fill-opacity="1" fill-rule="nonzero"></path>
  <path fill="#ffffff" d="M 90.625 116.445312 C 90.640625 116.375 90.65625 116.304688 90.671875 116.230469 C 90.65625 116.300781 90.640625 116.375 90.625 116.445312 Z M 90.625 116.445312 " fill-opacity="1" fill-rule="nonzero"></path>
  <path fill="#ffffff" d="M 53.621094 90.40625 C 53.640625 90.476562 53.65625 90.542969 53.671875 90.613281 C 53.65625 90.542969 53.636719 90.476562 53.621094 90.40625 Z M 53.621094 90.40625 " fill-opacity="1" fill-rule="nonzero"></path>
  <path fill="#ffffff" d="M 96.144531 90.753906 C 96.164062 90.683594 96.179688 90.613281 96.195312 90.542969 C 96.179688 90.613281 96.164062 90.683594 96.144531 90.753906 Z M 96.144531 90.753906 " fill-opacity="1" fill-rule="nonzero"></path>
  <path fill="#ffffff" d="M 90.476562 117.144531 C 90.492188 117.074219 90.511719 116.996094 90.527344 116.925781 C 90.511719 116.996094 90.492188 117.070312 90.476562 117.144531 Z M 90.476562 117.144531 " fill-opacity="1" fill-rule="nonzero"></path>
  <path fill="#ffffff" d="M 53.972656 92.359375 C 53.992188 92.429688 54.007812 92.496094 54.023438 92.570312 C 54.007812 92.5 53.996094 92.429688 53.972656 92.359375 Z M 53.972656 92.359375 " fill-opacity="1" fill-rule="nonzero"></path>
  <path fill="#ffffff" d="M 91.957031 98.164062 C 91.933594 98.230469 91.914062 98.304688 91.890625 98.371094 " fill-opacity="1" fill-rule="nonzero"></path>
  <path fill="#ffffff" d="M 72.96875 119.796875 L 73.011719 119.582031 Z M 72.96875 119.796875 " fill-opacity="1" fill-rule="nonzero"></path>
  <path fill="#ffffff" d="M 95.796875 92.78125 C 95.8125 92.710938 95.828125 92.640625 95.84375 92.570312 C 95.828125 92.636719 95.8125 92.707031 95.796875 92.78125 Z M 95.796875 92.78125 " fill-opacity="1" fill-rule="nonzero"></path>
  <path fill="#ffffff" d="M 54.101562 93.0625 C 54.121094 93.132812 54.136719 93.199219 54.15625 93.273438 C 54.136719 93.199219 54.121094 93.128906 54.101562 93.0625 Z M 54.101562 93.0625 " fill-opacity="1" fill-rule="nonzero"></path>
  <path fill="#ffffff" d="M 68.972656 123.765625 L 69.183594 123.71875 Z M 68.972656 123.765625 " fill-opacity="1" fill-rule="nonzero"></path>
  <path fill="#ffffff" d="M 66.117188 123.863281 L 66.332031 123.902344 Z M 66.117188 123.863281 " fill-opacity="1" fill-rule="nonzero"></path>
  <path fill="#ffffff" d="M 93.691406 101.714844 C 93.707031 101.644531 93.722656 101.570312 93.738281 101.5 C 93.722656 101.570312 93.710938 101.644531 93.691406 101.714844 Z M 93.691406 101.714844 " fill-opacity="1" fill-rule="nonzero"></path>
  <path fill="#ffffff" d="M 93.621094 102.132812 C 93.632812 102.066406 93.648438 101.988281 93.664062 101.914062 C 93.648438 101.988281 93.632812 102.0625 93.621094 102.132812 Z M 93.621094 102.132812 " fill-opacity="1" fill-rule="nonzero"></path>
  <path fill="#ffffff" d="M 93.550781 102.484375 C 93.566406 102.414062 93.582031 102.335938 93.59375 102.261719 C 93.582031 102.335938 93.566406 102.410156 93.550781 102.484375 Z M 93.550781 102.484375 " fill-opacity="1" fill-rule="nonzero"></path>
  <path fill="#ffffff" d="M 93.832031 100.945312 L 93.882812 100.730469 Z M 93.832031 100.945312 " fill-opacity="1" fill-rule="nonzero"></path>
  <path fill="#ffffff" d="M 88.46875 126.570312 C 88.484375 126.496094 88.503906 126.425781 88.519531 126.359375 C 88.503906 126.425781 88.484375 126.496094 88.46875 126.570312 Z M 88.46875 126.570312 " fill-opacity="1" fill-rule="nonzero"></path>
  <path fill="#ffffff" d="M 61.300781 126.496094 L 61.355469 126.707031 Z M 61.300781 126.496094 " fill-opacity="1" fill-rule="nonzero"></path>
  <path fill="#ffffff" d="M 85.265625 103.378906 C 85.277344 103.429688 85.292969 103.480469 85.308594 103.53125 C 85.292969 103.480469 85.277344 103.429688 85.265625 103.378906 Z M 85.265625 103.378906 " fill-opacity="1" fill-rule="nonzero"></path>
  <path fill="#ffffff" d="M 83.492188 42.867188 L 83.40625 42.863281 C 83.414062 42.816406 83.421875 42.769531 83.429688 42.722656 Z M 83.492188 42.867188 " fill-opacity="1" fill-rule="nonzero"></path>
  <path fill="#ffffff" d="M 74.503906 113.714844 C 74.519531 113.765625 74.53125 113.8125 74.542969 113.863281 C 74.53125 113.8125 74.519531 113.765625 74.503906 113.714844 Z M 74.503906 113.714844 " fill-opacity="1" fill-rule="nonzero"></path>
  <path fill="#ffffff" d="M 64.074219 113.941406 L 64.003906 113.800781 Z M 64.074219 113.941406 " fill-opacity="1" fill-rule="nonzero"></path>
  <path fill="#ffffff" d="M 93.328125 103.320312 C 93.347656 103.269531 93.367188 103.222656 93.382812 103.171875 Z M 93.328125 103.320312 " fill-opacity="1" fill-rule="nonzero"></path>
  <path fill="#ffffff" d="M 58.519531 113.855469 C 58.539062 113.90625 58.554688 113.953125 58.566406 114 C 58.554688 113.953125 58.539062 113.90625 58.519531 113.855469 Z M 58.519531 113.855469 " fill-opacity="1" fill-rule="nonzero"></path>
  <path fill="#ffffff" d="M 81.75 38.398438 L 81.632812 38.246094 Z M 81.75 38.398438 " fill-opacity="1" fill-rule="nonzero"></path>
  <path fill="#ffffff" d="M 74.574219 113.996094 C 74.589844 114.046875 74.609375 114.09375 74.625 114.140625 C 74.609375 114.09375 74.589844 114.046875 74.574219 113.996094 Z M 74.574219 113.996094 " fill-opacity="1" fill-rule="nonzero"></path>
  <path fill="#ffffff" d="M 81.605469 38.191406 C 81.566406 38.140625 81.527344 38.089844 81.492188 38.035156 Z M 81.605469 38.191406 " fill-opacity="1" fill-rule="nonzero"></path>
  <path fill="#ffffff" d="M 81.335938 37.835938 L 81.207031 37.6875 Z M 81.335938 37.835938 " fill-opacity="1" fill-rule="nonzero"></path>
  <path fill="#ffffff" d="M 67.867188 102.847656 L 67.691406 102.792969 Z M 67.867188 102.847656 " fill-opacity="1" fill-rule="nonzero"></path>
  <path fill="#ffffff" d="M 67.496094 99.417969 C 67.480469 99.371094 67.460938 99.320312 67.441406 99.273438 C 67.460938 99.320312 67.480469 99.371094 67.496094 99.417969 Z M 67.496094 99.417969 " fill-opacity="1" fill-rule="nonzero"></path>
  <path fill="#ffffff" d="M 91.046875 114.492188 C 91.0625 114.441406 91.074219 114.394531 91.085938 114.34375 C 91.074219 114.394531 91.058594 114.441406 91.046875 114.492188 Z M 91.046875 114.492188 " fill-opacity="1" fill-rule="nonzero"></path>
  <path fill="#ffffff" d="M 95.566406 93.894531 L 95.636719 93.753906 Z M 95.566406 93.894531 " fill-opacity="1" fill-rule="nonzero"></path>
  <path fill="#ffffff" d="M 91.71875 99.0625 C 91.703125 99.113281 91.691406 99.160156 91.675781 99.207031 C 91.691406 99.160156 91.703125 99.109375 91.71875 99.0625 Z M 91.71875 99.0625 " fill-opacity="1" fill-rule="nonzero"></path>
  <path fill="#ffffff" d="M 57.816406 109.109375 C 57.835938 109.160156 57.855469 109.207031 57.875 109.253906 C 57.855469 109.207031 57.835938 109.164062 57.816406 109.109375 Z M 57.816406 109.109375 " fill-opacity="1" fill-rule="nonzero"></path>
  <path fill="#ffffff" d="M 93.488281 102.832031 C 93.5 102.78125 93.511719 102.734375 93.527344 102.683594 C 93.511719 102.734375 93.5 102.78125 93.488281 102.832031 Z M 93.488281 102.832031 " fill-opacity="1" fill-rule="nonzero"></path>
  <path fill="#ffffff" d="M 71.429688 98.101562 L 71.289062 98.183594 Z M 71.429688 98.101562 " fill-opacity="1" fill-rule="nonzero"></path>
  <path fill="#ffffff" d="M 60.660156 108.214844 C 60.644531 108.164062 60.628906 108.117188 60.617188 108.070312 Z M 60.660156 108.214844 " fill-opacity="1" fill-rule="nonzero"></path>
  <path fill="#ffffff" d="M 90.90625 115.117188 C 90.921875 115.070312 90.9375 115.023438 90.949219 114.972656 C 90.9375 115.023438 90.921875 115.070312 90.90625 115.117188 Z M 90.90625 115.117188 " fill-opacity="1" fill-rule="nonzero"></path>
  <path fill="#ffffff" d="M 83.6875 115.1875 C 83.675781 115.238281 83.660156 115.285156 83.648438 115.335938 C 83.660156 115.285156 83.675781 115.238281 83.6875 115.1875 Z M 83.6875 115.1875 " fill-opacity="1" fill-rule="nonzero"></path>
  <path fill="#ffffff" d="M 95.671875 93.476562 C 95.683594 93.429688 95.695312 93.382812 95.710938 93.339844 C 95.695312 93.386719 95.683594 93.429688 95.671875 93.476562 Z M 95.671875 93.476562 " fill-opacity="1" fill-rule="nonzero"></path>
  <path fill="#ffffff" d="M 91.601562 111.90625 C 91.617188 111.859375 91.628906 111.808594 91.644531 111.761719 C 91.628906 111.808594 91.617188 111.859375 91.601562 111.90625 Z M 91.601562 111.90625 " fill-opacity="1" fill-rule="nonzero"></path>
  <path fill="#ffffff" d="M 60.398438 105.835938 C 60.4375 105.773438 60.476562 105.710938 60.515625 105.648438 C 60.476562 105.710938 60.4375 105.773438 60.398438 105.835938 Z M 60.398438 105.835938 " fill-opacity="1" fill-rule="nonzero"></path>
  <path fill="#ffffff" d="M 96.023438 91.453125 L 96.058594 91.3125 Z M 96.023438 91.453125 " fill-opacity="1" fill-rule="nonzero"></path>
  <path fill="#ffffff" d="M 53.761719 91.171875 C 53.777344 91.21875 53.789062 91.265625 53.800781 91.3125 C 53.789062 91.265625 53.777344 91.222656 53.761719 91.171875 Z M 53.761719 91.171875 " fill-opacity="1" fill-rule="nonzero"></path>
  <path fill="#ffffff" d="M 53.40625 89.292969 C 53.417969 89.335938 53.433594 89.382812 53.449219 89.429688 Z M 53.40625 89.292969 " fill-opacity="1" fill-rule="nonzero"></path>
  <path fill="#ffffff" d="M 98.808594 75.328125 C 98.824219 75.28125 98.839844 75.234375 98.851562 75.1875 C 98.839844 75.234375 98.824219 75.28125 98.808594 75.328125 Z M 98.808594 75.328125 " fill-opacity="1" fill-rule="nonzero"></path>
  <path fill="#ffffff" d="M 90.699219 116.097656 C 90.714844 116.046875 90.726562 116 90.738281 115.949219 C 90.726562 116 90.714844 116.046875 90.699219 116.097656 Z M 90.699219 116.097656 " fill-opacity="1" fill-rule="nonzero"></path>
  <path fill="#ffffff" d="M 99.15625 73.371094 C 99.171875 73.324219 99.183594 73.277344 99.199219 73.230469 C 99.183594 73.28125 99.167969 73.324219 99.15625 73.371094 Z M 99.15625 73.371094 " fill-opacity="1" fill-rule="nonzero"></path>
  <path fill="#ffffff" d="M 67.570312 99.695312 L 67.527344 99.550781 Z M 67.570312 99.695312 " fill-opacity="1" fill-rule="nonzero"></path>
  <path fill="#ffffff" d="M 66.734375 98.390625 L 66.59375 98.3125 Z M 66.734375 98.390625 " fill-opacity="1" fill-rule="nonzero"></path>
  <path fill="#ffffff" d="M 90.5625 116.726562 L 90.601562 116.582031 Z M 90.5625 116.726562 " fill-opacity="1" fill-rule="nonzero"></path>
  <path fill="#ffffff" d="M 93.90625 100.527344 L 93.941406 100.378906 Z M 93.90625 100.527344 " fill-opacity="1" fill-rule="nonzero"></path>
  <path fill="#ffffff" d="M 60.9375 109.023438 L 60.824219 108.839844 Z M 60.9375 109.023438 " fill-opacity="1" fill-rule="nonzero"></path>
  <path fill="#ffffff" d="M 75.617188 112.273438 L 75.46875 112.3125 Z M 75.617188 112.273438 " fill-opacity="1" fill-rule="nonzero"></path>
  <path fill="#ffffff" d="M 81.402344 112.304688 L 81.257812 112.269531 Z M 81.402344 112.304688 " fill-opacity="1" fill-rule="nonzero"></path>
  <path fill="#ffffff" d="M 90.339844 117.5625 C 90.359375 117.515625 90.375 117.464844 90.390625 117.417969 C 90.375 117.464844 90.359375 117.515625 90.339844 117.5625 Z M 90.339844 117.5625 " fill-opacity="1" fill-rule="nonzero"></path>
  <path fill="#ffffff" d="M 63.964844 117.769531 C 63.976562 117.722656 63.988281 117.671875 64 117.621094 C 63.988281 117.671875 63.976562 117.722656 63.964844 117.769531 Z M 63.964844 117.769531 " fill-opacity="1" fill-rule="nonzero"></path>
  <path fill="#ffffff" d="M 59.441406 118.042969 C 59.453125 118.09375 59.46875 118.140625 59.480469 118.191406 C 59.464844 118.140625 59.449219 118.09375 59.441406 118.042969 Z M 59.441406 118.042969 " fill-opacity="1" fill-rule="nonzero"></path>
  <path fill="#ffffff" d="M 66.605469 119.105469 L 66.75 119.15625 Z M 66.605469 119.105469 " fill-opacity="1" fill-rule="nonzero"></path>
  <path fill="#ffffff" d="M 88.71875 119.144531 L 88.867188 119.085938 Z M 88.71875 119.144531 " fill-opacity="1" fill-rule="nonzero"></path>
  <path fill="#ffffff" d="M 76.296875 72.546875 L 76.464844 72.644531 Z M 76.296875 72.546875 " fill-opacity="1" fill-rule="nonzero"></path>
  <path fill="#ffffff" d="M 92.089844 98.101562 L 91.949219 98.171875 Z M 92.089844 98.101562 " fill-opacity="1" fill-rule="nonzero"></path>
  <path fill="#ffffff" d="M 60.023438 99.550781 L 59.988281 99.699219 Z M 60.023438 99.550781 " fill-opacity="1" fill-rule="nonzero"></path>
  <path fill="#ffffff" d="M 72.898438 120.074219 L 72.9375 119.925781 C 72.921875 119.976562 72.910156 120.027344 72.898438 120.074219 Z M 72.898438 120.074219 " fill-opacity="1" fill-rule="nonzero"></path>
  <path fill="#ffffff" d="M 72.753906 120.5625 L 72.800781 120.417969 Z M 72.753906 120.5625 " fill-opacity="1" fill-rule="nonzero"></path>
  <path fill="#ffffff" d="M 99.503906 71.417969 C 99.519531 71.371094 99.535156 71.324219 99.550781 71.277344 C 99.535156 71.324219 99.519531 71.371094 99.503906 71.417969 Z M 99.503906 71.417969 " fill-opacity="1" fill-rule="nonzero"></path>
  <path fill="#ffffff" d="M 68.773438 121.417969 L 68.628906 121.453125 Z M 68.773438 121.417969 " fill-opacity="1" fill-rule="nonzero"></path>
  <path fill="#ffffff" d="M 75.1875 71.003906 C 75.148438 70.949219 75.109375 70.898438 75.070312 70.847656 C 75.109375 70.898438 75.148438 70.949219 75.1875 71.003906 Z M 75.1875 71.003906 " fill-opacity="1" fill-rule="nonzero"></path>
  <path fill="#ffffff" d="M 84.113281 98.183594 L 83.972656 98.101562 Z M 84.113281 98.183594 " fill-opacity="1" fill-rule="nonzero"></path>
  <path fill="#ffffff" d="M 70.328125 123.339844 C 70.390625 123.300781 70.449219 123.257812 70.511719 123.214844 C 70.449219 123.257812 70.390625 123.300781 70.328125 123.339844 Z M 70.328125 123.339844 " fill-opacity="1" fill-rule="nonzero"></path>
  <path fill="#ffffff" d="M 75.042969 70.796875 L 74.921875 70.640625 Z M 75.042969 70.796875 " fill-opacity="1" fill-rule="nonzero"></path>
  <path fill="#ffffff" d="M 69.316406 123.683594 L 69.46875 123.640625 Z M 69.316406 123.683594 " fill-opacity="1" fill-rule="nonzero"></path>
  <path fill="#ffffff" d="M 91.394531 112.882812 C 91.40625 112.835938 91.421875 112.785156 91.433594 112.738281 C 91.421875 112.785156 91.40625 112.835938 91.394531 112.882812 Z M 91.394531 112.882812 " fill-opacity="1" fill-rule="nonzero"></path>
  <path fill="#ffffff" d="M 68.691406 123.828125 L 68.835938 123.796875 Z M 68.691406 123.828125 " fill-opacity="1" fill-rule="nonzero"></path>
  <path fill="#ffffff" d="M 75.554688 66.402344 C 75.59375 66.347656 75.628906 66.292969 75.667969 66.238281 C 75.632812 66.292969 75.59375 66.347656 75.554688 66.402344 Z M 75.554688 66.402344 " fill-opacity="1" fill-rule="nonzero"></path>
  <path fill="#ffffff" d="M 78.953125 98.171875 L 78.8125 98.101562 Z M 78.953125 98.171875 " fill-opacity="1" fill-rule="nonzero"></path>
  <path fill="#ffffff" d="M 57.453125 104.578125 L 57.402344 104.722656 Z M 57.453125 104.578125 " fill-opacity="1" fill-rule="nonzero"></path>
  <path fill="#ffffff" d="M 73.855469 98.175781 L 73.71875 98.101562 Z M 73.855469 98.175781 " fill-opacity="1" fill-rule="nonzero"></path>
  <path fill="#ffffff" d="M 61.09375 125.3125 C 61.105469 125.355469 61.117188 125.402344 61.132812 125.449219 C 61.117188 125.402344 61.105469 125.359375 61.09375 125.3125 Z M 61.09375 125.3125 " fill-opacity="1" fill-rule="nonzero"></path>
  <path fill="#ffffff" d="M 75.691406 66.191406 L 75.816406 66.039062 Z M 75.691406 66.191406 " fill-opacity="1" fill-rule="nonzero"></path>
  <path fill="#ffffff" d="M 58.382812 113.226562 L 58.421875 113.371094 Z M 58.382812 113.226562 " fill-opacity="1" fill-rule="nonzero"></path>
  <path fill="#ffffff" d="M 81.277344 51.671875 L 81.382812 51.503906 Z M 81.277344 51.671875 " fill-opacity="1" fill-rule="nonzero"></path>
  <path fill="#ffffff" d="M 91.253906 113.511719 C 91.269531 113.464844 91.285156 113.414062 91.296875 113.367188 C 91.28125 113.414062 91.265625 113.464844 91.253906 113.511719 Z M 91.253906 113.511719 " fill-opacity="1" fill-rule="nonzero"></path>
  <path fill="#ffffff" d="M 74.292969 67.378906 L 75.035156 66.035156 C 74.894531 66.542969 74.75 67.046875 74.292969 67.378906 Z M 74.292969 67.378906 " fill-opacity="1" fill-rule="nonzero"></path>
  <path fill="#ffffff" d="M 74.21875 67.820312 L 74.179688 67.773438 L 74.246094 67.792969 C 74.234375 67.796875 74.222656 67.804688 74.21875 67.820312 Z M 74.21875 67.820312 " fill-opacity="1" fill-rule="nonzero"></path>
</svg>
