<?xml version="1.0" encoding="UTF-8"?>
<svg xmlns="http://www.w3.org/2000/svg" xmlns:xlink="http://www.w3.org/1999/xlink" width="200" zoomAndPan="magnify" viewBox="0 0 150 149.999998" height="200" preserveAspectRatio="xMidYMid meet" version="1.0">
  <defs>
    <clipPath id="fe981e621e">
      <path d="M 96.023438 39.746094 L 122.933594 39.746094 L 122.933594 120.421875 L 96.023438 120.421875 Z M 96.023438 39.746094 " clip-rule="nonzero"></path>
    </clipPath>
    <clipPath id="ca63c3f906">
      <path d="M 65.675781 39.746094 L 75.269531 39.746094 L 75.269531 66.523438 L 65.675781 66.523438 Z M 65.675781 39.746094 " clip-rule="nonzero"></path>
    </clipPath>
    <clipPath id="6d6e11a941">
      <path d="M 75.148438 100.707031 L 88.359375 100.707031 L 88.359375 120.421875 L 75.148438 120.421875 Z M 75.148438 100.707031 " clip-rule="nonzero"></path>
    </clipPath>
    <clipPath id="9490e4c626">
      <path d="M 19.902344 44.683594 L 108.8125 44.683594 L 108.8125 115.226562 L 19.902344 115.226562 Z M 19.902344 44.683594 " clip-rule="nonzero"></path>
    </clipPath>
  </defs>
  <path fill="#ffffff" d="M 114.578125 63.425781 C 114.535156 63.582031 114.148438 64.640625 114.523438 64.105469 C 114.941406 63.503906 115.140625 62.410156 115.324219 61.710938 C 116.636719 56.835938 114.90625 52.242188 112.191406 48.164062 C 112.265625 48.273438 110.800781 51.269531 111.078125 51.679688 C 113.183594 54.84375 115.632812 59.511719 114.578125 63.425781 Z M 114.578125 63.425781 " fill-opacity="1" fill-rule="nonzero"></path>
  <g clip-path="url(#fe981e621e)">
    <path fill="#ffffff" d="M 122.859375 81.804688 C 121.964844 74.09375 111.941406 69.671875 106.355469 56.542969 C 106.777344 53.890625 107.171875 52.730469 106.789062 52.085938 C 104.921875 48.953125 103.578125 45.566406 102.972656 41.996094 C 102.78125 40.847656 102.695312 39.792969 102.675781 39.773438 C 102.605469 39.699219 100.09375 45.742188 103.433594 57.574219 C 108.328125 74.902344 120.375 79.71875 121.785156 87.59375 C 118.765625 94.515625 110.019531 95.746094 103.464844 102.664062 C 97.507812 108.945312 96.152344 116.578125 96.066406 119.34375 C 96.050781 119.695312 96.054688 120.046875 96.082031 120.398438 C 96.082031 120.398438 96.226562 120.035156 96.433594 119.410156 C 97.15625 117.253906 98.699219 111.9375 102.160156 108.320312 C 109.902344 100.148438 121.015625 99.929688 122.664062 86.332031 C 122.851562 84.839844 123.035156 83.304688 122.859375 81.804688 Z M 122.859375 81.804688 " fill-opacity="1" fill-rule="nonzero"></path>
  </g>
  <g clip-path="url(#ca63c3f906)">
    <path fill="#ffffff" d="M 66.285156 58.160156 C 67.445312 58.679688 68.203125 57.738281 69.535156 59.046875 C 72.699219 62.855469 72.070312 66.507812 72.222656 66.496094 C 73.285156 65.835938 77.386719 58.992188 73.796875 53.953125 C 73.261719 53.222656 72.679688 52.527344 72.046875 51.878906 C 72.359375 51.074219 72.441406 49.78125 72.511719 49 C 72.875 44.878906 71.367188 41.429688 67.488281 39.769531 C 67.488281 39.777344 67.476562 39.804688 67.46875 39.835938 C 67.445312 39.847656 67.402344 39.984375 67.339844 40.285156 C 64.34375 54.210938 72.617188 53.15625 74.53125 60.316406 C 74.222656 61.15625 73.316406 62.265625 72.726562 62.9375 C 72.597656 55.503906 66.519531 52.589844 66.488281 52.558594 C 66.261719 52.433594 65.84375 55.363281 65.820312 55.621094 C 65.683594 56.894531 65.59375 57.851562 66.285156 58.160156 Z M 67.128906 43.414062 C 70.378906 44.867188 72.339844 47.828125 72.015625 51.507812 C 72.003906 51.632812 72 51.726562 71.996094 51.796875 C 70.40625 50.117188 67.03125 46.867188 67.128906 43.417969 Z M 67.128906 43.414062 " fill-opacity="1" fill-rule="nonzero"></path>
  </g>
  <g clip-path="url(#6d6e11a941)">
    <path fill="#ffffff" d="M 82.425781 109.464844 C 83.527344 108.410156 84.457031 107.203125 85.863281 105.460938 C 83.773438 103.925781 81.546875 102.296875 79.453125 100.761719 C 78.988281 101.292969 76.097656 104.5 75.1875 105.539062 C 77.097656 106.941406 79.003906 108.34375 80.914062 109.75 C 79.601562 111.167969 79.066406 111.894531 77.472656 113.769531 C 78.605469 114.566406 79.738281 115.367188 80.863281 116.164062 C 81.984375 116.953125 84.414062 118.097656 83.863281 119.820312 C 83.796875 120.023438 83.710938 120.214844 83.613281 120.402344 C 83.789062 120.292969 86.839844 117.417969 87.898438 115.890625 C 88.390625 115.171875 88.480469 114.4375 88.015625 113.707031 C 87.714844 113.238281 84.191406 110.671875 82.425781 109.464844 Z M 82.425781 109.464844 " fill-opacity="1" fill-rule="nonzero"></path>
  </g>
  <path fill="#ffffff" d="M 47.164062 79.949219 C 48.503906 79.929688 51.824219 79.566406 53.148438 79.132812 C 53.613281 78.589844 54.03125 78.011719 54.40625 77.402344 C 54.78125 76.792969 55.109375 76.15625 55.386719 75.496094 C 55.539062 75.304688 55.710938 74.054688 55.835938 72.9375 C 55.839844 72.890625 55.84375 72.839844 55.84375 72.792969 C 55.84375 72.742188 55.839844 72.695312 55.832031 72.644531 C 55.828125 72.597656 55.820312 72.550781 55.808594 72.503906 C 55.796875 72.453125 55.78125 72.40625 55.765625 72.363281 C 55.75 72.316406 55.730469 72.269531 55.707031 72.226562 C 55.6875 72.183594 55.660156 72.140625 55.636719 72.101562 C 55.609375 72.058594 55.578125 72.019531 55.546875 71.980469 C 55.515625 71.945312 55.484375 71.910156 55.449219 71.875 C 55.414062 71.839844 55.375 71.808594 55.335938 71.78125 C 55.296875 71.75 55.257812 71.722656 55.214844 71.699219 C 55.175781 71.671875 55.132812 71.652344 55.085938 71.632812 C 55.042969 71.609375 54.996094 71.59375 54.949219 71.578125 C 54.902344 71.5625 54.855469 71.550781 54.808594 71.542969 C 54.761719 71.535156 54.710938 71.527344 54.664062 71.523438 C 54.613281 71.519531 54.566406 71.519531 54.519531 71.519531 C 54.46875 71.523438 54.421875 71.527344 54.371094 71.535156 C 54.144531 71.570312 53.921875 71.617188 53.699219 71.675781 C 53.476562 71.734375 53.257812 71.804688 53.046875 71.890625 C 52.832031 71.972656 52.621094 72.066406 52.417969 72.171875 C 52.214844 72.277344 52.015625 72.390625 51.824219 72.519531 C 51.632812 72.644531 51.445312 72.78125 51.269531 72.925781 C 51.09375 73.074219 50.921875 73.230469 50.761719 73.394531 C 50.601562 73.558594 50.449219 73.730469 50.308594 73.910156 C 50.167969 74.089844 50.035156 74.277344 49.910156 74.472656 C 49.523438 75.082031 49.515625 76.230469 49.433594 76.9375 C 49.277344 78.199219 49.277344 78.488281 49.359375 78.363281 C 49.5 78.144531 49.660156 77.933594 49.828125 77.730469 C 50 77.53125 50.179688 77.339844 50.375 77.160156 C 50.566406 76.984375 50.773438 76.816406 50.984375 76.664062 C 51.199219 76.511719 51.421875 76.371094 51.65625 76.246094 C 51.886719 76.121094 52.125 76.011719 52.371094 75.917969 C 52.617188 75.824219 52.867188 75.742188 53.121094 75.679688 C 53.375 75.617188 53.632812 75.570312 53.894531 75.535156 C 54.15625 75.503906 54.417969 75.492188 54.683594 75.492188 C 52.992188 78.113281 50.34375 79.152344 47.164062 79.949219 Z M 47.164062 79.949219 " fill-opacity="1" fill-rule="nonzero"></path>
  <path fill="#ffffff" d="M 67.207031 103.265625 C 67.085938 103.609375 66.742188 105.128906 66.84375 105.570312 C 67.167969 106.902344 68.054688 107.679688 68.300781 108.617188 C 68.167969 108.667969 68.03125 108.703125 67.890625 108.722656 C 66.015625 108.769531 66.125 106.492188 65.050781 105.464844 C 64.25 108.722656 64.789062 107.203125 65.085938 109.71875 C 65.074219 109.773438 65.054688 109.828125 65.027344 109.878906 C 65 109.929688 64.964844 109.976562 64.925781 110.019531 C 64.886719 110.058594 64.84375 110.097656 64.792969 110.125 C 64.746094 110.15625 64.695312 110.179688 64.636719 110.195312 C 63.554688 110.480469 63.355469 108.179688 61.957031 108.128906 C 59.90625 108.0625 58.820312 113.25 48.402344 114.160156 C 51.546875 114.402344 55.382812 115.246094 59 112.3125 C 59.996094 111.5 61.136719 109.890625 62.433594 110.871094 C 63.054688 111.335938 63.492188 112.96875 64.421875 112.53125 C 65.066406 112.222656 65.167969 111.164062 65.269531 110.558594 C 65.351562 110.078125 65.414062 109.59375 65.449219 109.109375 C 65.683594 109.660156 65.894531 110.230469 66.324219 110.664062 C 67.542969 111.886719 68.277344 110.609375 68.492188 109.484375 C 68.6875 108.457031 68.957031 107.234375 68.648438 106.207031 C 68.320312 105.15625 67.546875 104.085938 67.207031 103.265625 Z M 67.207031 103.265625 " fill-opacity="1" fill-rule="nonzero"></path>
  <g clip-path="url(#9490e4c626)">
    <path fill="#ffffff" d="M 98.285156 99.113281 C 98.292969 98.992188 98.230469 99.945312 98.234375 100.042969 C 98.234375 100.238281 98.179688 100.765625 98.363281 100.394531 C 99.804688 97.164062 103.855469 96.898438 106.0625 94.429688 C 108.0625 92.1875 108.199219 88.558594 108.5 85.753906 C 108.570312 85.089844 108.605469 84.433594 108.617188 83.785156 C 108.894531 80.722656 108.949219 78.011719 107.519531 75.285156 C 104.367188 69.265625 101.164062 66.164062 97.996094 59.742188 C 98.1875 58.855469 98.492188 57.566406 98.148438 56.992188 C 96.015625 53.414062 94.566406 49.496094 94.125 45.351562 C 94.046875 44.621094 94.058594 44.699219 94.046875 44.6875 C 93.976562 44.617188 91.105469 50.976562 94.191406 61.332031 C 97.878906 73.738281 106.683594 80.5625 107.472656 87.125 C 105.425781 90.324219 101.324219 90.265625 99.441406 93.480469 C 100.304688 81.8125 92.789062 76.492188 87.90625 66.601562 C 88.09375 65.714844 88.398438 64.429688 88.058594 63.851562 C 87.1875 62.414062 86.441406 60.914062 85.828125 59.347656 C 85.210938 57.78125 84.730469 56.175781 84.386719 54.527344 C 83.992188 52.554688 84.007812 51.539062 83.9375 51.539062 C 83.871094 51.539062 81.105469 57.867188 84.011719 68.023438 C 87.140625 78.976562 94.070312 84.691406 95.339844 89.277344 C 94.414062 91.265625 91.171875 95.941406 90.507812 95.503906 C 90.292969 95.363281 90.054688 94.039062 89.972656 93.796875 C 88.089844 88.507812 83.734375 80.246094 76.9375 71.601562 C 76.898438 71.550781 76.550781 72.996094 76.597656 72.777344 C 76.226562 74.699219 75.957031 76.636719 75.78125 78.585938 C 75.761719 78.875 75.601562 79.574219 75.78125 79.8125 C 76.355469 80.539062 76.910156 81.28125 77.460938 82.023438 C 78.503906 83.878906 79.296875 85.734375 79.710938 87.769531 C 77.355469 89.925781 74.363281 90.613281 72.453125 93.746094 C 73.34375 82.015625 65.851562 76.800781 60.921875 66.800781 C 61.109375 65.914062 61.414062 64.628906 61.074219 64.050781 C 58.84375 60.308594 57.359375 56.199219 56.992188 51.84375 C 56.992188 51.773438 54.015625 57.460938 56.992188 67.984375 C 57.605469 70.121094 58.378906 72.199219 59.3125 74.214844 C 60.25 76.230469 61.332031 78.160156 62.5625 80.007812 C 57.351562 85.449219 52.039062 81.425781 50.296875 88.367188 C 49.402344 91.898438 48.992188 97.441406 49.195312 97.648438 C 49.488281 97.941406 49.808594 98.199219 50.15625 98.425781 C 43.09375 103.449219 34.148438 110.914062 26.84375 108.042969 C 23.644531 106.789062 21.726562 103.714844 21.117188 100.4375 C 21.074219 100.21875 21.050781 99.996094 21.042969 99.773438 C 21.035156 99.546875 21.046875 99.324219 21.074219 99.101562 C 21.101562 98.878906 21.144531 98.660156 21.207031 98.445312 C 21.265625 98.230469 21.34375 98.019531 21.4375 97.816406 C 21.4375 97.816406 21.4375 97.804688 21.4375 97.804688 C 25.753906 88.351562 41.925781 87.929688 44.28125 76.242188 C 44.804688 73.703125 45.058594 71.140625 45.042969 68.546875 C 44.734375 70.621094 44.234375 72.648438 43.535156 74.625 C 43.539062 74.628906 43.539062 74.632812 43.535156 74.636719 C 39.726562 86.71875 21.378906 83.675781 19.960938 102.347656 C 19.199219 112.472656 25.953125 118.292969 36.183594 113.539062 C 46.164062 108.898438 56.074219 97.410156 64.292969 97.707031 C 64.578125 97.109375 65.351562 93.097656 65.351562 90.109375 C 62.808594 90.308594 60.703125 89.332031 57.742188 89.148438 C 59.425781 88.46875 60.964844 87.507812 62.144531 85.992188 C 63.089844 84.777344 63.453125 83.421875 63.722656 81.925781 C 63.730469 81.875 63.742188 81.816406 63.75 81.761719 C 67.34375 86.96875 71.757812 92.832031 71.296875 99.308594 C 71.3125 99.117188 71.125 101.0625 71.375 100.589844 C 73.660156 96.28125 78.308594 95.863281 80.121094 93.082031 C 80.917969 91.855469 81.066406 90.289062 81.445312 87.835938 C 82.457031 89.433594 83.425781 91.054688 84.355469 92.703125 C 86.878906 97.183594 88.144531 99.582031 89.390625 103.929688 C 94.003906 99.355469 95.203125 95.648438 96.203125 90.230469 C 97.601562 93.050781 98.5 96.007812 98.285156 99.113281 Z M 98.285156 99.113281 " fill-opacity="1" fill-rule="nonzero"></path>
  </g>
</svg>
