<?xml version="1.0" encoding="UTF-8"?>
<svg xmlns="http://www.w3.org/2000/svg" xmlns:xlink="http://www.w3.org/1999/xlink" width="200" zoomAndPan="magnify" viewBox="0 0 150 149.999998" height="200" preserveAspectRatio="xMidYMid meet" version="1.0">
  <defs>
    <clipPath id="7bc59b0f64">
      <path d="M 11.394531 106 L 29 106 L 29 122 L 11.394531 122 Z M 11.394531 106 " clip-rule="nonzero"></path>
    </clipPath>
    <clipPath id="2cd2636f36">
      <path d="M 122 106 L 138.894531 106 L 138.894531 122 L 122 122 Z M 122 106 " clip-rule="nonzero"></path>
    </clipPath>
    <clipPath id="18b0882c04">
      <path d="M 30 1.066406 L 121 1.066406 L 121 96 L 30 96 Z M 30 1.066406 " clip-rule="nonzero"></path>
    </clipPath>
    <clipPath id="d87b16271f">
      <path d="M 30 1.066406 L 121 1.066406 L 121 58 L 30 58 Z M 30 1.066406 " clip-rule="nonzero"></path>
    </clipPath>
  </defs>
  <path fill="#ffffff" d="M 28.316406 134.984375 C 30.652344 134.984375 32.359375 136.292969 33.441406 138.914062 C 33.542969 139.421875 33.597656 139.933594 33.613281 140.449219 C 33.613281 141.933594 32.988281 143.296875 31.734375 144.550781 L 35.40625 144.550781 C 35.519531 144.578125 35.578125 144.636719 35.578125 144.722656 L 35.578125 145.578125 C 35.585938 145.625 35.570312 145.667969 35.535156 145.703125 C 35.5 145.738281 35.457031 145.753906 35.40625 145.746094 L 23.105469 145.746094 C 23.058594 145.753906 23.015625 145.738281 22.976562 145.703125 C 22.941406 145.667969 22.929688 145.625 22.9375 145.578125 L 22.9375 140.367188 C 22.9375 137.960938 24.1875 136.25 26.695312 135.242188 C 27.160156 135.066406 27.644531 134.980469 28.144531 134.984375 Z M 24.050781 144.550781 L 28.316406 144.550781 C 30.394531 144.550781 31.761719 143.355469 32.417969 140.960938 L 32.417969 140.195312 C 32.417969 138.398438 31.363281 137.089844 29.257812 136.265625 C 28.945312 136.207031 28.632812 136.175781 28.316406 136.175781 C 26.195312 136.175781 24.800781 137.375 24.128906 139.769531 C 24.066406 140.308594 24.039062 140.847656 24.042969 141.390625 Z M 26.445312 132.976562 C 26.589844 133.117188 26.667969 133.285156 26.667969 133.488281 C 26.671875 133.699219 26.59375 133.878906 26.445312 134.023438 C 26.300781 134.175781 26.121094 134.25 25.910156 134.246094 C 25.691406 134.253906 25.507812 134.179688 25.355469 134.023438 C 25.203125 133.878906 25.128906 133.699219 25.132812 133.488281 C 25.132812 133.285156 25.207031 133.113281 25.355469 132.976562 C 25.507812 132.824219 25.691406 132.746094 25.910156 132.753906 C 26.113281 132.753906 26.289062 132.828125 26.429688 132.976562 Z M 30.503906 132.976562 C 30.65625 133.113281 30.734375 133.285156 30.738281 133.488281 C 30.738281 133.699219 30.65625 133.878906 30.503906 134.023438 C 30.355469 134.175781 30.179688 134.25 29.96875 134.246094 C 29.75 134.253906 29.566406 134.179688 29.414062 134.023438 C 29.265625 133.875 29.195312 133.699219 29.199219 133.488281 C 29.199219 133.289062 29.269531 133.117188 29.414062 132.976562 C 29.566406 132.824219 29.75 132.746094 29.96875 132.753906 C 30.171875 132.753906 30.34375 132.832031 30.488281 132.976562 Z M 30.503906 132.976562 " fill-opacity="1" fill-rule="nonzero"></path>
  <path fill="#ffffff" d="M 39.414062 134.984375 C 39.527344 135.011719 39.585938 135.070312 39.585938 135.15625 L 39.585938 139.9375 C 39.585938 142.402344 40.722656 143.910156 43.003906 144.464844 C 43.253906 144.53125 43.511719 144.5625 43.769531 144.550781 L 45.566406 144.550781 L 45.566406 144.464844 C 45 143.640625 44.714844 142.558594 44.714844 141.21875 L 44.714844 135.242188 C 44.738281 135.128906 44.796875 135.070312 44.882812 135.070312 L 45.738281 135.070312 C 45.851562 135.097656 45.910156 135.15625 45.910156 135.242188 L 45.910156 141.300781 C 45.910156 142.738281 46.335938 143.820312 47.1875 144.546875 L 53.425781 144.546875 C 53 141.371094 52.289062 138.8125 51.289062 136.859375 L 50.179688 135.148438 L 50.351562 135.066406 L 51.546875 135.066406 C 52.886719 136.53125 53.9375 139.691406 54.707031 144.546875 L 58.378906 144.546875 C 58.496094 144.574219 58.550781 144.632812 58.550781 144.71875 L 58.550781 145.570312 C 58.558594 145.621094 58.542969 145.664062 58.507812 145.699219 C 58.472656 145.734375 58.429688 145.75 58.378906 145.742188 L 34.886719 145.742188 C 34.835938 145.75 34.792969 145.734375 34.757812 145.699219 C 34.722656 145.664062 34.707031 145.621094 34.714844 145.570312 L 34.714844 144.71875 C 34.746094 144.601562 34.800781 144.546875 34.886719 144.546875 L 40.355469 144.546875 C 39.042969 143.449219 38.386719 141.800781 38.386719 139.59375 L 38.386719 135.148438 C 38.417969 135.039062 38.472656 134.980469 38.5625 134.980469 Z M 39.414062 134.984375 " fill-opacity="1" fill-rule="nonzero"></path>
  <path fill="#ffffff" d="M 62.992188 135.070312 C 63.105469 135.097656 63.160156 135.15625 63.160156 135.242188 L 63.160156 141.21875 C 63.160156 142.558594 62.878906 143.640625 62.308594 144.464844 L 62.308594 144.550781 L 65.898438 144.550781 C 66.015625 144.578125 66.074219 144.636719 66.074219 144.722656 L 66.074219 145.578125 C 66.078125 145.625 66.0625 145.667969 66.027344 145.703125 C 65.992188 145.738281 65.949219 145.753906 65.898438 145.746094 L 57.867188 145.746094 C 57.816406 145.753906 57.773438 145.738281 57.738281 145.703125 C 57.703125 145.667969 57.6875 145.625 57.695312 145.578125 L 57.695312 144.722656 C 57.722656 144.605469 57.78125 144.550781 57.867188 144.550781 L 60.683594 144.550781 C 61.539062 143.824219 61.964844 142.742188 61.96875 141.304688 L 61.96875 135.246094 C 61.992188 135.132812 62.050781 135.074219 62.136719 135.074219 Z M 60.34375 147.328125 C 60.492188 147.464844 60.566406 147.636719 60.570312 147.839844 C 60.570312 148.046875 60.496094 148.226562 60.34375 148.371094 C 60.195312 148.519531 60.019531 148.59375 59.808594 148.585938 C 59.59375 148.59375 59.40625 148.523438 59.253906 148.371094 C 59.105469 148.226562 59.035156 148.046875 59.039062 147.839844 C 59.039062 147.636719 59.109375 147.464844 59.253906 147.328125 C 59.40625 147.175781 59.59375 147.105469 59.808594 147.113281 C 60.019531 147.109375 60.195312 147.179688 60.34375 147.328125 Z M 63.117188 147.328125 C 63.273438 147.464844 63.351562 147.640625 63.355469 147.847656 C 63.351562 148.058594 63.273438 148.238281 63.117188 148.382812 C 62.972656 148.53125 62.796875 148.601562 62.585938 148.59375 C 62.371094 148.605469 62.183594 148.53125 62.03125 148.382812 C 61.882812 148.234375 61.8125 148.054688 61.816406 147.847656 C 61.8125 147.644531 61.886719 147.476562 62.03125 147.335938 C 62.183594 147.183594 62.371094 147.113281 62.585938 147.121094 C 62.792969 147.113281 62.972656 147.179688 63.117188 147.328125 Z M 63.117188 147.328125 " fill-opacity="1" fill-rule="nonzero"></path>
  <path fill="#ffffff" d="M 70.515625 135.070312 C 70.625 135.097656 70.683594 135.15625 70.683594 135.242188 L 70.683594 141.21875 C 70.683594 142.558594 70.398438 143.640625 69.828125 144.464844 L 69.828125 144.550781 L 73.421875 144.550781 C 73.535156 144.578125 73.59375 144.636719 73.59375 144.722656 L 73.59375 145.578125 C 73.597656 145.625 73.585938 145.667969 73.550781 145.703125 C 73.515625 145.738281 73.472656 145.753906 73.421875 145.746094 L 65.382812 145.746094 C 65.332031 145.753906 65.289062 145.738281 65.253906 145.703125 C 65.21875 145.667969 65.207031 145.625 65.210938 145.578125 L 65.210938 144.722656 C 65.242188 144.605469 65.296875 144.550781 65.382812 144.550781 L 68.203125 144.550781 C 69.058594 143.824219 69.484375 142.742188 69.484375 141.304688 L 69.484375 135.246094 C 69.511719 135.132812 69.570312 135.074219 69.65625 135.074219 Z M 70 147.328125 C 70.152344 147.464844 70.230469 147.632812 70.234375 147.839844 C 70.234375 148.050781 70.15625 148.230469 70 148.371094 C 69.855469 148.523438 69.675781 148.59375 69.464844 148.585938 C 69.25 148.59375 69.066406 148.523438 68.910156 148.371094 C 68.761719 148.226562 68.691406 148.046875 68.699219 147.839844 C 68.695312 147.636719 68.765625 147.464844 68.910156 147.328125 C 69.066406 147.175781 69.25 147.105469 69.464844 147.113281 C 69.671875 147.109375 69.851562 147.179688 69.996094 147.328125 Z M 70 147.328125 " fill-opacity="1" fill-rule="nonzero"></path>
  <path fill="#ffffff" d="M 77.171875 130.972656 L 78.027344 130.972656 C 78.140625 130.984375 78.199219 131.039062 78.199219 131.140625 L 78.199219 141.21875 C 78.199219 142.527344 77.914062 143.609375 77.34375 144.464844 L 77.34375 144.550781 L 80.933594 144.550781 C 81.046875 144.5625 81.105469 144.621094 81.105469 144.722656 L 81.105469 145.578125 C 81.113281 145.625 81.097656 145.667969 81.0625 145.703125 C 81.027344 145.738281 80.984375 145.753906 80.933594 145.746094 L 72.902344 145.746094 C 72.851562 145.753906 72.808594 145.738281 72.773438 145.703125 C 72.738281 145.667969 72.722656 145.625 72.730469 145.578125 L 72.730469 144.722656 C 72.742188 144.605469 72.800781 144.550781 72.902344 144.550781 L 75.71875 144.550781 C 76.574219 143.824219 77 142.742188 77 141.304688 L 77 131.140625 C 77.023438 131.027344 77.074219 130.972656 77.171875 130.972656 Z M 77.171875 130.972656 " fill-opacity="1" fill-rule="nonzero"></path>
  <path fill="#ffffff" d="M 84.09375 135.070312 L 85.203125 135.070312 C 86.339844 137.191406 86.910156 140.296875 86.910156 144.378906 L 86.910156 145.578125 C 86.917969 145.625 86.90625 145.667969 86.867188 145.703125 C 86.832031 145.738281 86.789062 145.753906 86.742188 145.746094 L 80.417969 145.746094 C 80.367188 145.753906 80.324219 145.738281 80.289062 145.703125 C 80.253906 145.667969 80.238281 145.625 80.246094 145.578125 L 80.246094 144.722656 C 80.277344 144.605469 80.332031 144.550781 80.417969 144.550781 L 85.714844 144.550781 C 85.714844 140.609375 85.117188 137.476562 83.917969 135.15625 Z M 82.894531 132.976562 C 83.042969 133.117188 83.117188 133.285156 83.121094 133.488281 C 83.121094 133.699219 83.046875 133.878906 82.894531 134.023438 C 82.75 134.175781 82.574219 134.25 82.363281 134.246094 C 82.144531 134.253906 81.960938 134.179688 81.808594 134.023438 C 81.652344 133.878906 81.578125 133.699219 81.582031 133.488281 C 81.582031 133.285156 81.65625 133.117188 81.808594 132.976562 C 81.960938 132.824219 82.144531 132.746094 82.363281 132.753906 C 82.570312 132.75 82.75 132.824219 82.894531 132.976562 Z M 85.671875 132.976562 C 85.824219 133.113281 85.902344 133.285156 85.90625 133.488281 C 85.90625 133.699219 85.828125 133.878906 85.671875 134.023438 C 85.527344 134.175781 85.347656 134.25 85.136719 134.246094 C 84.921875 134.253906 84.734375 134.179688 84.582031 134.023438 C 84.429688 133.878906 84.355469 133.699219 84.359375 133.488281 C 84.359375 133.285156 84.433594 133.117188 84.582031 132.976562 C 84.734375 132.824219 84.921875 132.746094 85.136719 132.753906 C 85.347656 132.75 85.527344 132.824219 85.671875 132.976562 Z M 85.671875 132.976562 " fill-opacity="1" fill-rule="nonzero"></path>
  <path fill="#ffffff" d="M 94.53125 135.070312 C 94.644531 135.097656 94.703125 135.15625 94.703125 135.242188 L 94.703125 144.574219 L 98.292969 144.574219 C 98.40625 144.601562 98.464844 144.652344 98.464844 144.722656 L 98.464844 145.578125 C 98.472656 145.625 98.457031 145.667969 98.421875 145.703125 C 98.386719 145.738281 98.34375 145.753906 98.292969 145.746094 L 94.621094 145.746094 C 94.621094 147.457031 93.539062 148.921875 91.375 150.144531 C 91.121094 150.226562 90.867188 150.28125 90.605469 150.316406 L 90.605469 149.195312 C 92.425781 148.226562 93.410156 147.105469 93.554688 145.828125 L 93.511719 144.972656 L 93.511719 135.242188 C 93.539062 135.128906 93.597656 135.070312 93.679688 135.070312 Z M 94.53125 135.070312 " fill-opacity="1" fill-rule="nonzero"></path>
  <path fill="#ffffff" d="M 113.414062 145.746094 L 97.609375 145.746094 L 97.609375 144.550781 L 109.742188 144.550781 C 109.742188 143.257812 109.113281 141.40625 107.863281 139 C 106.496094 137.175781 104.785156 136.265625 102.734375 136.265625 C 101.953125 136.296875 101.183594 136.410156 100.429688 136.609375 L 100.34375 136.4375 L 100.34375 135.503906 C 100.34375 135.289062 101.082031 135.148438 102.566406 135.074219 L 102.992188 135.074219 C 107.261719 135.074219 109.9375 138.238281 111.023438 144.558594 L 113.414062 144.558594 Z M 106.023438 147.316406 C 106.171875 147.457031 106.246094 147.628906 106.25 147.828125 C 106.25 148.039062 106.175781 148.21875 106.023438 148.363281 C 105.878906 148.511719 105.699219 148.582031 105.488281 148.578125 C 105.273438 148.585938 105.089844 148.515625 104.933594 148.363281 C 104.785156 148.21875 104.707031 148.039062 104.710938 147.828125 C 104.710938 147.625 104.785156 147.457031 104.933594 147.316406 C 105.089844 147.167969 105.273438 147.09375 105.488281 147.105469 C 105.699219 147.101562 105.878906 147.175781 106.023438 147.328125 Z M 106.023438 147.316406 " fill-opacity="1" fill-rule="nonzero"></path>
  <path fill="#ffffff" d="M 117.855469 135.070312 C 117.96875 135.097656 118.027344 135.15625 118.027344 135.242188 L 118.027344 141.21875 C 118.027344 142.558594 117.742188 143.640625 117.171875 144.464844 L 117.171875 144.550781 L 120.765625 144.550781 C 120.878906 144.578125 120.9375 144.636719 120.9375 144.722656 L 120.9375 145.578125 C 120.945312 145.625 120.929688 145.667969 120.894531 145.703125 C 120.855469 145.738281 120.8125 145.753906 120.765625 145.746094 L 112.730469 145.746094 C 112.679688 145.753906 112.636719 145.738281 112.601562 145.703125 C 112.566406 145.667969 112.554688 145.625 112.558594 145.578125 L 112.558594 144.722656 C 112.589844 144.605469 112.644531 144.550781 112.730469 144.550781 L 115.550781 144.550781 C 116.402344 143.824219 116.832031 142.742188 116.832031 141.304688 L 116.832031 135.246094 C 116.859375 135.132812 116.917969 135.074219 117.003906 135.074219 Z M 116.703125 132.976562 C 116.851562 133.117188 116.925781 133.289062 116.929688 133.488281 C 116.929688 133.699219 116.855469 133.878906 116.703125 134.023438 C 116.558594 134.175781 116.378906 134.25 116.167969 134.246094 C 115.953125 134.253906 115.765625 134.179688 115.613281 134.023438 C 115.464844 133.875 115.398438 133.695312 115.40625 133.484375 C 115.402344 133.285156 115.476562 133.113281 115.621094 132.972656 C 115.773438 132.816406 115.957031 132.742188 116.175781 132.75 C 116.382812 132.75 116.5625 132.824219 116.703125 132.976562 Z M 119.480469 132.976562 C 119.625 133.117188 119.703125 133.289062 119.703125 133.488281 C 119.707031 133.699219 119.628906 133.878906 119.480469 134.023438 C 119.335938 134.175781 119.15625 134.25 118.945312 134.246094 C 118.726562 134.253906 118.542969 134.179688 118.390625 134.023438 C 118.242188 133.875 118.171875 133.699219 118.175781 133.488281 C 118.175781 133.289062 118.246094 133.117188 118.390625 132.976562 C 118.542969 132.824219 118.726562 132.746094 118.945312 132.753906 C 119.15625 132.75 119.335938 132.824219 119.480469 132.976562 Z M 119.480469 132.976562 " fill-opacity="1" fill-rule="nonzero"></path>
  <path fill="#ffffff" d="M 129.558594 135.28125 L 130.5 135.28125 C 132.492188 135.28125 134.058594 136.550781 135.195312 139.09375 C 135.304688 139.574219 135.363281 140.058594 135.371094 140.546875 L 135.371094 140.632812 C 135.371094 143.222656 133.859375 144.980469 130.839844 145.90625 L 129.730469 145.90625 L 128.109375 145.734375 L 120.253906 145.734375 C 120.203125 145.742188 120.160156 145.730469 120.125 145.691406 C 120.089844 145.65625 120.074219 145.613281 120.082031 145.566406 L 120.082031 144.710938 C 120.109375 144.59375 120.167969 144.539062 120.253906 144.539062 L 126.40625 144.539062 C 125.207031 143.359375 124.609375 142.058594 124.609375 140.632812 C 124.609375 138.113281 125.976562 136.351562 128.710938 135.359375 Z M 125.800781 140.667969 C 125.800781 142.632812 126.910156 143.96875 129.132812 144.679688 C 129.382812 144.75 129.640625 144.777344 129.902344 144.765625 L 130.15625 144.765625 C 132.023438 144.765625 133.332031 143.683594 134.089844 141.519531 C 134.148438 141.238281 134.175781 140.953125 134.171875 140.667969 L 134.171875 140.324219 C 134.171875 138.601562 133.121094 137.351562 131.011719 136.566406 L 129.996094 136.402344 C 128.03125 136.402344 126.664062 137.511719 125.894531 139.734375 C 125.835938 140.042969 125.804688 140.351562 125.800781 140.667969 Z M 125.800781 140.667969 " fill-opacity="1" fill-rule="nonzero"></path>
  <g clip-path="url(#7bc59b0f64)">
    <path fill="#ffffff" d="M 20.859375 108.984375 L 20.859375 121.265625 L 18.640625 121.265625 L 18.640625 108.984375 L 11.445312 108.984375 L 11.445312 106.914062 L 28.054688 106.914062 L 28.054688 108.984375 Z M 20.859375 108.984375 " fill-opacity="1" fill-rule="nonzero"></path>
  </g>
  <path fill="#ffffff" d="M 46.085938 121.265625 L 43.542969 121.265625 L 41.488281 117.984375 L 30.679688 117.984375 L 28.660156 121.265625 L 26.085938 121.265625 L 34.824219 106.90625 L 37.367188 106.90625 Z M 32.390625 115.117188 L 31.859375 115.914062 L 40.289062 115.914062 L 39.773438 115.117188 L 36.085938 108.863281 Z M 32.390625 115.117188 " fill-opacity="1" fill-rule="nonzero"></path>
  <path fill="#ffffff" d="M 47.4375 121.265625 L 47.4375 106.90625 L 49.652344 106.90625 L 49.652344 119.1875 L 62.386719 119.1875 L 62.386719 121.257812 Z M 47.4375 121.265625 " fill-opacity="1" fill-rule="nonzero"></path>
  <path fill="#ffffff" d="M 64.746094 121.265625 L 64.746094 106.90625 L 76.109375 106.90625 C 79.265625 106.90625 81.339844 107.867188 81.339844 110.554688 C 81.339844 112.316406 80.394531 113.179688 79 113.695312 C 80.949219 114.125 82.367188 115.070312 82.367188 117.304688 C 82.367188 119.640625 80.890625 121.261719 77.207031 121.261719 Z M 66.960938 108.984375 L 66.960938 112.839844 L 75.65625 112.839844 C 77.933594 112.839844 79.265625 112.550781 79.265625 110.953125 C 79.265625 109.515625 78.21875 108.984375 76.109375 108.984375 Z M 66.960938 114.910156 L 66.960938 119.195312 L 77.195312 119.195312 C 79.390625 119.195312 80.292969 118.375 80.292969 116.980469 C 80.292969 115.300781 78.917969 114.910156 76.699219 114.910156 Z M 66.960938 114.910156 " fill-opacity="1" fill-rule="nonzero"></path>
  <path fill="#ffffff" d="M 84.722656 121.265625 L 84.722656 106.90625 L 100.289062 106.90625 L 100.289062 108.976562 L 86.9375 108.976562 L 86.9375 112.839844 L 99.058594 112.839844 L 99.058594 114.910156 L 86.9375 114.910156 L 86.9375 119.195312 L 100.699219 119.195312 L 100.699219 121.265625 Z M 84.722656 121.265625 " fill-opacity="1" fill-rule="nonzero"></path>
  <path fill="#ffffff" d="M 102.648438 120.136719 L 103.242188 118.171875 C 105.953125 119.070312 108.734375 119.519531 111.589844 119.515625 C 113.351562 119.515625 117.394531 119.210938 117.394531 117.117188 C 117.394531 115.546875 115.21875 115.4375 111.609375 115.230469 C 107.507812 115.027344 103.121094 114.78125 103.121094 111.046875 C 103.121094 107.253906 107.632812 106.597656 110.976562 106.597656 C 113.539062 106.617188 116.066406 106.917969 118.566406 107.496094 L 118.09375 109.515625 C 115.636719 108.941406 113.148438 108.65625 110.628906 108.65625 C 109.292969 108.65625 105.378906 108.820312 105.378906 110.914062 C 105.378906 112.796875 108.519531 112.960938 111.734375 113.105469 C 115.773438 113.269531 119.671875 113.617188 119.671875 117 C 119.671875 120.753906 114.832031 121.554688 111.203125 121.554688 C 108.273438 121.554688 105.421875 121.082031 102.648438 120.136719 Z M 102.648438 120.136719 " fill-opacity="1" fill-rule="nonzero"></path>
  <g clip-path="url(#2cd2636f36)">
    <path fill="#ffffff" d="M 136.632812 121.265625 L 136.632812 114.910156 L 124.242188 114.910156 L 124.242188 121.265625 L 122.027344 121.265625 L 122.027344 106.90625 L 124.242188 106.90625 L 124.242188 112.839844 L 136.632812 112.839844 L 136.632812 106.914062 L 138.847656 106.914062 L 138.847656 121.277344 Z M 136.632812 121.265625 " fill-opacity="1" fill-rule="nonzero"></path>
  </g>
  <g clip-path="url(#18b0882c04)">
    <path fill="#ffffff" d="M 72.109375 7.785156 L 72.109375 9.828125 C 72.109375 24.394531 72.113281 38.957031 72.121094 53.523438 C 72.105469 54.226562 72.1875 54.921875 72.375 55.601562 C 72.820312 57.113281 74.167969 57.964844 75.738281 57.835938 C 76.105469 57.8125 76.460938 57.726562 76.796875 57.578125 C 77.132812 57.429688 77.4375 57.230469 77.703125 56.976562 C 77.96875 56.722656 78.183594 56.429688 78.347656 56.101562 C 78.511719 55.773438 78.617188 55.425781 78.65625 55.058594 C 78.734375 54.410156 78.765625 53.753906 78.746094 53.101562 C 78.746094 38.789062 78.746094 24.476562 78.746094 10.164062 C 78.746094 9.425781 78.816406 8.6875 78.851562 7.957031 C 79.035156 7.902344 79.226562 7.871094 79.421875 7.859375 C 93.921875 9.664062 104.90625 16.84375 112.378906 29.402344 C 112.828125 30.140625 112.828125 30.699219 112.414062 31.453125 C 110.703125 34.527344 109.046875 37.640625 107.40625 40.753906 C 107.183594 41.167969 106.90625 41.71875 107.003906 42.121094 C 107.726562 45.144531 108.539062 48.144531 109.300781 51.058594 C 112.8125 44.566406 116.4375 37.90625 119.992188 31.199219 C 120.214844 30.753906 120.050781 29.949219 119.804688 29.429688 C 110.402344 9.355469 88.417969 -2.246094 66.429688 1.90625 C 49.820312 5.046875 37.851562 14.433594 30.402344 29.570312 C 30.117188 30.152344 30.203125 31.15625 30.519531 31.753906 C 32.410156 35.359375 34.417969 38.90625 36.390625 42.46875 C 38.027344 45.429688 39.675781 48.386719 41.167969 51.082031 C 41.863281 48.183594 42.609375 45.1875 43.277344 42.179688 C 43.371094 41.765625 43.203125 41.214844 42.988281 40.816406 C 41.34375 37.761719 39.699219 34.703125 37.960938 31.703125 C 37.429688 30.792969 37.445312 30.132812 37.976562 29.234375 C 43.496094 19.886719 51.316406 13.363281 61.625 9.871094 C 65.03125 8.714844 68.523438 8.019531 72.109375 7.785156 Z M 91.863281 51.394531 C 91.90625 54.503906 91.09375 57.371094 89.425781 59.996094 C 85.160156 66.878906 76.902344 69.609375 69.242188 66.671875 C 62 63.898438 57.699219 56.125 59.117188 48.382812 C 60.015625 43.425781 62.765625 39.75 66.972656 37.070312 C 68.503906 36.09375 69.039062 34.449219 68.410156 32.882812 C 67.824219 31.433594 66.363281 30.640625 64.710938 30.980469 C 64.070312 31.132812 63.480469 31.398438 62.945312 31.78125 C 55.027344 37.167969 51.414062 44.609375 52.394531 54.15625 C 53.75 67.25 66.621094 76.691406 79.503906 74.128906 C 92.277344 71.582031 100.273438 60.199219 98.15625 47.34375 C 97.046875 40.632812 93.460938 35.414062 87.710938 31.769531 C 86.839844 31.246094 85.898438 31.019531 84.886719 31.078125 C 83.539062 31.183594 82.609375 32.109375 82.355469 33.511719 C 82.074219 35.105469 82.59375 36.324219 83.996094 37.25 C 89.082031 40.589844 91.8125 45.261719 91.871094 51.394531 Z M 93.90625 80.054688 C 81.40625 86.992188 69.128906 87.03125 56.554688 79.730469 C 60.816406 87.382812 66.742188 92.488281 74.621094 95.273438 C 75.121094 95.449219 75.820312 95.320312 76.34375 95.125 C 81.695312 93.140625 86.265625 90 89.914062 85.613281 C 91.367188 83.859375 92.589844 81.910156 93.917969 80.054688 Z M 93.90625 80.054688 " fill-opacity="1" fill-rule="evenodd"></path>
  </g>
  <g clip-path="url(#d87b16271f)">
    <path fill="#ffffff" d="M 72.109375 7.785156 C 68.523438 8.019531 65.03125 8.714844 61.625 9.871094 C 51.316406 13.363281 43.496094 19.886719 37.976562 29.234375 C 37.445312 30.132812 37.429688 30.792969 37.960938 31.703125 C 39.699219 34.703125 41.34375 37.761719 42.988281 40.816406 C 43.203125 41.214844 43.371094 41.765625 43.277344 42.179688 C 42.601562 45.1875 41.863281 48.183594 41.167969 51.082031 C 39.675781 48.386719 38.027344 45.429688 36.390625 42.46875 C 34.417969 38.90625 32.410156 35.359375 30.519531 31.753906 C 30.203125 31.15625 30.117188 30.152344 30.402344 29.570312 C 37.851562 14.433594 49.8125 5.039062 66.429688 1.90625 C 88.425781 -2.246094 110.402344 9.355469 119.804688 29.429688 C 120.050781 29.949219 120.226562 30.757812 119.992188 31.199219 C 116.4375 37.90625 112.808594 44.566406 109.300781 51.058594 C 108.539062 48.140625 107.730469 45.144531 107.003906 42.121094 C 106.90625 41.71875 107.1875 41.167969 107.40625 40.753906 C 109.050781 37.640625 110.703125 34.527344 112.414062 31.453125 C 112.835938 30.699219 112.820312 30.140625 112.378906 29.402344 C 104.90625 16.835938 93.917969 9.65625 79.421875 7.859375 C 79.226562 7.871094 79.035156 7.902344 78.851562 7.957031 C 78.816406 8.6875 78.746094 9.425781 78.746094 10.164062 C 78.746094 24.476562 78.746094 38.789062 78.746094 53.101562 C 78.765625 53.753906 78.734375 54.410156 78.65625 55.058594 C 78.617188 55.425781 78.511719 55.773438 78.347656 56.101562 C 78.183594 56.429688 77.96875 56.722656 77.703125 56.976562 C 77.4375 57.230469 77.132812 57.429688 76.796875 57.578125 C 76.460938 57.726562 76.105469 57.8125 75.738281 57.835938 C 74.1875 57.964844 72.839844 57.113281 72.375 55.601562 C 72.1875 54.921875 72.105469 54.226562 72.121094 53.523438 C 72.109375 38.960938 72.105469 24.394531 72.109375 9.828125 Z M 72.109375 7.785156 " fill-opacity="1" fill-rule="evenodd"></path>
  </g>
  <path fill="#ffffff" d="M 91.871094 51.394531 C 91.8125 45.261719 89.082031 40.589844 84.015625 37.257812 C 82.609375 36.328125 82.09375 35.109375 82.375 33.515625 C 82.625 32.113281 83.558594 31.191406 84.90625 31.085938 C 85.917969 31.023438 86.859375 31.25 87.726562 31.773438 C 93.480469 35.421875 97.066406 40.636719 98.171875 47.347656 C 100.292969 60.203125 92.292969 71.585938 79.523438 74.132812 C 66.640625 76.699219 53.769531 67.257812 52.410156 54.160156 C 51.421875 44.613281 55.035156 37.164062 62.960938 31.785156 C 63.5 31.402344 64.085938 31.136719 64.726562 30.984375 C 66.382812 30.640625 67.84375 31.433594 68.425781 32.890625 C 69.058594 34.460938 68.519531 36.097656 66.992188 37.074219 C 62.789062 39.753906 60.046875 43.429688 59.132812 48.386719 C 57.71875 56.136719 62.015625 63.902344 69.261719 66.675781 C 76.921875 69.613281 85.179688 66.882812 89.441406 60 C 91.109375 57.375 91.917969 54.503906 91.871094 51.394531 Z M 91.871094 51.394531 " fill-opacity="1" fill-rule="evenodd"></path>
  <path fill="#ffffff" d="M 93.917969 80.054688 C 92.589844 81.910156 91.367188 83.859375 89.914062 85.613281 C 86.265625 90 81.695312 93.140625 76.34375 95.125 C 75.820312 95.320312 75.121094 95.449219 74.621094 95.273438 C 66.742188 92.488281 60.816406 87.382812 56.554688 79.730469 C 69.128906 87.03125 81.40625 86.992188 93.917969 80.054688 Z M 93.917969 80.054688 " fill-opacity="1" fill-rule="evenodd"></path>
</svg>
