<?xml version="1.0" encoding="UTF-8"?>
<svg xmlns="http://www.w3.org/2000/svg" xmlns:xlink="http://www.w3.org/1999/xlink" width="200" zoomAndPan="magnify" viewBox="0 0 150 149.999998" height="200" preserveAspectRatio="xMidYMid meet" version="1.0">
  <defs>
    <clipPath id="f76e423a81">
      <path d="M 30.308594 96 L 66 96 L 66 111 L 30.308594 111 Z M 30.308594 96 " clip-rule="nonzero"></path>
    </clipPath>
    <clipPath id="678dc9aaf6">
      <path d="M 30.308594 117 L 44 117 L 44 130 L 30.308594 130 Z M 30.308594 117 " clip-rule="nonzero"></path>
    </clipPath>
    <clipPath id="9f71676afb">
      <path d="M 55 28.175781 L 93 28.175781 L 93 77 L 55 77 Z M 55 28.175781 " clip-rule="nonzero"></path>
    </clipPath>
    <clipPath id="55d167ffc9">
      <path d="M 109 117 L 120 117 L 120 130.175781 L 109 130.175781 Z M 109 117 " clip-rule="nonzero"></path>
    </clipPath>
    <clipPath id="dc481f481f">
      <path d="M 59 117 L 68 117 L 68 130.175781 L 59 130.175781 Z M 59 117 " clip-rule="nonzero"></path>
    </clipPath>
    <clipPath id="58bc38bc25">
      <path d="M 122 117 L 124.808594 117 L 124.808594 130 L 122 130 Z M 122 117 " clip-rule="nonzero"></path>
    </clipPath>
  </defs>
  <path fill="#ffffff" d="M 97.078125 107 C 90.875 107 84.675781 106.996094 78.472656 106.988281 C 77.957031 106.988281 77.710938 107.144531 77.550781 107.636719 C 76.847656 109.800781 75.53125 110.453125 73.300781 110.789062 C 72.96875 110.839844 72.757812 110.722656 72.773438 110.367188 C 72.789062 109.941406 72.605469 109.417969 73.25 109.257812 C 73.746094 109.136719 74.273438 109.132812 74.722656 108.828125 C 75.804688 108.105469 76.191406 107.042969 76.199219 105.808594 C 76.21875 102.917969 76.21875 100.023438 76.222656 97.128906 C 76.222656 96.652344 76.28125 96.394531 76.9375 96.386719 C 77.703125 96.386719 77.824219 96.691406 77.820312 97.296875 C 77.816406 99.648438 77.816406 102 77.820312 104.351562 C 77.820312 105.269531 77.84375 105.332031 78.726562 105.355469 C 80.28125 105.394531 81.851562 105.523438 83.390625 105.355469 C 85.136719 105.171875 85.597656 104.6875 85.800781 102.777344 C 85.949219 101.347656 85.84375 99.890625 85.851562 98.4375 C 85.851562 98.011719 85.847656 97.582031 85.863281 97.152344 C 85.886719 96.644531 86.035156 96.328125 86.675781 96.339844 C 87.316406 96.347656 87.546875 96.609375 87.542969 97.167969 C 87.511719 99.535156 87.695312 101.90625 87.425781 104.273438 L 87.425781 104.339844 C 87.269531 105.40625 87.269531 105.417969 88.359375 105.421875 C 89.144531 105.421875 89.9375 105.464844 90.71875 105.335938 C 91.644531 105.1875 92.035156 104.796875 92.242188 103.875 C 92.339844 103.363281 92.382812 102.84375 92.367188 102.324219 C 92.367188 100.652344 92.355469 98.980469 92.375 97.304688 C 92.382812 96.492188 92.542969 96.410156 93.34375 96.375 C 94.074219 96.34375 94.15625 96.78125 94.15625 97.324219 C 94.15625 99.378906 94.203125 101.433594 94.070312 103.488281 C 94.035156 103.980469 93.757812 104.421875 93.800781 104.9375 C 93.816406 105.242188 93.886719 105.417969 94.203125 105.414062 C 95.128906 105.414062 96.0625 105.476562 96.976562 105.378906 C 98.3125 105.242188 98.925781 104.414062 98.96875 102.78125 C 99.011719 100.972656 98.988281 99.164062 99.015625 97.355469 C 99.023438 96.921875 98.976562 96.421875 99.695312 96.4375 C 100.5625 96.449219 100.59375 96.4375 100.597656 97.339844 L 100.597656 103.101562 C 100.613281 103.691406 100.554688 104.277344 100.421875 104.851562 C 100.304688 105.277344 100.4375 105.410156 100.867188 105.40625 C 101.953125 105.390625 103.035156 105.40625 104.117188 105.40625 L 114.335938 105.40625 C 114.695312 105.40625 115.054688 105.382812 115.410156 105.324219 C 116.699219 105.117188 117.316406 104.480469 117.347656 103.144531 C 117.390625 101.496094 117.367188 99.84375 117.371094 98.195312 C 117.371094 96.339844 117.402344 94.488281 117.371094 92.632812 C 117.363281 91.929688 117.753906 91.894531 118.28125 91.890625 C 118.835938 91.882812 119.09375 92.039062 119.09375 92.660156 C 119.070312 96.1875 119.105469 99.710938 119.0625 103.238281 C 119.050781 104.324219 118.75 105.386719 117.917969 106.179688 C 117.265625 106.796875 116.429688 106.992188 115.5625 106.992188 C 109.402344 107.003906 103.246094 107.003906 97.085938 106.992188 Z M 97.078125 107 " fill-opacity="1" fill-rule="nonzero"></path>
  <g clip-path="url(#f76e423a81)">
    <path fill="#ffffff" d="M 46.199219 104.617188 C 45.882812 104.894531 45.726562 105.242188 45.734375 105.664062 C 45.714844 106.207031 45.40625 106.738281 45.085938 107.191406 C 43.027344 110.09375 40.164062 111.316406 36.746094 110.582031 C 33.253906 109.835938 31.324219 107.726562 30.621094 104.03125 C 30.410156 102.933594 30.53125 101.828125 30.484375 100.726562 C 30.460938 100.101562 30.863281 100.160156 31.238281 100.171875 C 31.636719 100.183594 32.132812 100.035156 32.15625 100.738281 C 32.199219 102.15625 32.203125 103.574219 32.644531 104.953125 C 34.15625 109.664062 39.449219 109.972656 42.222656 107.785156 C 43.636719 106.664062 44.480469 105.269531 44.441406 103.460938 C 44.410156 101.902344 43.578125 100.910156 42.058594 100.648438 C 41.351562 100.527344 41.320312 100.148438 41.335938 99.613281 C 41.355469 98.96875 41.824219 99.085938 42.210938 99.070312 C 44.5 98.949219 46.160156 100.8125 46.890625 102.382812 C 47.136719 102.933594 47.421875 103.46875 47.742188 103.984375 C 48.402344 105.019531 49.34375 105.355469 50.492188 105.351562 L 61.59375 105.351562 C 63.21875 105.351562 64.03125 104.621094 64.066406 102.984375 C 64.113281 101.15625 64.078125 99.324219 64.085938 97.496094 C 64.085938 96.359375 64.234375 96.257812 65.359375 96.378906 C 65.699219 96.414062 65.84375 96.558594 65.839844 96.886719 C 65.808594 99.347656 65.976562 101.8125 65.71875 104.265625 C 65.546875 105.875 64.261719 106.996094 62.636719 107 C 58.464844 107.015625 54.289062 107 50.117188 107 C 48.335938 106.996094 47.183594 105.949219 46.199219 104.617188 Z M 46.199219 104.617188 " fill-opacity="1" fill-rule="nonzero"></path>
  </g>
  <g clip-path="url(#678dc9aaf6)">
    <path fill="#ffffff" d="M 36.757812 126.808594 L 33.851562 126.808594 C 33.519531 126.808594 33.375 126.929688 33.257812 127.289062 C 33 128.074219 32.609375 128.816406 32.3125 129.59375 C 32.128906 130.050781 31.757812 129.90625 31.445312 129.902344 C 30.085938 129.890625 30.09375 129.824219 30.726562 128.585938 C 31.613281 126.871094 32.351562 125.082031 33.140625 123.3125 C 33.976562 121.414062 34.886719 119.5625 35.753906 117.683594 C 35.859375 117.453125 36.011719 117.410156 36.226562 117.394531 C 37.714844 117.265625 37.816406 117.351562 38.460938 118.789062 C 39.78125 121.738281 41.132812 124.679688 42.488281 127.625 C 42.757812 128.214844 42.945312 128.847656 43.285156 129.40625 C 43.460938 129.691406 43.363281 129.878906 43.015625 129.886719 C 42.609375 129.894531 42.203125 129.902344 41.796875 129.90625 C 41.667969 129.914062 41.550781 129.878906 41.445312 129.800781 C 41.335938 129.726562 41.265625 129.625 41.230469 129.5 C 40.996094 128.820312 40.523438 128.246094 40.355469 127.535156 C 40.230469 126.992188 39.914062 126.765625 39.332031 126.792969 C 38.46875 126.84375 37.613281 126.808594 36.757812 126.808594 Z M 36.726562 125.253906 L 36.726562 125.238281 C 37.355469 125.238281 37.988281 125.261719 38.621094 125.230469 C 39.046875 125.210938 39.273438 125.046875 39.046875 124.535156 C 38.417969 123.121094 37.835938 121.6875 37.238281 120.253906 C 37.152344 120.054688 37.136719 119.777344 36.859375 119.746094 C 36.53125 119.707031 36.453125 120.015625 36.367188 120.21875 C 35.734375 121.660156 35.121094 123.109375 34.488281 124.558594 C 34.265625 125.074219 34.480469 125.261719 34.976562 125.261719 Z M 36.726562 125.253906 " fill-opacity="1" fill-rule="nonzero"></path>
  </g>
  <path fill="#ffffff" d="M 45.515625 123.710938 L 45.515625 118.222656 C 45.515625 117.46875 45.625 117.410156 46.476562 117.390625 C 47.070312 117.375 47.421875 117.441406 47.40625 118.207031 C 47.355469 121.300781 47.40625 124.390625 47.355469 127.484375 C 47.347656 128.195312 47.574219 128.371094 48.242188 128.351562 C 49.523438 128.304688 50.8125 128.375 52.09375 128.332031 C 52.703125 128.3125 52.867188 128.589844 52.90625 129.121094 C 52.953125 129.710938 52.617188 129.886719 52.136719 129.894531 C 51.054688 129.914062 49.972656 129.90625 48.886719 129.90625 C 48.03125 129.90625 47.171875 129.867188 46.316406 129.917969 C 45.640625 129.960938 45.460938 129.683594 45.46875 129.054688 C 45.496094 127.273438 45.480469 125.488281 45.480469 123.703125 Z M 45.515625 123.710938 " fill-opacity="1" fill-rule="nonzero"></path>
  <path fill="#ffffff" d="M 70.777344 99.460938 L 70.777344 105.972656 C 70.777344 106.988281 70.777344 106.9375 69.828125 107.015625 C 68.945312 107.089844 69.09375 106.503906 69.09375 106.011719 C 69.085938 101.742188 69.082031 97.472656 69.085938 93.207031 C 69.070312 93.09375 69.070312 92.980469 69.085938 92.871094 C 69.167969 92.582031 68.867188 92.207031 69.105469 92.035156 C 69.484375 91.765625 69.980469 91.882812 70.421875 91.929688 C 70.863281 91.976562 70.757812 92.351562 70.757812 92.625 C 70.765625 94.90625 70.757812 97.1875 70.757812 99.46875 Z M 70.777344 99.460938 " fill-opacity="1" fill-rule="nonzero"></path>
  <path fill="#ffffff" d="M 123.972656 99.507812 L 123.972656 106.289062 C 123.972656 106.734375 123.957031 107.089844 123.335938 107.03125 C 122.820312 106.980469 122.277344 107.128906 122.28125 106.296875 C 122.292969 101.804688 122.28125 97.308594 122.28125 92.816406 C 122.28125 91.992188 122.96875 91.597656 123.722656 91.960938 C 124.050781 92.117188 123.957031 92.417969 123.957031 92.675781 C 123.960938 94.953125 123.960938 97.234375 123.957031 99.515625 Z M 123.972656 99.507812 " fill-opacity="1" fill-rule="nonzero"></path>
  <path fill="#ffffff" d="M 40.957031 113.546875 C 40.957031 114.695312 40.804688 114.820312 39.820312 114.640625 C 39.414062 114.566406 39.234375 114.367188 39.234375 113.960938 C 39.234375 113.78125 39.222656 113.601562 39.222656 113.417969 C 39.222656 112.515625 39.867188 112.101562 40.675781 112.507812 C 41.175781 112.761719 40.828125 113.25 40.957031 113.546875 Z M 40.957031 113.546875 " fill-opacity="1" fill-rule="nonzero"></path>
  <path fill="#ffffff" d="M 65.839844 93.730469 C 65.847656 93.820312 65.847656 93.910156 65.839844 94 C 65.789062 94.289062 65.984375 94.703125 65.578125 94.820312 C 65.125 94.941406 64.6875 94.902344 64.261719 94.707031 C 64.050781 94.613281 64.023438 93.113281 64.199219 92.894531 C 64.375 92.679688 65.3125 92.558594 65.597656 92.742188 C 65.824219 92.886719 65.832031 92.921875 65.839844 93.730469 Z M 65.839844 93.730469 " fill-opacity="1" fill-rule="nonzero"></path>
  <path fill="#ffffff" d="M 37.839844 113.363281 C 37.800781 114.582031 37.414062 114.851562 36.394531 114.582031 C 36.222656 114.535156 36.101562 114.464844 36.097656 114.277344 C 36.085938 113.824219 36.03125 113.367188 36.097656 112.917969 C 36.183594 112.3125 36.710938 112.527344 37.078125 112.503906 C 37.410156 112.484375 37.796875 112.445312 37.84375 112.941406 C 37.851562 113.082031 37.851562 113.222656 37.839844 113.363281 Z M 37.839844 113.363281 " fill-opacity="1" fill-rule="nonzero"></path>
  <path fill="#efefef" d="M 101 47.824219 C 100.992188 48.007812 100.898438 48.109375 100.71875 48.136719 C 100.539062 48.164062 100.417969 48.089844 100.359375 47.921875 C 99.882812 46.574219 99.449219 45.328125 98.761719 44.183594 C 98.414062 43.59375 97.957031 43.109375 97.386719 42.730469 C 95.589844 41.578125 93.664062 40.742188 91.449219 40.796875 C 89.863281 40.839844 88.40625 41.296875 87.078125 42.164062 C 85.792969 42.9375 84.917969 44.042969 84.460938 45.476562 C 83.96875 47 83.9375 48.53125 84.554688 50.078125 C 85.324219 52.019531 86.792969 53.355469 88.261719 54.710938 C 89.417969 55.777344 90.699219 56.695312 91.953125 57.632812 C 93.8125 59.027344 95.714844 60.386719 97.347656 62.039062 C 98.820312 63.53125 100.222656 65.097656 101.144531 67.0625 C 102.183594 69.28125 102.769531 71.5625 102.632812 73.992188 C 102.523438 75.96875 102.316406 77.972656 101.492188 79.789062 C 100.847656 81.230469 99.914062 82.449219 98.695312 83.449219 C 95.742188 85.875 92.253906 87.003906 88.558594 87.503906 C 86.476562 87.769531 84.417969 87.640625 82.386719 87.117188 C 81.488281 86.894531 80.722656 86.6875 79.832031 86.445312 C 79.808594 86.4375 79.78125 86.425781 79.757812 86.414062 C 78.253906 85.550781 76.914062 85.28125 76.957031 83.144531 C 76.957031 83.128906 76.957031 83.113281 76.957031 83.097656 C 77.25 81.242188 77.199219 79.378906 77.21875 77.515625 C 77.214844 77.152344 77.226562 76.792969 77.257812 76.429688 C 77.28125 76.21875 77.300781 75.929688 77.601562 75.929688 C 77.863281 75.929688 77.960938 76.160156 78.019531 76.390625 C 78.359375 77.703125 78.847656 78.960938 79.476562 80.164062 C 80.828125 82.75 82.933594 84.125 85.847656 84.34375 C 87.523438 84.464844 89.167969 84.476562 90.808594 84.070312 C 93.421875 83.429688 95.140625 81.800781 96.042969 79.300781 C 96.679688 77.554688 96.765625 75.75 96.0625 74.019531 C 95.65625 73.019531 95.386719 71.871094 94.539062 71.121094 C 93.351562 69.296875 93.175781 69.457031 92.789062 68.949219 C 91.460938 67.222656 89.910156 66.960938 88.164062 65.738281 C 86.183594 64.355469 84.3125 62.839844 82.667969 61.070312 C 80.976562 59.273438 79.675781 57.230469 78.761719 54.933594 C 78 52.988281 77.699219 50.945312 77.734375 48.851562 C 77.746094 48.722656 77.746094 48.59375 77.734375 48.464844 C 77.734375 48.453125 77.734375 48.4375 77.734375 48.425781 C 77.828125 47.019531 78.078125 46.210938 78.9375 44.925781 L 78.96875 44.890625 C 80.367188 43.304688 81.78125 41.734375 83.542969 40.574219 C 85.554688 39.25 87.792969 38.441406 90.242188 38.363281 C 93.5625 38.253906 96.84375 38.644531 100.113281 39.175781 C 100.515625 39.230469 100.90625 39.335938 101.28125 39.492188 C 102.121094 39.859375 102.386719 40.75 102.027344 41.929688 C 101.695312 43.003906 101.203125 44.039062 101.113281 45.175781 C 101.046875 46.054688 101.023438 46.9375 100.996094 47.816406 Z M 101 47.824219 " fill-opacity="1" fill-rule="nonzero"></path>
  <g clip-path="url(#9f71676afb)">
    <path fill="#ffffff" d="M 55.414062 52.054688 C 55.835938 52.054688 56.257812 52.066406 56.679688 52.054688 C 58.886719 52.003906 60.320312 50.949219 61.019531 48.835938 C 61.613281 47.039062 62.46875 45.347656 63.1875 43.601562 C 63.9375 41.773438 64.675781 39.941406 65.351562 38.074219 C 66.535156 34.8125 67.898438 31.621094 69.609375 28.59375 C 69.746094 28.292969 69.980469 28.152344 70.3125 28.175781 C 70.632812 28.191406 70.78125 28.382812 70.894531 28.65625 C 71.753906 30.667969 72.578125 32.691406 73.375 34.722656 C 74.324219 37.136719 75.253906 39.558594 76.304688 41.921875 C 77.148438 43.808594 77.488281 45.671875 76.886719 47.691406 C 75.679688 51.757812 76.835938 55.390625 79.054688 58.785156 C 80.769531 61.378906 82.882812 63.585938 85.394531 65.410156 C 86.882812 66.515625 88.507812 67.464844 89.808594 68.824219 C 90.214844 69.21875 90.574219 69.648438 90.894531 70.117188 C 91.027344 70.328125 91.140625 70.601562 90.910156 70.792969 C 90.683594 70.984375 90.453125 70.867188 90.234375 70.707031 C 89.910156 70.476562 89.574219 70.246094 89.230469 70.042969 C 89.0625 69.945312 88.839844 69.820312 88.667969 70 C 88.496094 70.175781 88.570312 70.394531 88.648438 70.578125 C 88.964844 71.324219 89.261719 72.082031 89.632812 72.800781 C 90.289062 74.082031 91.191406 75.148438 92.515625 75.792969 C 92.742188 75.886719 92.832031 76.054688 92.789062 76.292969 C 92.753906 76.574219 92.523438 76.585938 92.324219 76.5625 C 89.789062 76.347656 87.269531 76.917969 84.734375 76.699219 C 83.058594 76.5625 81.925781 75.523438 80.898438 74.304688 C 79.367188 72.488281 78.238281 70.402344 76.941406 68.429688 C 74.960938 65.417969 72.574219 62.769531 69.789062 60.484375 C 67.800781 58.851562 65.683594 57.410156 63.4375 56.160156 C 61.519531 55.085938 59.539062 54.136719 57.5 53.3125 C 56.777344 53.035156 55.96875 52.796875 55.414062 52.054688 Z M 75.933594 60.296875 C 75.890625 60.074219 75.832031 59.855469 75.757812 59.644531 C 75.40625 58.765625 75.011719 57.902344 74.675781 57.019531 C 74.058594 55.355469 73.5 53.667969 72.867188 52.007812 C 72.160156 50.160156 71.40625 48.332031 70.65625 46.5 C 70.074219 45.085938 69.476562 43.679688 68.863281 42.277344 C 68.761719 42.046875 68.636719 41.757812 68.300781 41.753906 C 67.96875 41.746094 67.882812 42.046875 67.75 42.277344 C 67.183594 43.253906 66.820312 44.324219 66.398438 45.367188 C 65.5 47.570312 64.6875 49.8125 63.804688 52.027344 C 63.34375 53.1875 63.515625 53.789062 64.5625 54.304688 C 67.257812 55.605469 69.820312 57.140625 72.394531 58.660156 C 73.359375 59.234375 74.3125 59.835938 75.261719 60.4375 C 75.433594 60.566406 75.621094 60.605469 75.828125 60.5625 C 75.984375 60.527344 75.964844 60.410156 75.933594 60.289062 Z M 75.933594 60.296875 " fill-opacity="1" fill-rule="nonzero"></path>
  </g>
  <path fill="#ffffff" d="M 60.183594 76.308594 C 55.699219 76.359375 51.21875 76.359375 46.722656 76.222656 C 47.460938 75.890625 48.234375 75.722656 48.910156 75.257812 C 50.300781 74.308594 51.210938 73.011719 51.894531 71.503906 C 52.550781 70.066406 53.324219 68.847656 53.902344 67.378906 C 54.625 66.566406 51.453125 72.761719 53.453125 68.039062 C 54.289062 66.46875 56.390625 61.207031 56.9375 59.515625 C 57.34375 58.292969 57.792969 57.09375 58.046875 55.824219 C 58.183594 55.171875 58.5625 54.980469 59.128906 55.242188 C 59.816406 55.558594 60.496094 55.894531 61.160156 56.257812 C 61.824219 56.625 62.015625 57.15625 61.722656 57.910156 C 60.671875 60.632812 59.601562 63.351562 58.546875 66.074219 C 57.859375 67.855469 57.136719 69.628906 56.527344 71.441406 C 56.148438 72.558594 56.097656 73.777344 57.011719 74.664062 C 57.640625 75.277344 58.5 75.652344 59.386719 75.886719 C 59.65625 75.960938 59.9375 76.050781 60.214844 76.128906 Z M 60.183594 76.308594 " fill-opacity="1" fill-rule="nonzero"></path>
  <g clip-path="url(#55d167ffc9)">
    <path fill="#ffffff" d="M 111.074219 119.929688 C 110.890625 122.964844 111 125.878906 110.992188 128.792969 C 110.992188 129.773438 110.28125 130.273438 109.386719 129.867188 C 108.980469 129.683594 109.050781 129.253906 109.046875 128.917969 C 109.027344 127.75 109 126.578125 109.054688 125.414062 C 109.144531 123.5625 109.140625 121.714844 109.046875 119.863281 C 109.011719 119.234375 109.046875 118.597656 109.046875 117.964844 C 109.046875 117.570312 109.210938 117.375 109.613281 117.390625 L 109.679688 117.390625 C 111.625 117.269531 111.875 117.5 112.84375 119.308594 C 114.117188 121.6875 115.511719 124.003906 116.867188 126.339844 C 116.953125 126.488281 117.027344 126.78125 117.285156 126.683594 C 117.476562 126.609375 117.402344 126.359375 117.402344 126.1875 C 117.417969 123.546875 117.417969 120.902344 117.429688 118.261719 C 117.429688 117.398438 117.441406 117.398438 118.378906 117.394531 C 119.3125 117.394531 119.351562 117.417969 119.351562 118.246094 C 119.351562 121.886719 119.34375 125.523438 119.363281 129.160156 C 119.363281 129.703125 119.214844 129.871094 118.652344 129.933594 C 117.433594 130.066406 116.679688 129.722656 116.070312 128.519531 C 114.714844 125.859375 113.140625 123.304688 111.648438 120.714844 C 111.46875 120.445312 111.277344 120.183594 111.074219 119.929688 Z M 111.074219 119.929688 " fill-opacity="1" fill-rule="nonzero"></path>
  </g>
  <path fill="#ffffff" d="M 83.4375 123.578125 L 83.4375 118.359375 C 83.4375 117.386719 83.4375 117.378906 84.375 117.390625 C 85.925781 117.414062 87.488281 117.253906 89.023438 117.5625 C 91.152344 117.996094 91.886719 118.859375 91.980469 120.660156 C 92.050781 121.945312 91.347656 122.933594 90.167969 123.484375 C 89.652344 123.722656 89.796875 123.945312 90.023438 124.273438 C 91.097656 125.832031 91.84375 127.570312 92.71875 129.234375 C 92.949219 129.667969 92.820312 129.921875 92.285156 129.898438 C 92.058594 129.886719 91.832031 129.894531 91.609375 129.921875 C 91 129.984375 90.699219 129.699219 90.453125 129.140625 C 89.890625 127.863281 89.246094 126.625 88.625 125.378906 C 88.292969 124.710938 87.675781 124.527344 87 124.480469 C 85.375 124.371094 85.375 124.371094 85.363281 125.960938 C 85.351562 127.023438 85.332031 128.085938 85.363281 129.144531 C 85.382812 129.738281 85.164062 129.988281 84.578125 129.921875 C 84.445312 129.902344 84.308594 129.898438 84.171875 129.910156 C 83.574219 129.984375 83.40625 129.699219 83.414062 129.128906 C 83.4375 127.277344 83.421875 125.425781 83.421875 123.570312 Z M 85.359375 120.855469 L 85.375 120.855469 L 85.375 122.347656 C 85.375 122.550781 85.375 122.78125 85.667969 122.792969 C 86.808594 122.824219 87.96875 122.945312 89.035156 122.398438 C 89.746094 122.035156 89.945312 121.375 89.886719 120.636719 C 89.835938 119.992188 89.46875 119.609375 88.882812 119.328125 C 87.851562 118.839844 86.769531 119.007812 85.703125 118.988281 C 85.402344 118.988281 85.351562 119.191406 85.355469 119.445312 C 85.363281 119.910156 85.359375 120.382812 85.359375 120.855469 Z M 85.359375 120.855469 " fill-opacity="1" fill-rule="nonzero"></path>
  <path fill="#ffffff" d="M 80.40625 129.917969 C 79.820312 130.042969 79.382812 129.851562 79.214844 129.105469 C 79.121094 128.679688 78.839844 128.292969 78.707031 127.871094 C 78.4375 127.027344 77.941406 126.703125 77.019531 126.753906 C 75.445312 126.847656 73.863281 126.804688 72.289062 126.785156 C 71.792969 126.785156 71.566406 126.976562 71.40625 127.421875 C 71.152344 128.113281 70.816406 128.777344 70.546875 129.464844 C 70.273438 130.128906 69.71875 129.886719 69.265625 129.898438 C 68.398438 129.925781 68.332031 129.796875 68.683594 129.027344 C 70.019531 126.101562 71.332031 123.167969 72.703125 120.257812 C 73.054688 119.507812 73.363281 118.742188 73.6875 117.984375 C 73.878906 117.542969 74.140625 117.386719 74.605469 117.375 C 76.050781 117.335938 76.125 117.390625 76.6875 118.722656 C 77.730469 121.191406 78.816406 123.644531 79.980469 126.058594 C 80.402344 126.929688 80.757812 127.828125 81.167969 128.703125 C 81.714844 129.863281 81.714844 129.875 80.40625 129.917969 Z M 74.863281 125.25 L 74.863281 125.238281 C 75.496094 125.238281 76.125 125.257812 76.761719 125.230469 C 77.175781 125.214844 77.421875 125.078125 77.226562 124.554688 C 76.644531 122.96875 75.929688 121.433594 75.234375 119.902344 C 75.003906 119.390625 74.753906 119.691406 74.609375 120.023438 C 73.941406 121.550781 73.292969 123.082031 72.621094 124.605469 C 72.40625 125.089844 72.628906 125.234375 73.042969 125.246094 C 73.648438 125.261719 74.253906 125.25 74.863281 125.25 Z M 74.863281 125.25 " fill-opacity="1" fill-rule="nonzero"></path>
  <path fill="#ffffff" d="M 105.78125 129.90625 C 105.171875 130.066406 104.863281 129.773438 104.644531 129.105469 C 103.882812 126.777344 103.855469 126.785156 101.414062 126.792969 C 100.21875 126.792969 99.027344 126.8125 97.832031 126.792969 C 97.347656 126.785156 97.019531 126.878906 96.882812 127.410156 C 96.730469 128.042969 96.289062 128.554688 96.148438 129.210938 C 96.011719 129.867188 95.488281 129.9375 94.890625 129.914062 C 93.746094 129.867188 93.757812 129.902344 94.214844 128.894531 C 95.160156 126.804688 96.019531 124.675781 97.039062 122.625 C 97.796875 121.101562 98.488281 119.546875 99.160156 117.984375 C 99.402344 117.429688 99.804688 117.34375 100.304688 117.386719 C 100.855469 117.433594 101.46875 117.234375 101.792969 117.980469 C 102.941406 120.648438 104.117188 123.304688 105.304688 125.957031 C 105.769531 127 106.308594 128.015625 106.757812 129.066406 C 107.09375 129.855469 107.046875 129.878906 106.195312 129.90625 C 106.082031 129.910156 105.96875 129.90625 105.78125 129.90625 Z M 100.34375 125.253906 L 100.34375 125.261719 L 102.304688 125.261719 C 102.765625 125.261719 102.980469 125.160156 102.75 124.625 C 102.160156 123.238281 101.550781 121.855469 100.871094 120.507812 C 100.761719 120.285156 100.746094 119.929688 100.375 119.949219 C 100.035156 119.96875 99.984375 120.292969 99.878906 120.527344 C 99.230469 121.960938 98.597656 123.398438 97.953125 124.832031 C 97.765625 125.253906 98.074219 125.238281 98.316406 125.238281 C 98.992188 125.261719 99.667969 125.253906 100.347656 125.253906 Z M 100.34375 125.253906 " fill-opacity="1" fill-rule="nonzero"></path>
  <g clip-path="url(#dc481f481f)">
    <path fill="#ffffff" d="M 63.847656 117.144531 C 64.515625 117.0625 65.179688 117.324219 65.863281 117.441406 C 66.457031 117.539062 66.496094 117.886719 66.269531 118.8125 C 66.109375 119.480469 65.757812 119.066406 65.515625 118.992188 C 64.566406 118.695312 63.621094 118.730469 62.65625 118.914062 C 61.996094 119.039062 61.621094 119.476562 61.460938 120.066406 C 61.3125 120.609375 61.570312 121.074219 61.988281 121.445312 C 62.917969 122.28125 64.101562 122.667969 65.175781 123.246094 C 66.609375 124.019531 67.195312 125.253906 67.15625 126.539062 C 67.101562 128.46875 65.679688 129.488281 64.609375 129.84375 C 63.054688 130.359375 61.519531 130.226562 59.984375 129.765625 C 59.234375 129.542969 59.625 128.945312 59.648438 128.519531 C 59.671875 128.023438 60.03125 128.128906 60.402344 128.21875 C 61.386719 128.464844 62.378906 128.632812 63.402344 128.390625 C 64.128906 128.21875 64.902344 127.558594 65.007812 126.929688 C 65.144531 126.152344 64.695312 125.304688 64.023438 124.859375 C 63.007812 124.183594 61.78125 123.933594 60.785156 123.207031 C 59.707031 122.421875 59.230469 121.382812 59.382812 120.109375 C 59.546875 118.753906 60.378906 117.867188 61.671875 117.460938 C 62.363281 117.246094 63.070312 117.078125 63.847656 117.144531 Z M 63.847656 117.144531 " fill-opacity="1" fill-rule="nonzero"></path>
  </g>
  <g clip-path="url(#58bc38bc25)">
    <path fill="#ffffff" d="M 122.847656 123.511719 C 122.847656 121.664062 122.863281 119.8125 122.835938 117.964844 C 122.832031 117.5 123 117.378906 123.421875 117.386719 C 125.027344 117.417969 124.761719 117.269531 124.765625 118.703125 C 124.773438 122.152344 124.773438 125.605469 124.765625 129.054688 C 124.765625 129.324219 124.925781 129.753906 124.578125 129.832031 C 124.066406 129.953125 123.492188 130.050781 122.992188 129.820312 C 122.742188 129.703125 122.839844 129.324219 122.835938 129.058594 C 122.828125 127.210938 122.835938 125.363281 122.835938 123.511719 Z M 122.847656 123.511719 " fill-opacity="1" fill-rule="nonzero"></path>
  </g>
</svg>
