<svg xmlns="http://www.w3.org/2000/svg" xmlns:xlink="http://www.w3.org/1999/xlink" width="1200" zoomAndPan="magnify" viewBox="0 0 900 645.000003" height="860" preserveAspectRatio="xMidYMid meet" version="1.0"><defs><clipPath id="2667541ed3"><path d="M 54 188.851562 L 311 188.851562 L 311 403.769531 L 54 403.769531 Z M 54 188.851562 " clip-rule="nonzero"/></clipPath></defs><path fill="#ffffff" d="M 845.734375 301.308594 C 845.796875 301.300781 845.855469 301.300781 845.914062 301.308594 L 845.914062 357.011719 L 845.679688 357 C 845.304688 356.597656 845.355469 356.089844 845.355469 355.605469 C 845.347656 337.996094 845.347656 320.382812 845.355469 302.773438 C 845.359375 302.257812 845.28125 301.707031 845.734375 301.308594 Z M 845.734375 301.308594 " fill-opacity="1" fill-rule="nonzero"/><path fill="#f9f9f9" d="M 355.273438 302.214844 C 355.273438 282.492188 355.265625 262.769531 355.25 243.050781 C 355.25 242 355.480469 241.71875 356.558594 241.71875 C 382.273438 241.75 407.988281 241.75 433.703125 241.71875 C 434.746094 241.71875 435.050781 241.941406 435.039062 243.027344 C 434.976562 248.839844 434.992188 254.65625 435.039062 260.472656 C 435.039062 261.355469 434.789062 261.566406 433.925781 261.566406 C 416.132812 261.539062 398.335938 261.566406 380.535156 261.523438 C 379.484375 261.523438 379.214844 261.773438 379.21875 262.839844 C 379.261719 273.523438 379.261719 284.207031 379.21875 294.890625 C 379.21875 295.875 379.503906 296.078125 380.4375 296.078125 C 395.636719 296.046875 410.84375 296.078125 426.050781 296.03125 C 427.066406 296.03125 427.320312 296.28125 427.3125 297.292969 C 427.261719 303.074219 427.261719 308.851562 427.3125 314.632812 C 427.3125 315.554688 427.082031 315.804688 426.148438 315.800781 C 410.949219 315.773438 395.742188 315.800781 380.535156 315.753906 C 379.484375 315.753906 379.214844 316.007812 379.21875 317.070312 C 379.257812 331.886719 379.238281 346.707031 379.265625 361.519531 C 379.265625 362.46875 379.042969 362.746094 378.066406 362.742188 C 370.851562 362.695312 363.632812 362.695312 356.414062 362.742188 C 355.488281 362.742188 355.257812 362.519531 355.257812 361.585938 C 355.285156 341.796875 355.292969 322.003906 355.273438 302.214844 Z M 355.273438 302.214844 " fill-opacity="1" fill-rule="nonzero"/><path fill="#f9f9f9" d="M 569.316406 309.457031 C 569.316406 316.320312 569.257812 323.1875 569.339844 330.054688 C 569.386719 333.714844 569.914062 337.3125 571.882812 340.527344 C 573.804688 343.660156 576.71875 345.1875 580.257812 345.664062 C 585.300781 346.339844 590.136719 345.304688 594.902344 343.773438 C 595.621094 343.539062 595.859375 343.621094 595.976562 344.402344 C 596.738281 349.554688 597.511719 354.703125 598.355469 359.847656 C 598.484375 360.621094 598.242188 360.898438 597.625 361.167969 C 593.316406 363.035156 588.796875 364.082031 584.148438 364.542969 C 578.941406 365.058594 573.742188 365.050781 568.578125 363.988281 C 557.492188 361.710938 550.691406 354.914062 547.632812 344.160156 C 546.253906 339.3125 545.765625 334.339844 545.753906 329.324219 C 545.722656 315.695312 545.730469 302.070312 545.769531 288.441406 C 545.769531 287.390625 545.484375 287.179688 544.5 287.207031 C 541.382812 287.273438 538.265625 287.207031 535.148438 287.246094 C 534.429688 287.246094 534.195312 287.074219 534.199219 286.320312 C 534.230469 280.714844 534.230469 275.109375 534.199219 269.503906 C 534.199219 268.734375 534.375 268.492188 535.179688 268.503906 C 538.367188 268.550781 541.554688 268.492188 544.742188 268.542969 C 545.601562 268.558594 545.765625 268.285156 545.765625 267.492188 C 545.734375 260.277344 545.765625 253.0625 545.730469 245.84375 C 545.730469 244.9375 545.9375 244.628906 546.894531 244.496094 C 554.0625 243.496094 561.222656 242.4375 568.375 241.320312 C 569.339844 241.167969 569.300781 241.53125 569.296875 242.199219 C 569.285156 250.574219 569.3125 258.945312 569.261719 267.316406 C 569.261719 268.367188 569.5625 268.554688 570.539062 268.546875 C 578.105469 268.503906 585.671875 268.546875 593.242188 268.503906 C 594.082031 268.503906 594.367188 268.671875 594.359375 269.578125 C 594.3125 275.109375 594.3125 280.644531 594.359375 286.183594 C 594.359375 287.097656 594.066406 287.253906 593.234375 287.25 C 585.632812 287.21875 578.03125 287.25 570.429688 287.207031 C 569.535156 287.207031 569.257812 287.375 569.265625 288.335938 C 569.3125 295.378906 569.289062 302.421875 569.289062 309.460938 Z M 569.316406 309.457031 " fill-opacity="1" fill-rule="nonzero"/><path fill="#f9f9f9" d="M 710.675781 318.546875 C 710.675781 304.25 710.667969 289.960938 710.65625 275.675781 C 710.65625 274.835938 710.898438 274.378906 711.667969 273.996094 C 717.296875 271.226562 723.253906 269.496094 729.394531 268.335938 C 736.578125 266.976562 743.832031 266.574219 751.128906 266.875 C 753.085938 266.953125 755.035156 267.160156 756.992188 267.28125 C 757.832031 267.332031 758.1875 267.558594 758.109375 268.542969 C 757.691406 274.21875 757.328125 279.917969 756.972656 285.609375 C 756.914062 286.515625 756.808594 286.945312 755.617188 286.851562 C 748.828125 286.316406 742.144531 287.039062 735.546875 288.726562 C 734.574219 288.972656 734.234375 289.335938 734.238281 290.390625 C 734.273438 313.996094 734.28125 337.601562 734.261719 361.207031 C 734.261719 362.9375 734.511719 362.710938 732.769531 362.714844 C 725.765625 362.714844 718.757812 362.699219 711.75 362.738281 C 710.867188 362.738281 710.648438 362.484375 710.652344 361.625 C 710.679688 347.265625 710.6875 332.90625 710.675781 318.546875 Z M 710.675781 318.546875 " fill-opacity="1" fill-rule="nonzero"/><path fill="#f9f9f9" d="M 76.90625 254.085938 C 77.746094 254.085938 78.589844 253.992188 79.429688 254.105469 C 80 254.179688 80.535156 254.351562 81.039062 254.621094 C 81.546875 254.890625 81.988281 255.242188 82.363281 255.675781 C 82.738281 256.109375 83.027344 256.59375 83.222656 257.132812 C 83.421875 257.671875 83.515625 258.226562 83.507812 258.800781 C 83.492188 261.113281 81.828125 263.003906 79.386719 263.328125 C 77.75 263.570312 76.117188 263.5625 74.480469 263.308594 C 71.875 262.871094 70.234375 260.722656 70.464844 258.152344 C 70.675781 255.765625 72.703125 254.054688 75.332031 254.046875 L 76.90625 254.046875 Z M 76.90625 254.085938 " fill-opacity="1" fill-rule="nonzero"/><path fill="#f9f9f9" d="M 67.808594 320.195312 C 64.269531 320.195312 62.054688 317.882812 62.457031 314.625 C 62.523438 314.097656 62.683594 313.601562 62.945312 313.140625 C 64.121094 310.996094 66.070312 310.570312 68.308594 310.675781 C 70.3125 310.769531 71.8125 311.617188 72.636719 313.449219 C 73.460938 315.28125 73.175781 317.007812 71.933594 318.554688 C 70.878906 319.867188 69.425781 320.253906 67.808594 320.195312 Z M 67.808594 320.195312 " fill-opacity="1" fill-rule="nonzero"/><g clip-path="url(#2667541ed3)"><path fill="#f9f9f9" d="M 308.78125 274.855469 C 304.40625 253.882812 294.675781 235.777344 279.589844 220.539062 C 273.003906 213.878906 265.660156 208.199219 257.558594 203.503906 C 243.511719 195.339844 228.414062 190.550781 212.214844 189.242188 L 207.320312 188.851562 L 199.121094 188.851562 C 198.664062 189.085938 198.164062 188.992188 197.683594 189.03125 C 195.519531 189.199219 193.347656 189.28125 191.195312 189.53125 C 182.71875 190.5 174.472656 192.4375 166.457031 195.355469 C 150.601562 201.167969 136.867188 210.191406 125.246094 222.429688 C 116.65625 231.433594 109.871094 241.640625 104.886719 253.042969 C 104.574219 253.757812 104.230469 254.09375 103.355469 254.078125 C 100.101562 254.003906 96.839844 254.054688 93.582031 254.046875 C 90.972656 254.046875 88.996094 255.683594 88.777344 258.066406 C 88.53125 260.730469 90.1875 262.960938 92.808594 263.320312 C 95.171875 263.640625 97.5625 263.4375 99.941406 263.421875 C 100.882812 263.421875 100.859375 263.707031 100.617188 264.429688 C 99.785156 266.882812 99.128906 269.378906 98.644531 271.917969 C 98.5 272.710938 98.1875 272.96875 97.347656 272.957031 C 91.851562 272.910156 86.347656 272.941406 80.847656 272.929688 C 79.597656 272.902344 78.515625 273.3125 77.59375 274.160156 C 77.257812 274.457031 76.96875 274.796875 76.734375 275.183594 C 76.5 275.566406 76.328125 275.976562 76.21875 276.410156 C 76.109375 276.847656 76.0625 277.289062 76.085938 277.738281 C 76.109375 278.1875 76.199219 278.621094 76.355469 279.042969 C 77.132812 281.054688 78.800781 282.246094 80.949219 282.253906 C 85.746094 282.269531 90.546875 282.253906 95.347656 282.253906 C 96.660156 282.253906 96.679688 282.253906 96.519531 283.597656 C 96.203125 285.921875 96.015625 288.257812 95.953125 290.601562 C 95.9375 291.640625 95.597656 291.839844 94.621094 291.835938 C 82.886719 291.800781 71.152344 291.8125 59.414062 291.8125 C 59.0625 291.8125 58.710938 291.8125 58.363281 291.828125 C 55.609375 292.023438 53.539062 294.859375 54.207031 297.527344 C 54.824219 299.976562 56.644531 301.308594 59.429688 301.308594 C 71.234375 301.308594 83.042969 301.304688 94.847656 301.292969 C 95.65625 301.292969 95.898438 301.503906 95.9375 302.320312 C 96.023438 304.382812 96.171875 306.4375 96.394531 308.492188 C 96.628906 310.699219 96.675781 310.691406 94.527344 310.691406 C 90.113281 310.691406 85.699219 310.683594 81.285156 310.691406 C 79.269531 310.691406 77.792969 311.632812 76.984375 313.484375 C 76.171875 315.335938 76.527344 317.058594 77.824219 318.570312 C 78.875 319.796875 80.308594 320.195312 81.878906 320.195312 C 87.0625 320.195312 92.246094 320.214844 97.433594 320.171875 C 98.25 320.171875 98.503906 320.472656 98.644531 321.179688 C 99.136719 323.6875 99.804688 326.148438 100.640625 328.558594 C 100.929688 329.402344 100.742188 329.527344 99.921875 329.527344 C 87.902344 329.503906 75.886719 329.5 63.871094 329.511719 C 63.554688 329.511719 63.238281 329.496094 62.925781 329.511719 C 60.023438 329.703125 58 332.011719 58.300781 334.777344 C 58.558594 337.171875 60.734375 339.007812 63.363281 339.007812 C 76.640625 339.007812 89.917969 339 103.191406 338.988281 C 104.085938 338.988281 104.542969 339.222656 104.921875 340.066406 C 113.070312 358.339844 125.332031 373.222656 141.714844 384.707031 C 159.121094 396.878906 178.519531 403.21875 199.714844 404.046875 C 208.359375 404.378906 216.914062 403.636719 225.371094 401.820312 C 248.46875 396.890625 267.960938 385.660156 283.648438 368.042969 C 300.863281 348.707031 309.835938 325.960938 310.898438 300.113281 C 311.242188 291.605469 310.535156 283.1875 308.78125 274.855469 Z M 133.84375 254.046875 C 135.695312 254.046875 137.550781 254.046875 139.40625 254.046875 C 141.261719 254.046875 143.113281 254.046875 144.96875 254.046875 C 147.792969 254.046875 149.898438 256.015625 149.933594 258.65625 C 149.9375 258.964844 149.90625 259.277344 149.847656 259.582031 C 149.789062 259.886719 149.699219 260.183594 149.578125 260.472656 C 149.460938 260.761719 149.316406 261.035156 149.144531 261.296875 C 148.972656 261.554688 148.773438 261.796875 148.554688 262.019531 C 148.335938 262.238281 148.097656 262.4375 147.835938 262.613281 C 147.578125 262.785156 147.304688 262.933594 147.019531 263.054688 C 146.730469 263.175781 146.433594 263.265625 146.128906 263.328125 C 145.824219 263.390625 145.515625 263.421875 145.203125 263.421875 C 141.320312 263.492188 137.425781 263.5 133.550781 263.421875 C 130.761719 263.367188 128.71875 261.207031 128.757812 258.601562 C 128.804688 255.90625 130.898438 254.03125 133.84375 254.042969 Z M 145.125 291.824219 C 145.429688 291.824219 145.726562 291.851562 146.023438 291.910156 C 146.320312 291.96875 146.609375 292.054688 146.890625 292.167969 C 147.167969 292.285156 147.433594 292.425781 147.6875 292.589844 C 147.9375 292.757812 148.171875 292.949219 148.386719 293.160156 C 148.601562 293.375 148.792969 293.605469 148.960938 293.855469 C 149.132812 294.105469 149.273438 294.371094 149.390625 294.648438 C 149.507812 294.929688 149.597656 295.214844 149.65625 295.511719 C 149.71875 295.808594 149.75 296.105469 149.75 296.410156 C 149.804688 299.140625 148 301.214844 145.335938 301.28125 C 142.113281 301.363281 138.890625 301.363281 135.667969 301.28125 C 135.355469 301.273438 135.046875 301.238281 134.742188 301.167969 C 134.4375 301.101562 134.140625 301.003906 133.855469 300.878906 C 133.570312 300.75 133.300781 300.597656 133.046875 300.417969 C 132.789062 300.238281 132.554688 300.035156 132.339844 299.8125 C 132.125 299.585938 131.933594 299.339844 131.765625 299.078125 C 131.597656 298.8125 131.457031 298.535156 131.347656 298.246094 C 131.234375 297.953125 131.148438 297.65625 131.097656 297.347656 C 131.042969 297.039062 131.019531 296.730469 131.027344 296.417969 C 131.066406 293.761719 133.082031 291.835938 135.863281 291.824219 C 137.367188 291.824219 138.875 291.824219 140.378906 291.824219 C 141.972656 291.820312 143.550781 291.800781 145.125 291.824219 Z M 279.058594 255.484375 C 275.527344 272.636719 272 289.789062 268.46875 306.941406 C 266.339844 317.277344 264.175781 327.609375 262.085938 337.957031 C 261.890625 338.917969 261.507812 339.085938 260.644531 339.085938 C 239.273438 339.0625 217.90625 339.058594 196.53125 339.066406 C 175.269531 339.066406 154.003906 339.066406 132.742188 339.066406 C 131.449219 339.066406 130.234375 338.871094 129.183594 338.058594 C 128.796875 337.765625 128.464844 337.421875 128.183594 337.027344 C 127.902344 336.628906 127.6875 336.203125 127.539062 335.742188 C 127.390625 335.28125 127.3125 334.808594 127.308594 334.324219 C 127.300781 333.839844 127.371094 333.363281 127.511719 332.898438 C 128.101562 330.941406 129.847656 329.644531 132.097656 329.511719 C 132.410156 329.492188 132.726562 329.511719 133.042969 329.511719 L 193.683594 329.511719 C 196.242188 329.511719 197.953125 328.21875 198.519531 325.878906 C 199.167969 323.210938 197.085938 320.390625 194.339844 320.203125 C 193.917969 320.175781 193.496094 320.191406 193.078125 320.191406 C 178.996094 320.191406 164.910156 320.191406 150.828125 320.191406 C 147.464844 320.191406 145.347656 317.859375 145.707031 314.59375 C 145.765625 314.105469 145.902344 313.636719 146.117188 313.191406 C 146.332031 312.746094 146.613281 312.351562 146.964844 312 C 147.3125 311.652344 147.707031 311.367188 148.152344 311.152344 C 148.597656 310.933594 149.0625 310.796875 149.554688 310.738281 C 149.972656 310.695312 150.394531 310.679688 150.8125 310.6875 C 159.746094 310.6875 168.679688 310.6875 177.613281 310.6875 C 180.621094 310.6875 182.710938 308.753906 182.722656 306.011719 C 182.726562 305.703125 182.703125 305.398438 182.644531 305.097656 C 182.589844 304.796875 182.503906 304.503906 182.390625 304.21875 C 182.273438 303.933594 182.132812 303.660156 181.964844 303.402344 C 181.796875 303.148438 181.605469 302.910156 181.390625 302.691406 C 181.171875 302.472656 180.9375 302.277344 180.683594 302.105469 C 180.429688 301.933594 180.160156 301.785156 179.878906 301.667969 C 179.59375 301.550781 179.300781 301.460938 179 301.398438 C 178.699219 301.339844 178.394531 301.308594 178.085938 301.308594 C 173.148438 301.296875 168.207031 301.308594 163.269531 301.308594 C 160.425781 301.296875 158.367188 299.382812 158.265625 296.714844 C 158.160156 293.910156 160.144531 291.832031 162.980469 291.828125 C 171.175781 291.828125 179.375 291.828125 187.570312 291.816406 C 189.636719 291.816406 191.257812 290.933594 192.09375 288.988281 C 192.878906 287.160156 192.578125 285.414062 191.265625 283.902344 C 190.238281 282.714844 188.878906 282.304688 187.320312 282.308594 C 175.023438 282.324219 162.730469 282.324219 150.433594 282.308594 C 147.824219 282.308594 146.007812 281.09375 145.320312 278.925781 C 145.214844 278.582031 145.148438 278.230469 145.125 277.871094 C 145.101562 277.511719 145.117188 277.152344 145.175781 276.800781 C 145.234375 276.445312 145.335938 276.101562 145.472656 275.769531 C 145.613281 275.4375 145.789062 275.125 146 274.832031 C 146.210938 274.542969 146.453125 274.28125 146.726562 274.046875 C 147 273.8125 147.296875 273.613281 147.617188 273.445312 C 147.9375 273.28125 148.273438 273.15625 148.621094 273.070312 C 148.972656 272.980469 149.324219 272.9375 149.683594 272.933594 C 154.972656 272.910156 160.265625 272.933594 165.554688 272.933594 C 175.503906 272.933594 185.453125 272.933594 195.402344 272.933594 C 198.230469 272.933594 200.109375 271.363281 200.460938 268.777344 C 200.507812 268.445312 200.519531 268.117188 200.496094 267.785156 C 200.472656 267.449219 200.414062 267.125 200.320312 266.804688 C 200.226562 266.484375 200.101562 266.179688 199.941406 265.886719 C 199.78125 265.59375 199.59375 265.324219 199.375 265.070312 C 199.15625 264.816406 198.917969 264.589844 198.648438 264.390625 C 198.382812 264.191406 198.101562 264.019531 197.796875 263.882812 C 197.496094 263.742188 197.179688 263.636719 196.855469 263.5625 C 196.53125 263.492188 196.203125 263.457031 195.867188 263.453125 C 192.296875 263.425781 188.722656 263.453125 185.148438 263.453125 C 177.792969 263.453125 170.4375 263.453125 163.078125 263.453125 C 161 263.453125 159.292969 262.734375 158.261719 260.855469 C 156.625 257.878906 158.707031 254.257812 162.136719 254.058594 C 162.378906 254.046875 162.625 254.058594 162.871094 254.058594 L 277.945312 254.058594 C 279.359375 254.046875 279.355469 254.046875 279.058594 255.484375 Z M 279.058594 255.484375 " fill-opacity="1" fill-rule="nonzero"/></g><path fill="#f9f9f9" d="M 694.386719 312.449219 C 694.230469 305.875 693.375 299.417969 691.382812 293.128906 C 689.492188 287.144531 686.585938 281.722656 682.097656 277.246094 C 676.65625 271.8125 669.96875 268.839844 662.503906 267.476562 C 655.410156 266.199219 648.308594 266.148438 641.199219 267.328125 C 635.367188 268.273438 629.894531 270.21875 625.015625 273.648438 C 618.367188 278.324219 614.207031 284.789062 611.699219 292.402344 C 608.660156 301.609375 608.085938 311.109375 608.523438 320.707031 C 608.84375 327.699219 609.882812 334.5625 612.421875 341.128906 C 617.113281 353.257812 625.820312 360.726562 638.542969 363.527344 C 646.046875 365.1875 653.609375 365.269531 661.183594 364.136719 C 667.242188 363.234375 672.914062 361.246094 677.960938 357.671875 C 684.402344 353.105469 688.472656 346.832031 691.003906 339.472656 C 693.671875 331.734375 694.449219 323.722656 694.386719 315.597656 C 694.386719 314.539062 694.410156 313.488281 694.386719 312.449219 Z M 669.308594 332.105469 C 668.171875 336.273438 666.320312 340.027344 662.714844 342.667969 C 659.5625 344.980469 655.953125 345.792969 652.140625 345.871094 C 647.863281 345.957031 643.761719 345.261719 640.203125 342.667969 C 636.402344 339.898438 634.542969 335.921875 633.417969 331.527344 C 632.546875 328.121094 632.214844 324.644531 632.078125 321.140625 C 631.84375 315.113281 631.839844 309.101562 632.773438 303.125 C 633.328125 299.578125 634.304688 296.160156 636.210938 293.070312 C 639.027344 288.507812 643.226562 286.183594 648.453125 285.566406 C 652.082031 285.144531 655.664062 285.355469 659.097656 286.671875 C 664.402344 288.714844 667.296875 292.890625 668.929688 298.097656 C 670.363281 302.648438 670.753906 307.347656 670.84375 312.082031 C 670.867188 313.308594 670.84375 314.53125 670.84375 315.757812 C 670.878906 321.242188 670.761719 326.742188 669.308594 332.09375 Z M 669.308594 332.105469 " fill-opacity="1" fill-rule="nonzero"/><path fill="#f9f9f9" d="M 844.652344 290.671875 C 843.34375 284.753906 840.789062 279.519531 836.242188 275.390625 C 832.234375 271.75 827.453125 269.613281 822.261719 268.292969 C 816.316406 266.78125 810.257812 266.449219 804.152344 266.539062 C 796.632812 266.636719 789.242188 267.65625 781.976562 269.601562 C 778.722656 270.453125 775.558594 271.566406 772.492188 272.941406 C 772.113281 273.113281 771.648438 273.183594 771.832031 273.886719 C 773.226562 279.265625 774.574219 284.65625 775.933594 290.042969 C 776.050781 290.511719 776.199219 290.671875 776.722656 290.460938 C 783.492188 287.726562 790.515625 286.125 797.800781 285.660156 C 802.386719 285.359375 806.960938 285.378906 811.460938 286.550781 C 818.164062 288.296875 821.515625 292.105469 822.183594 298.953125 C 822.554688 302.757812 822.253906 306.582031 822.339844 310.394531 C 822.351562 311.070312 821.960938 311.027344 821.519531 310.964844 C 820.476562 310.828125 819.441406 310.660156 818.398438 310.5625 C 811.558594 309.933594 804.710938 309.777344 797.855469 310.339844 C 792.535156 310.777344 787.308594 311.691406 782.34375 313.71875 C 776.585938 316.066406 771.910156 319.671875 769.179688 325.433594 C 767.078125 329.847656 766.609375 334.546875 766.816406 339.359375 C 767 343.648438 767.949219 347.730469 770.160156 351.460938 C 773.183594 356.558594 777.789062 359.640625 783.222656 361.632812 C 790.527344 364.3125 798.15625 364.855469 805.847656 364.859375 C 812.863281 364.882812 819.816406 364.230469 826.707031 362.90625 C 833.242188 361.625 839.632812 359.875 845.671875 357 C 845.671875 356.511719 845.691406 356.019531 845.691406 355.527344 C 845.691406 337.90625 845.691406 320.285156 845.691406 302.664062 C 845.691406 302.207031 845.710938 301.753906 845.71875 301.296875 C 845.703125 297.726562 845.429688 294.175781 844.652344 290.671875 Z M 822.371094 327.738281 C 822.300781 330.785156 822.34375 333.835938 822.34375 336.878906 C 822.34375 339.996094 822.324219 343.113281 822.359375 346.230469 C 822.359375 346.933594 822.195312 347.269531 821.460938 347.464844 C 814.945312 349.207031 808.339844 349.914062 801.613281 349.207031 C 799.933594 349.039062 798.308594 348.640625 796.738281 348.007812 C 792.40625 346.242188 790.644531 342.789062 790.464844 338.339844 C 790.363281 335.679688 790.675781 333.082031 792.171875 330.785156 C 794.007812 327.980469 796.839844 326.777344 799.964844 326.113281 C 804.320312 325.191406 808.730469 325.304688 813.136719 325.570312 C 815.785156 325.730469 818.425781 326.125 821.074219 326.285156 C 822.148438 326.355469 822.386719 326.722656 822.371094 327.738281 Z M 822.371094 327.738281 " fill-opacity="1" fill-rule="nonzero"/><path fill="#f9f9f9" d="M 522.441406 327.058594 C 522.441406 318.859375 522.441406 310.664062 522.441406 302.464844 C 522.441406 299.273438 522.3125 296.101562 521.8125 292.941406 C 519.964844 281.371094 513.808594 273.320312 502.617188 269.382812 C 495.859375 267.007812 488.84375 266.46875 481.738281 266.523438 C 475.488281 266.5625 469.3125 267.226562 463.199219 268.527344 C 458.40625 269.550781 453.722656 270.933594 449.230469 272.941406 C 448.835938 273.117188 448.390625 273.195312 448.578125 273.882812 C 449.96875 279.265625 451.308594 284.65625 452.671875 290.042969 C 452.78125 290.480469 452.925781 290.675781 453.46875 290.464844 C 460.230469 287.71875 467.25 286.113281 474.535156 285.65625 C 479.441406 285.339844 484.335938 285.351562 489.105469 286.800781 C 494.929688 288.570312 498.335938 292.382812 498.898438 298.535156 C 499.246094 302.34375 498.9375 306.167969 499.070312 309.980469 C 499.105469 310.945312 498.753906 311.085938 497.921875 310.945312 C 495.160156 310.464844 492.363281 310.277344 489.570312 310.160156 C 484.527344 309.949219 479.5 309.90625 474.46875 310.351562 C 469.1875 310.816406 464 311.714844 459.0625 313.734375 C 454.40625 315.636719 450.375 318.382812 447.519531 322.632812 C 444.636719 326.933594 443.585938 331.753906 443.507812 336.855469 C 443.449219 341.058594 443.960938 345.164062 445.679688 349.046875 C 448.742188 355.953125 454.386719 359.785156 461.300781 362.066406 C 468.265625 364.363281 475.476562 364.859375 482.742188 364.859375 C 488.953125 364.875 495.117188 364.359375 501.238281 363.320312 C 508.082031 362.140625 514.753906 360.375 521.152344 357.625 C 522.09375 357.21875 522.492188 356.761719 522.488281 355.640625 C 522.410156 346.113281 522.441406 336.585938 522.441406 327.058594 Z M 499.050781 336.9375 C 499.050781 340.050781 499.019531 343.167969 499.070312 346.28125 C 499.082031 347.035156 498.8125 347.308594 498.128906 347.488281 C 491.613281 349.214844 485.011719 349.925781 478.289062 349.210938 C 476.644531 349.042969 475.054688 348.648438 473.523438 348.03125 C 469.738281 346.507812 467.78125 343.660156 467.300781 339.667969 C 467.03125 337.375 467.132812 335.121094 467.871094 332.941406 C 469.132812 329.183594 472.078125 327.3125 475.703125 326.367188 C 480.328125 325.164062 485.066406 325.316406 489.785156 325.582031 C 492.503906 325.738281 495.210938 326.125 497.929688 326.320312 C 498.839844 326.386719 499.085938 326.699219 499.070312 327.59375 C 499.015625 330.695312 499.050781 333.808594 499.050781 336.929688 Z M 499.050781 336.9375 " fill-opacity="1" fill-rule="nonzero"/><path fill="#f9f9f9" d="M 251.808594 276.210938 C 247.484375 271.777344 242.03125 270.027344 235.289062 269.953125 C 234.609375 269.902344 233.28125 270.054688 231.972656 270.257812 C 216.886719 272.546875 203.957031 286.054688 203.460938 301.078125 C 203.25 307.644531 205.277344 313.386719 210.292969 317.78125 C 216.003906 322.789062 222.792969 323.945312 230.050781 322.65625 C 244.796875 320.039062 256.828125 306.492188 257.613281 292.820312 C 257.976562 286.464844 256.296875 280.816406 251.808594 276.210938 Z M 243.527344 289.148438 C 243.503906 289.550781 243.40625 289.78125 242.925781 289.78125 C 241.214844 289.800781 239.5 289.871094 237.785156 289.917969 C 237.46875 289.917969 237.15625 289.957031 237.113281 289.480469 C 236.996094 288 235.914062 287.480469 234.6875 287.289062 C 232.988281 287.023438 231.269531 286.996094 229.582031 287.449219 C 228.84375 287.617188 228.210938 287.976562 227.691406 288.53125 C 226.460938 289.902344 226.738281 291.445312 228.402344 292.183594 C 230.460938 293.09375 232.699219 293.394531 234.867188 293.933594 C 236.066406 294.199219 237.21875 294.605469 238.320312 295.148438 C 241.246094 296.675781 242.539062 299.65625 241.628906 302.84375 C 240.691406 306.136719 238.433594 308.179688 235.355469 309.433594 C 234.199219 309.941406 232.992188 310.292969 231.742188 310.488281 C 231.011719 310.578125 230.820312 310.941406 230.710938 311.539062 C 230.515625 312.601562 230.265625 313.660156 230.082031 314.726562 C 230 315.203125 229.800781 315.375 229.324219 315.359375 C 227.75 315.289062 226.175781 315.238281 224.601562 315.207031 C 224.128906 315.207031 224.109375 314.96875 224.183594 314.601562 C 224.394531 313.609375 224.535156 312.59375 224.839844 311.632812 C 225.070312 310.890625 224.792969 310.75 224.164062 310.628906 C 222.035156 310.207031 220.050781 309.46875 218.609375 307.730469 C 217.441406 306.316406 217.019531 304.648438 216.964844 302.851562 C 216.949219 302.375 217.082031 302.171875 217.59375 302.15625 C 219.238281 302.097656 220.878906 302.003906 222.523438 301.886719 C 223.039062 301.847656 223.261719 301.929688 223.289062 302.515625 C 223.359375 304.21875 224.3125 305.320312 225.890625 305.828125 C 228.300781 306.597656 230.710938 306.609375 233.054688 305.542969 C 234.402344 304.929688 235.144531 303.816406 235.445312 302.414062 C 235.730469 301.074219 235.058594 300.058594 233.511719 299.472656 C 231.832031 298.839844 230.078125 298.515625 228.339844 298.132812 C 227.003906 297.847656 225.707031 297.425781 224.457031 296.871094 C 220.207031 294.953125 219.734375 291.40625 221.804688 287.742188 C 223.566406 284.617188 226.605469 283.386719 229.957031 282.816406 C 230.675781 282.695312 230.980469 282.460938 231.074219 281.742188 C 231.21875 280.632812 231.507812 279.546875 231.667969 278.441406 C 231.75 277.859375 232.007812 277.675781 232.5625 277.703125 C 233.332031 277.738281 234.105469 277.703125 234.875 277.703125 C 235.507812 277.703125 236.136719 277.738281 236.769531 277.703125 C 237.554688 277.648438 237.945312 277.769531 237.632812 278.71875 C 237.324219 279.667969 237.195312 280.695312 236.960938 281.679688 C 236.800781 282.339844 236.785156 282.730469 237.691406 282.84375 C 239.191406 283.015625 240.53125 283.574219 241.707031 284.527344 C 243.179688 285.753906 243.640625 287.335938 243.527344 289.148438 Z M 243.527344 289.148438 " fill-opacity="1" fill-rule="nonzero"/></svg>