<svg xmlns:xlink="http://www.w3.org/1999/xlink" xmlns="http://www.w3.org/2000/svg" width="36.572" height="22.824" viewBox="0 0 36.572 22.824">
  <g id="Apple_Pay_Mark_RGB_041619" transform="translate(-0.813 -0.813)">
    <path id="Exclusion_1" data-name="Exclusion 1" d="M23467.35,15311.311h-32.131c-.1,0-.211,0-.312-.006a3.572,3.572,0,0,1-.594-.047,1.542,1.542,0,0,1-.461-.147,1.437,1.437,0,0,1-.371-.276,1.407,1.407,0,0,1-.275-.371,1.557,1.557,0,0,1-.148-.46,4.1,4.1,0,0,1-.053-.595v-.312l-.006-.306v-17.776l.006-.307v-.312a4.1,4.1,0,0,1,.053-.595,1.63,1.63,0,0,1,.148-.459,1.429,1.429,0,0,1,.275-.371,1.486,1.486,0,0,1,.371-.277,1.582,1.582,0,0,1,.461-.146,4.15,4.15,0,0,1,.594-.054h.313l.389-.006h31.354l.389.006h.313a4.306,4.306,0,0,1,.6.054,1.519,1.519,0,0,1,.455.146,1.481,1.481,0,0,1,.371.271,1.551,1.551,0,0,1,.275.377,1.63,1.63,0,0,1,.148.459,3.923,3.923,0,0,1,.053.595c0,.105,0,.206.006.313v18.389c-.006.106-.006.207-.006.313a4.1,4.1,0,0,1-.053.595,1.5,1.5,0,0,1-.418.831,1.455,1.455,0,0,1-.377.276,1.593,1.593,0,0,1-.455.147,3.813,3.813,0,0,1-.594.047C23467.561,15311.311,23467.453,15311.311,23467.35,15311.311Zm-7.621-6.237h0v1.06a4.824,4.824,0,0,0,.535.03c1.328,0,1.957-.516,2.492-2.044l2.391-6.7h-1.385l-1.613,5.184h-.023l-1.607-5.184h-1.42l2.3,6.379s-.006.019-.012.04-.02.066-.033.105c-.035.115-.072.242-.072.249a1.055,1.055,0,0,1-1.131.907,2.49,2.49,0,0,1-.424-.023Zm-3.764-6.709c.8,0,1.277.425,1.277,1.137v.489l-1.744.1c-1.508.088-2.373.775-2.373,1.885a1.919,1.919,0,0,0,2.121,1.92,2.268,2.268,0,0,0,2.014-1.154h.029v1.049h1.254v-4.395c0-1.273-.992-2.1-2.531-2.1-1.518,0-2.553.786-2.633,2h1.236A1.227,1.227,0,0,1,23455.965,15298.364Zm-16.246-1.661a2.311,2.311,0,0,0-1.955,1.188,3.737,3.737,0,0,0-.326,2.488,5.9,5.9,0,0,0,.922,2.278c.391.581.859,1.2,1.465,1.2h.037a1.78,1.78,0,0,0,.676-.18,2.046,2.046,0,0,1,.873-.2,1.906,1.906,0,0,1,.828.2,1.652,1.652,0,0,0,.705.175h.027c.674-.012,1.105-.651,1.455-1.166a5.3,5.3,0,0,0,.65-1.326v-.011l-.006,0-.008,0a2.094,2.094,0,0,1-.248-3.709l.018-.012a2.19,2.19,0,0,0-1.732-.948l-.094,0a3.145,3.145,0,0,0-1.158.285l-.008,0a1.8,1.8,0,0,1-.561.162,1.752,1.752,0,0,1-.576-.167,2.631,2.631,0,0,0-.959-.245Zm6.9-1.655h0v8.741h1.354v-2.986h1.879a2.778,2.778,0,0,0,2.922-2.886,2.747,2.747,0,0,0-2.875-2.869Zm-3.512-.672h0a2.084,2.084,0,0,0-1.4.73,1.976,1.976,0,0,0-.5,1.454.637.637,0,0,0,.105.006,1.812,1.812,0,0,0,1.3-.671,2.1,2.1,0,0,0,.494-1.52Zm12.506,8.488c-.705,0-1.162-.363-1.162-.925,0-.546.445-.89,1.221-.942l1.572-.1v.5A1.539,1.539,0,0,1,23455.611,15302.864Zm-6.08-3.2h-1.561v-3.47h1.566a1.739,1.739,0,1,1-.006,3.47Z" transform="translate(-23432.186 -15287.674)" fill="#fff"/>
  </g>
</svg>