<svg xmlns="http://www.w3.org/2000/svg" xmlns:xlink="http://www.w3.org/1999/xlink" id="Layer_2" viewBox="0 0 798.6 190.3" width="798.6"  height="190.3" ><defs><linearGradient id="linear-gradient" x1="-1973.03" y1="190.3" x2="-1973.03" y2="0" gradientTransform="translate(2080.33)" gradientUnits="userSpaceOnUse"><stop offset="0" stop-color="#7eb800"/><stop offset=".1" stop-color="#62ba30"/><stop offset=".21" stop-color="#48bc5d"/><stop offset=".33" stop-color="#32be84"/><stop offset=".45" stop-color="#1fc0a4"/><stop offset=".57" stop-color="#11c1bd"/><stop offset=".7" stop-color="#07c2cf"/><stop offset=".84" stop-color="#01c2d9"/><stop offset="1" stop-color="#00c3dd"/></linearGradient></defs><g id="Layer_1-2"><path d="M271.15,106.29c-2.23,1.84-4.59,3.27-7.08,4.28-2.49,1.01-5.1,1.51-7.85,1.51-3,0-5.81-.58-8.43-1.74-2.62-1.16-4.9-2.71-6.85-4.66-1.95-1.95-3.48-4.23-4.6-6.85-1.12-2.61-1.67-5.4-1.67-8.36s.56-5.81,1.67-8.43c1.11-2.62,2.65-4.91,4.6-6.88,1.95-1.97,4.24-3.53,6.85-4.67,2.61-1.14,5.42-1.7,8.43-1.7,2.32,0,4.63.43,6.95,1.29,2.31.86,4.61,2.1,6.88,3.73l-2.9,2.31c-3.43-2.4-7.07-3.6-10.94-3.6-2.49,0-4.81.47-6.98,1.41-2.17.94-4.05,2.22-5.66,3.82-1.61,1.6-2.88,3.51-3.83,5.72-.94,2.2-1.42,4.55-1.42,7.03s.47,4.74,1.42,6.9c.94,2.16,2.22,4.06,3.83,5.68,1.61,1.63,3.5,2.91,5.66,3.85,2.17.94,4.49,1.41,6.98,1.41,2.19,0,4.34-.44,6.47-1.32,2.12-.88,4.15-2.13,6.08-3.76l2.38,3.02Z" style="fill:#fff;"/><path d="M290.8,77.54c2.36,0,4.6.45,6.7,1.35,2.11.9,3.93,2.15,5.48,3.73,1.55,1.59,2.77,3.43,3.67,5.53s1.36,4.33,1.36,6.69-.45,4.64-1.36,6.72c-.9,2.08-2.13,3.9-3.67,5.47-1.55,1.56-3.37,2.8-5.48,3.7-2.11.9-4.34,1.35-6.7,1.35s-4.65-.45-6.74-1.35c-2.08-.9-3.92-2.13-5.51-3.7-1.59-1.57-2.84-3.39-3.74-5.47-.9-2.08-1.35-4.32-1.35-6.72s.45-4.59,1.35-6.69c.9-2.1,2.15-3.95,3.74-5.53,1.59-1.59,3.43-2.83,5.51-3.73,2.08-.9,4.33-1.35,6.74-1.35ZM304.34,94.84c0-1.89-.35-3.66-1.06-5.31-.71-1.65-1.68-3.09-2.93-4.31-1.24-1.22-2.69-2.19-4.34-2.9-1.65-.71-3.4-1.06-5.24-1.06s-3.67.35-5.34,1.06c-1.67.71-3.12,1.67-4.34,2.9-1.22,1.22-2.19,2.66-2.89,4.31-.71,1.65-1.06,3.42-1.06,5.31s.35,3.64,1.06,5.28c.71,1.63,1.67,3.06,2.89,4.28,1.22,1.22,2.67,2.19,4.34,2.89s3.45,1.06,5.34,1.06,3.59-.36,5.24-1.06,3.1-1.67,4.34-2.89c1.24-1.22,2.22-2.65,2.93-4.28.71-1.63,1.06-3.39,1.06-5.28Z" style="fill:#fff;"/><path d="M340.11,77.92v35.13l-22.64-26.95v25.6h-3.15v-34.61l22.58,26.96v-26.12h3.22Z" style="fill:#fff;"/><path d="M371.96,77.92v35.13l-22.64-26.95v25.6h-3.15v-34.61l22.58,26.96v-26.12h3.22Z" style="fill:#fff;"/><path d="M378.33,111.7v-33.84h19.94v3.6h-16.27v8.62h10.94v3.6h-10.94v14.28h17.37v3.73h-21.04Z" style="fill:#fff;"/><path d="M431.34,107c-1.93,1.59-3.92,2.82-5.98,3.7-2.06.88-4.16,1.32-6.3,1.32-2.4,0-4.65-.45-6.76-1.35-2.1-.9-3.94-2.13-5.51-3.7-1.57-1.56-2.81-3.39-3.73-5.47-.92-2.08-1.37-4.32-1.37-6.72s.46-4.6,1.37-6.72c.92-2.12,2.16-3.97,3.73-5.53,1.57-1.56,3.41-2.81,5.51-3.73,2.1-.92,4.35-1.38,6.76-1.38,1.72,0,3.54.37,5.47,1.12,1.93.75,3.92,1.81,5.98,3.19l-2.96,2.25c-2.79-1.89-5.62-2.83-8.49-2.83-1.89,0-3.66.35-5.31,1.06-1.65.71-3.1,1.68-4.34,2.93-1.25,1.24-2.23,2.69-2.96,4.34-.73,1.65-1.09,3.42-1.09,5.31s.36,3.65,1.09,5.28c.73,1.63,1.71,3.06,2.96,4.28,1.24,1.22,2.69,2.19,4.34,2.89,1.65.71,3.42,1.06,5.31,1.06,1.63,0,3.28-.34,4.95-1.03,1.67-.69,3.26-1.65,4.76-2.89l2.57,2.64Z" style="fill:#fff;"/><path d="M462.28,77.86v3.6h-12.74v30.24h-3.67v-30.24h-12.87v-3.6h29.27Z" style="fill:#fff;"/><path d="M470.51,77.86v33.84h-3.67v-33.84h3.67Z" style="fill:#fff;"/><path d="M503.32,77.92v35.13l-22.64-26.95v25.6h-3.15v-34.61l22.58,26.96v-26.12h3.22Z" style="fill:#fff;"/><path d="M542.89,90.34c0,.22.01.55.03,1,.02.45.03.85.03,1.19v1.48c0,1.33-.1,2.68-.29,4.05-.19,1.37-.5,2.55-.93,3.54-.73,1.55-1.66,2.95-2.8,4.21-1.14,1.27-2.4,2.36-3.79,3.28-1.39.92-2.86,1.64-4.41,2.15-1.54.52-3.11.77-4.7.77-2.32,0-4.51-.46-6.59-1.38-2.08-.92-3.9-2.17-5.46-3.76-1.56-1.59-2.78-3.42-3.67-5.5-.89-2.08-1.33-4.28-1.33-6.59s.45-4.6,1.36-6.72c.91-2.12,2.15-3.97,3.73-5.53,1.58-1.56,3.4-2.81,5.46-3.73,2.06-.92,4.22-1.38,6.5-1.38,1.11,0,2.3.16,3.57.48,1.26.32,2.67.78,4.21,1.38l-.84,3.86c-1.46-.77-2.76-1.3-3.89-1.58-1.14-.28-2.14-.42-2.99-.42-1.89,0-3.65.39-5.28,1.16-1.63.77-3.06,1.79-4.28,3.06-1.22,1.27-2.18,2.71-2.86,4.34-.69,1.63-1.03,3.33-1.03,5.08,0,1.93.36,3.71,1.09,5.34.73,1.63,1.72,3.06,2.96,4.28,1.24,1.22,2.67,2.18,4.28,2.86,1.61.69,3.29,1.03,5.05,1.03,2.53,0,4.91-.74,7.14-2.22,2.23-1.48,3.95-3.44,5.15-5.89v.06c.3-.86.56-1.81.77-2.86.21-1.05.32-2.15.32-3.31h-11.96v-3.73h15.44Z" style="fill:#fff;"/><path d="M595.45,77.86v3.6h-12.74v30.24h-3.67v-30.24h-12.87v-3.6h29.27Z" style="fill:#fff;"/><path d="M623.24,94.2h-19.17v17.5h-3.67v-33.84h3.67v12.61h19.17v-12.61h3.67v33.84h-3.67v-17.5Z" style="fill:#fff;"/><path d="M634.95,111.7v-33.84h19.94v3.6h-16.27v8.62h10.94v3.6h-10.94v14.28h17.37v3.73h-21.04Z" style="fill:#fff;"/><path d="M258.83,146.95l3.77,9.26c.49-1.2.98-2.35,1.45-3.44.47-1.09.87-2.07,1.2-2.93.41-.98.8-1.91,1.17-2.76l3.21,1.48-5.06,12.42c.7,1.76,1.41,3.4,2.13,4.92.72,1.52,1.45,3.02,2.19,4.5.74,1.48,1.47,2.99,2.19,4.54.72,1.54,1.45,3.22,2.19,5.02.49-1.2,1.09-2.61,1.79-4.25.7-1.63,1.45-3.34,2.25-5.15.8-1.8,1.61-3.67,2.44-5.6.82-1.93,1.65-3.79,2.47-5.6,1.89-4.25,3.85-8.66,5.87-13.25l3.21,1.54-18.03,41.82-10.68-23.87-10.56,23.87-18.03-41.82,3.21-1.54,14.82,33.9,8.65-19.04c-.82-2.06-1.68-4.16-2.56-6.31-.89-2.14-1.74-4.25-2.56-6.3l3.27-1.42Z" style="fill:#fff;"/><path d="M306.98,154.73c2.27,0,4.41.45,6.43,1.35,2.02.9,3.77,2.15,5.26,3.73,1.48,1.59,2.66,3.43,3.53,5.53.87,2.1,1.3,4.33,1.3,6.69s-.43,4.64-1.3,6.72c-.87,2.08-2.04,3.9-3.53,5.47-1.48,1.56-3.24,2.8-5.26,3.7-2.02.9-4.17,1.35-6.43,1.35s-4.47-.45-6.47-1.35c-2-.9-3.76-2.13-5.29-3.7-1.53-1.57-2.72-3.39-3.59-5.47-.87-2.08-1.3-4.32-1.3-6.72s.43-4.59,1.3-6.69,2.06-3.95,3.59-5.53c1.53-1.59,3.29-2.83,5.29-3.73,2-.9,4.16-1.35,6.47-1.35ZM319.97,172.04c0-1.89-.34-3.66-1.02-5.31-.68-1.65-1.62-3.09-2.81-4.31-1.2-1.22-2.59-2.19-4.17-2.9-1.59-.71-3.26-1.06-5.03-1.06s-3.52.35-5.12,1.06c-1.61.71-3,1.67-4.17,2.9-1.17,1.22-2.1,2.66-2.78,4.31-.68,1.65-1.02,3.42-1.02,5.31s.34,3.64,1.02,5.28c.68,1.63,1.61,3.06,2.78,4.28,1.17,1.22,2.56,2.19,4.17,2.89,1.61.71,3.31,1.06,5.12,1.06s3.45-.36,5.03-1.06c1.58-.71,2.97-1.67,4.17-2.89,1.19-1.22,2.13-2.65,2.81-4.28.68-1.63,1.02-3.39,1.02-5.28Z" style="fill:#fff;"/><path d="M332.39,176.29v12.61h-3.4v-33.84h9.45c1.44,0,2.78.3,4.01.9,1.24.6,2.3,1.39,3.18,2.38.89.98,1.59,2.11,2.1,3.37.51,1.26.77,2.58.77,3.95,0,2.1-.46,4-1.39,5.69-.93,1.69-2.32,2.94-4.17,3.76l2.9,3.87c.49.64,1.06,1.41,1.7,2.29.64.88,1.3,1.78,1.98,2.71.68.92,1.33,1.81,1.95,2.67.62.86,1.15,1.61,1.61,2.25h-4.45l-9.39-12.61h-6.86ZM332.39,158.66v13.9h6.05c.91,0,1.77-.18,2.59-.54.82-.36,1.53-.85,2.13-1.47.6-.62,1.07-1.34,1.42-2.18.35-.83.53-1.72.53-2.66s-.18-1.9-.53-2.75c-.35-.85-.82-1.6-1.42-2.24s-1.31-1.14-2.13-1.5-1.69-.55-2.59-.55h-6.05Z" style="fill:#fff;"/><path d="M377.47,185.16v3.73h-21.62v-33.84h3.52v30.11h18.1Z" style="fill:#fff;"/><path d="M390.94,155.06c2.22,0,4.33.45,6.3,1.35,1.98.9,3.69,2.12,5.16,3.67,1.46,1.54,2.61,3.34,3.46,5.4.84,2.06,1.26,4.25,1.26,6.56s-.42,4.5-1.26,6.56c-.84,2.06-2,3.85-3.46,5.37-1.46,1.52-3.18,2.72-5.16,3.6-1.98.88-4.08,1.32-6.3,1.32h-10.19v-33.84h10.19ZM403.72,172.01c0-1.84-.34-3.56-1.02-5.17-.68-1.6-1.59-3.01-2.74-4.23-1.15-1.22-2.49-2.18-4.03-2.89-1.54-.71-3.19-1.06-4.96-1.06h-6.71v26.51h6.71c1.76,0,3.42-.34,4.96-1.03,1.54-.68,2.88-1.61,4.03-2.79,1.15-1.18,2.06-2.57,2.74-4.17.68-1.61,1.02-3.33,1.02-5.17Z" style="fill:#fff;"/><path d="M451.09,158.66h-15.19v8.75h11.98v3.6h-11.98v17.88h-3.52v-33.84h18.71v3.6Z" style="fill:#fff;"/><path d="M457.57,176.29v12.61h-3.4v-33.84h9.45c1.44,0,2.78.3,4.01.9,1.24.6,2.3,1.39,3.18,2.38.89.98,1.59,2.11,2.1,3.37.51,1.26.77,2.58.77,3.95,0,2.1-.46,4-1.39,5.69-.93,1.69-2.32,2.94-4.17,3.76l2.9,3.87c.49.64,1.06,1.41,1.7,2.29.64.88,1.3,1.78,1.98,2.71.68.92,1.33,1.81,1.95,2.67.62.86,1.15,1.61,1.61,2.25h-4.45l-9.39-12.61h-6.86ZM457.57,158.66v13.9h6.05c.91,0,1.77-.18,2.59-.54s1.53-.85,2.13-1.47c.6-.62,1.07-1.34,1.42-2.18.35-.83.53-1.72.53-2.66s-.18-1.9-.53-2.75c-.35-.85-.82-1.6-1.42-2.24-.6-.64-1.31-1.14-2.13-1.5-.82-.36-1.69-.55-2.59-.55h-6.05Z" style="fill:#fff;"/><path d="M494.72,154.73c2.27,0,4.41.45,6.43,1.35,2.02.9,3.77,2.15,5.26,3.73,1.48,1.59,2.66,3.43,3.53,5.53.87,2.1,1.3,4.33,1.3,6.69s-.43,4.64-1.3,6.72c-.87,2.08-2.04,3.9-3.53,5.47-1.48,1.56-3.24,2.8-5.26,3.7-2.02.9-4.17,1.35-6.43,1.35s-4.47-.45-6.47-1.35c-2-.9-3.76-2.13-5.29-3.7-1.53-1.57-2.72-3.39-3.59-5.47-.87-2.08-1.3-4.32-1.3-6.72s.43-4.59,1.3-6.69c.87-2.1,2.06-3.95,3.59-5.53,1.53-1.59,3.29-2.83,5.29-3.73,2-.9,4.16-1.35,6.47-1.35ZM507.72,172.04c0-1.89-.34-3.66-1.02-5.31-.68-1.65-1.62-3.09-2.81-4.31-1.2-1.22-2.59-2.19-4.17-2.9-1.59-.71-3.26-1.06-5.03-1.06s-3.52.35-5.12,1.06c-1.61.71-3,1.67-4.17,2.9-1.17,1.22-2.1,2.66-2.78,4.31-.68,1.65-1.02,3.42-1.02,5.31s.34,3.64,1.02,5.28c.68,1.63,1.61,3.06,2.78,4.28,1.17,1.22,2.56,2.19,4.17,2.89,1.61.71,3.31,1.06,5.12,1.06s3.45-.36,5.03-1.06c1.58-.71,2.97-1.67,4.17-2.89,1.19-1.22,2.13-2.65,2.81-4.28.68-1.63,1.02-3.39,1.02-5.28Z" style="fill:#fff;"/><path d="M545.46,154.48v34.42h-3.52v-24.25c-.58.77-1.16,1.55-1.76,2.35-.59.8-1.18,1.58-1.75,2.35l-7.02,9.07-10.71-13.96v24.45h-3.52v-34.61l14.21,18.33,14.08-18.14Z" style="fill:#fff;"/><path d="M596.78,155.06v3.6h-12.23v30.24h-3.52v-30.24h-12.35v-3.6h28.1Z" style="fill:#fff;"/><path d="M622.53,171.4h-18.4v17.5h-3.52v-33.84h3.52v12.61h18.4v-12.61h3.52v33.84h-3.52v-17.5Z" style="fill:#fff;"/><path d="M632.84,188.89v-33.84h19.14v3.6h-15.62v8.62h10.5v3.6h-10.5v14.28h16.68v3.73h-20.2Z" style="fill:#fff;"/><path d="M704.67,177.09c0,1.98-.4,3.73-1.2,5.26-.8,1.53-1.89,2.81-3.27,3.84-1.38,1.03-2.99,1.82-4.82,2.36-1.83.54-3.78.81-5.84.81-.86,0-1.83-.06-2.9-.19-1.07-.13-2.17-.31-3.3-.55-1.13-.23-2.26-.52-3.4-.84-1.13-.32-2.21-.68-3.24-1.06l1.48-3.09,1.98.45c.49.13,1.07.28,1.73.45.66.17,1.36.32,2.1.45s1.48.25,2.22.35c.74.11,1.42.16,2.04.16h2.53c1.36,0,2.66-.19,3.89-.58,1.23-.39,2.33-.95,3.27-1.7.95-.75,1.7-1.67,2.25-2.77.56-1.09.83-2.35.83-3.76,0-.6-.14-1.26-.43-1.99-.29-.73-.6-1.33-.93-1.8v.06c-.58-.81-1.22-1.47-1.94-1.96-.72-.49-1.46-.87-2.22-1.12-.76-.26-1.56-.44-2.41-.55-.84-.11-1.68-.2-2.5-.29-1.4-.09-2.82-.23-4.26-.42-1.44-.19-2.82-.72-4.14-1.58v.06c-1.48-.86-2.71-2.1-3.67-3.73-.97-1.63-1.45-3.48-1.45-5.53,0-2.83,1-5.25,3-7.27,2-2.01,4.66-3.39,8-4.12h-.06c.49-.08,1.22-.18,2.19-.29s2.05-.16,3.24-.16c.66,0,1.42.08,2.28.22s1.76.33,2.69.54c.93.21,1.84.47,2.75.76.91.3,1.73.59,2.47.89l-1.42,3.45c-1.07-.39-2.05-.72-2.93-1-.89-.28-1.73-.49-2.53-.64s-1.59-.27-2.35-.36c-.76-.08-1.55-.13-2.38-.13-1.28,0-2.59.16-3.92.48-1.34.32-2.56.8-3.67,1.45-1.11.64-2.03,1.48-2.75,2.51-.72,1.03-1.08,2.25-1.08,3.67,0,.47.08.98.25,1.51.17.54.39,1.06.68,1.58.29.52.62,1.01.99,1.48.37.47.77.86,1.18,1.16,1.07.69,2.2,1.12,3.37,1.32s2.36.33,3.56.42c1.4.09,2.92.3,4.55.65,1.63.34,3.15.97,4.55,1.87.74.52,1.41,1.13,2.01,1.84.6.71,1.11,1.47,1.55,2.29.43.82.77,1.67,1.02,2.55.25.88.37,1.75.37,2.61Z" style="fill:#fff;"/><path d="M736.72,186.96l-2.78,2.38-16.55-15.83-.12.13v15.25h-3.4v-33.84h3.4v13.51c2.51-2.32,5.05-4.65,7.63-7.01,2.57-2.36,5.1-4.7,7.57-7.01l2.53,2.64-14.94,13.83,16.67,15.95Z" style="fill:#fff;"/><path d="M745.06,155.06v33.84h-3.52v-33.84h3.52Z" style="fill:#fff;"/><path d="M752.97,188.89v-33.84h19.14v3.6h-15.62v8.62h10.5v3.6h-10.5v14.28h16.68v3.73h-20.2Z" style="fill:#fff;"/><path d="M798.6,179.37c0,1.59-.32,2.99-.96,4.21-.64,1.22-1.5,2.25-2.59,3.09-1.09.84-2.38,1.47-3.86,1.9-1.48.43-3.05.64-4.69.64-.7,0-1.47-.07-2.31-.2-.84-.13-1.73-.29-2.66-.49-.93-.2-1.84-.41-2.75-.65-.91-.24-1.75-.49-2.53-.75l.93-3.18c1.44.34,2.93.69,4.48,1.03,1.54.34,2.83.52,3.86.52h1.98c1.03,0,2.01-.14,2.93-.42s1.75-.68,2.47-1.22c.72-.53,1.29-1.21,1.7-2.02.41-.81.62-1.75.62-2.83,0-.51-.1-1.04-.31-1.57-.21-.53-.43-.97-.68-1.32-.37-.51-.83-.93-1.36-1.25-.53-.32-1.12-.6-1.76-.83s-1.29-.41-1.94-.51c-.66-.11-1.28-.18-1.85-.23-1.15-.04-2.31-.17-3.46-.38-1.15-.21-2.26-.62-3.34-1.22-1.15-.77-2.14-1.82-2.96-3.15-.83-1.33-1.23-2.78-1.23-4.37,0-2.31.82-4.28,2.47-5.91,1.65-1.62,3.83-2.74,6.55-3.34.45-.08,1.09-.18,1.91-.29.82-.11,1.61-.16,2.35-.16.49,0,1.08.06,1.76.19.68.13,1.4.29,2.16.48.76.19,1.51.42,2.25.68.74.26,1.4.49,1.98.71l-.49,1.67c-.08.17-.14.35-.19.55s-.1.53-.19,1c-1.73-.6-3.23-1.03-4.51-1.29-1.28-.26-2.57-.39-3.89-.39-.99,0-2,.12-3.03.35-1.03.23-1.98.61-2.84,1.12-.86.52-1.58,1.16-2.13,1.93-.56.77-.83,1.69-.83,2.76,0,.64.23,1.38.68,2.22s1.03,1.51,1.73,2.03c.7.47,1.42.77,2.16.9.74.13,1.5.23,2.28.32l-.06-.06h.43s.07.01.09.03.05.03.09.03h.06-.06.06c1.19.09,2.45.29,3.77.61,1.32.32,2.57.87,3.77,1.64,1.15.81,2.1,1.91,2.84,3.28.74,1.37,1.11,2.75,1.11,4.12Z" style="fill:#fff;"/><path d="M1.47,188.96L1.34,1.34M54.42,188.96L1.34,1.34M107.36,188.96L1.34,1.34M160.31,188.96L1.34,1.34M1.34,1.34l211.91,187.62M213.12,188.92l.13-123.8M160.17,188.92l53.08-123.8M107.23,188.92l106.02-123.8M54.28,188.92l158.97-123.8M213.25,65.12L1.34,188.92" style="fill:none; stroke:url(#linear-gradient); stroke-linecap:round; stroke-linejoin:round; stroke-width:2.68px;"/></g></svg>