<svg xmlns="http://www.w3.org/2000/svg" xmlns:xlink="http://www.w3.org/1999/xlink" width="2000" zoomAndPan="magnify" viewBox="0 0 1500 1499.999933" height="2000" preserveAspectRatio="xMidYMid meet" version="1.0"><defs><g/></defs><g fill="#ffffff" fill-opacity="1"><g transform="translate(693.488033, 506.890275)"><g><path d="M 137.96875 0 C 137.96875 38.832031 131.785156 69.960938 119.421875 93.390625 C 109.441406 112.910156 95.234375 127.117188 76.796875 136.015625 C 62.472656 142.953125 46.421875 146.421875 28.640625 146.421875 L 28.640625 133.40625 C 38.179688 133.40625 48.050781 129.285156 58.25 121.046875 C 70.613281 111.066406 80.484375 97.507812 87.859375 80.375 C 96.742188 59.539062 101.1875 35.566406 101.1875 8.453125 L 101.1875 -98.265625 C 101.1875 -110.191406 98.476562 -118.328125 93.0625 -122.671875 C 88.5 -124.835938 84.160156 -127.003906 80.046875 -129.171875 L 80.046875 -140.234375 C 84.160156 -140.234375 89.6875 -143 96.625 -148.53125 C 103.570312 -154.0625 108.726562 -160.40625 112.09375 -167.5625 C 115.457031 -174.726562 119.523438 -180.914062 124.296875 -186.125 C 125.816406 -187.632812 127.769531 -189.476562 130.15625 -191.65625 L 137.96875 -191.65625 Z M 137.96875 0 "/></g></g></g><g fill="#ffffff" fill-opacity="1"><g transform="translate(859.754377, 506.890275)"><g><path d="M 86.21875 -413.5625 C 80.800781 -409.21875 76.570312 -404.335938 73.53125 -398.921875 C 67.894531 -389.585938 65.078125 -378.632812 65.078125 -366.0625 L 65.078125 -352.71875 C 57.046875 -352.71875 49.722656 -350.707031 43.109375 -346.6875 C 36.492188 -342.675781 31.671875 -337.414062 28.640625 -330.90625 L 28.640625 -475.703125 L 36.4375 -475.703125 C 37.957031 -474.617188 39.046875 -473.753906 39.703125 -473.109375 C 45.117188 -467.898438 50 -460.738281 54.34375 -451.625 C 57.59375 -444.6875 62.90625 -438.289062 70.28125 -432.4375 C 77.007812 -427.007812 82.320312 -424.296875 86.21875 -424.296875 Z M 147.71875 0 L 28.640625 0 L 28.640625 -287.640625 C 28.640625 -303.691406 32.328125 -316.867188 39.703125 -327.171875 C 47.078125 -337.472656 57.8125 -342.625 71.90625 -342.625 C 84.050781 -342.625 93.707031 -336.984375 100.875 -325.703125 C 105.644531 -318.328125 109.222656 -309.21875 111.609375 -298.375 L 108.03125 -295.765625 C 103.257812 -301.847656 99.570312 -305.972656 96.96875 -308.140625 C 91.539062 -312.910156 85.898438 -315.296875 80.046875 -315.296875 C 73.316406 -315.296875 68.867188 -310.523438 66.703125 -300.984375 C 65.617188 -296.640625 65.078125 -292.191406 65.078125 -287.640625 L 65.078125 -37.421875 C 69.847656 -38.503906 74.1875 -41.539062 78.09375 -46.53125 C 80.476562 -50.21875 82.972656 -54.015625 85.578125 -57.921875 L 96.3125 -57.921875 C 96.3125 -53.796875 99.078125 -48.257812 104.609375 -41.3125 C 110.140625 -34.375 116.535156 -29.171875 123.796875 -25.703125 C 131.066406 -22.234375 137.304688 -18.113281 142.515625 -13.34375 C 144.035156 -11.820312 145.769531 -9.976562 147.71875 -7.8125 Z M 147.71875 0 "/></g></g></g><g fill="#ffffff" fill-opacity="1"><g transform="translate(1036.107303, 506.890275)"><g><path d="M 321.484375 0 C 321.484375 23.425781 317.796875 41 310.421875 52.71875 C 301.523438 66.382812 286.878906 73.21875 266.484375 73.21875 C 246.316406 73.21875 231.894531 66.488281 223.21875 53.03125 C 215.40625 41.101562 211.5 23.425781 211.5 0 L 65.078125 0 C 65.078125 3.25 66.863281 7.207031 70.4375 11.875 C 74.019531 16.539062 79.28125 21.691406 86.21875 27.328125 L 86.21875 38.390625 C 82.320312 38.390625 76.898438 41.15625 69.953125 46.6875 C 63.015625 52.21875 57.804688 58.617188 54.328125 65.890625 C 50.859375 73.160156 46.738281 79.289062 41.96875 84.28125 C 40.457031 85.789062 38.613281 87.632812 36.4375 89.8125 L 28.640625 89.8125 L 28.640625 -36.4375 L 248.265625 -36.4375 L 248.265625 0 C 248.265625 12.144531 249.617188 21.253906 252.328125 27.328125 C 255.046875 33.398438 259.765625 36.4375 266.484375 36.4375 C 273.210938 36.4375 277.929688 33.34375 280.640625 27.15625 C 283.347656 20.976562 284.703125 11.925781 284.703125 0 L 284.703125 -109.984375 C 284.703125 -121.910156 283.347656 -130.960938 280.640625 -137.140625 C 277.929688 -143.328125 273.210938 -146.421875 266.484375 -146.421875 C 259.765625 -146.421875 255.046875 -143.4375 252.328125 -137.46875 C 249.617188 -131.507812 248.265625 -122.347656 248.265625 -109.984375 L 248.265625 -73.21875 L 28.640625 -73.21875 L 28.640625 -199.453125 L 36.4375 -199.453125 C 37.957031 -198.367188 39.046875 -197.503906 39.703125 -196.859375 C 45.117188 -191.648438 50 -184.488281 54.34375 -175.375 C 57.59375 -168.4375 62.90625 -162.039062 70.28125 -156.1875 C 77.007812 -150.757812 82.320312 -148.046875 86.21875 -148.046875 L 86.21875 -137.3125 C 78.84375 -131.457031 74.613281 -127.769531 73.53125 -126.25 C 67.894531 -120.394531 65.078125 -114.972656 65.078125 -109.984375 L 211.5 -109.984375 C 211.5 -133.410156 215.296875 -150.867188 222.890625 -162.359375 C 231.566406 -176.023438 246.097656 -182.859375 266.484375 -182.859375 C 286.660156 -182.859375 301.195312 -176.132812 310.09375 -162.6875 C 317.6875 -150.976562 321.484375 -133.410156 321.484375 -109.984375 Z M 321.484375 0 "/></g></g></g><g fill="#ffffff" fill-opacity="1"><g transform="translate(36.612736, 1157.885004)"><g><path d="M 206.5 -550.25 C 206.5 -535.695312 201.300781 -523.21875 190.90625 -512.8125 C 180.507812 -502.414062 168.03125 -497.21875 153.46875 -497.21875 C 138.914062 -497.21875 126.4375 -502.414062 116.03125 -512.8125 C 105.632812 -523.21875 100.4375 -535.695312 100.4375 -550.25 C 100.4375 -565.226562 105.632812 -577.914062 116.03125 -588.3125 C 126.4375 -598.707031 138.914062 -603.90625 153.46875 -603.90625 C 168.03125 -603.90625 180.507812 -598.707031 190.90625 -588.3125 C 201.300781 -577.914062 206.5 -565.226562 206.5 -550.25 Z M 206.5 -404.265625 C 206.5 -389.710938 201.300781 -377.128906 190.90625 -366.515625 C 180.507812 -355.910156 168.03125 -350.609375 153.46875 -350.609375 C 138.914062 -350.609375 126.4375 -355.910156 116.03125 -366.515625 C 105.632812 -377.128906 100.4375 -389.710938 100.4375 -404.265625 C 100.4375 -418.828125 105.632812 -431.304688 116.03125 -441.703125 C 126.4375 -452.097656 138.914062 -457.296875 153.46875 -457.296875 C 168.03125 -457.296875 180.507812 -452.097656 190.90625 -441.703125 C 201.300781 -431.304688 206.5 -418.828125 206.5 -404.265625 Z M 265.140625 -69.875 L 265.140625 -273.875 C 258.484375 -261.394531 244.550781 -246.21875 223.34375 -228.34375 C 223.34375 -228.34375 204.628906 -212.535156 167.203125 -180.921875 C 151.390625 -165.953125 140.363281 -149.734375 134.125 -132.265625 C 127.894531 -114.796875 124.78125 -94 124.78125 -69.875 Z M 54.90625 0 L 54.90625 -59.890625 C 54.90625 -96.910156 60.101562 -129.144531 70.5 -156.59375 C 80.894531 -184.039062 98.988281 -208.992188 124.78125 -231.453125 C 124.78125 -231.453125 143.910156 -247.675781 182.171875 -280.125 C 207.128906 -303 226.050781 -324.207031 238.9375 -343.75 C 256.40625 -370.375 265.140625 -396.160156 265.140625 -421.109375 L 265.140625 -540.890625 C 265.140625 -559.191406 261.8125 -576.140625 255.15625 -591.734375 C 248.507812 -607.335938 238.320312 -620.546875 224.59375 -631.359375 L 224.59375 -652.5625 C 232.5 -652.5625 243.101562 -657.863281 256.40625 -668.46875 C 269.71875 -679.082031 279.703125 -691.351562 286.359375 -705.28125 C 293.015625 -719.21875 300.914062 -730.96875 310.0625 -740.53125 C 312.976562 -743.445312 316.515625 -746.984375 320.671875 -751.140625 L 335.640625 -751.140625 L 335.640625 -69.875 L 373.078125 -69.875 L 373.078125 0 Z M 54.90625 0 "/></g></g></g><g fill="#ffffff" fill-opacity="1"><g transform="translate(409.031715, 1157.885004)"><g><path d="M 91.078125 -69.875 L 91.078125 -540.890625 C 91.078125 -554.203125 89.414062 -565.226562 86.09375 -573.96875 C 81.519531 -586.851562 73.617188 -593.296875 62.390625 -593.296875 C 50.742188 -593.296875 39.929688 -589.140625 29.953125 -580.828125 C 26.203125 -577.492188 19.128906 -569.175781 8.734375 -555.875 L 2.5 -560.859375 C 6.65625 -582.484375 13.097656 -599.953125 21.828125 -613.265625 C 35.972656 -634.890625 54.691406 -645.703125 77.984375 -645.703125 C 104.597656 -645.703125 125.394531 -635.515625 140.375 -615.140625 C 154.09375 -596.003906 160.953125 -571.253906 160.953125 -540.890625 L 160.953125 -69.875 L 213.984375 -69.875 L 213.984375 0 L 0 0 L 0 -69.875 Z M 160.953125 -623.25 C 155.128906 -635.3125 145.769531 -645.289062 132.875 -653.1875 C 119.988281 -661.09375 106.054688 -665.046875 91.078125 -665.046875 L 91.078125 -701.859375 C 91.078125 -720.160156 87.644531 -737.210938 80.78125 -753.015625 C 73.925781 -768.816406 63.84375 -782.125 50.53125 -792.9375 L 50.53125 -813.53125 C 58.019531 -813.53125 68.414062 -818.832031 81.71875 -829.4375 C 95.03125 -840.039062 105.015625 -852.304688 111.671875 -866.234375 C 118.328125 -880.171875 126.226562 -892.132812 135.375 -902.125 C 138.289062 -905.03125 142.035156 -908.351562 146.609375 -912.09375 L 160.953125 -912.09375 Z M 160.953125 -623.25 "/></g></g></g><g fill="#ffffff" fill-opacity="1"><g transform="translate(622.377213, 1157.885004)"><g><path d="M 218.359375 0 L 0 0 L 0 -69.875 L 105.4375 -69.875 L 105.4375 -280.75 C 105.4375 -301.957031 100.03125 -322.125 89.21875 -341.25 C 82.144531 -354.144531 74.03125 -364.335938 64.875 -371.828125 L 64.875 -392.421875 C 72.363281 -392.421875 82.765625 -397.722656 96.078125 -408.328125 C 109.390625 -418.929688 119.367188 -431.195312 126.015625 -445.125 C 132.671875 -459.0625 140.578125 -471.019531 149.734375 -481 C 152.640625 -483.914062 156.378906 -487.453125 160.953125 -491.609375 L 175.3125 -491.609375 L 175.3125 -69.875 L 218.359375 -69.875 Z M 173.4375 123.53125 C 173.4375 138.082031 168.238281 150.554688 157.84375 160.953125 C 147.445312 171.359375 134.757812 176.5625 119.78125 176.5625 C 105.226562 176.5625 92.75 171.359375 82.34375 160.953125 C 71.945312 150.554688 66.75 138.082031 66.75 123.53125 C 66.75 108.96875 71.945312 96.382812 82.34375 85.78125 C 92.75 75.175781 105.226562 69.875 119.78125 69.875 C 134.757812 69.875 147.445312 75.175781 157.84375 85.78125 C 168.238281 96.382812 173.4375 108.96875 173.4375 123.53125 Z M 173.4375 263.890625 C 173.4375 278.453125 168.238281 290.929688 157.84375 301.328125 C 147.445312 311.722656 134.757812 316.921875 119.78125 316.921875 C 105.226562 316.921875 92.75 311.722656 82.34375 301.328125 C 71.945312 290.929688 66.75 278.453125 66.75 263.890625 C 66.75 249.335938 71.945312 236.863281 82.34375 226.46875 C 92.75 216.070312 105.226562 210.875 119.78125 210.875 C 134.757812 210.875 147.445312 216.070312 157.84375 226.46875 C 168.238281 236.863281 173.4375 249.335938 173.4375 263.890625 Z M 173.4375 263.890625 "/></g></g></g><g fill="#ffffff" fill-opacity="1"><g transform="translate(840.089523, 1157.885004)"><g><path d="M 334.390625 -594.546875 C 334.390625 -579.992188 329.191406 -567.410156 318.796875 -556.796875 C 308.398438 -546.191406 295.921875 -540.890625 281.359375 -540.890625 C 266.804688 -540.890625 254.332031 -546.191406 243.9375 -556.796875 C 233.539062 -567.410156 228.34375 -579.992188 228.34375 -594.546875 C 228.34375 -609.109375 233.539062 -621.585938 243.9375 -631.984375 C 254.332031 -642.378906 266.804688 -647.578125 281.359375 -647.578125 C 295.921875 -647.578125 308.398438 -642.378906 318.796875 -631.984375 C 329.191406 -621.585938 334.390625 -609.109375 334.390625 -594.546875 Z M 404.265625 -474.140625 C 404.265625 -459.585938 399.066406 -447.109375 388.671875 -436.703125 C 378.273438 -426.304688 365.585938 -421.109375 350.609375 -421.109375 C 336.054688 -421.109375 323.582031 -426.304688 313.1875 -436.703125 C 302.789062 -447.109375 297.59375 -459.585938 297.59375 -474.140625 C 297.59375 -488.703125 302.789062 -501.285156 313.1875 -511.890625 C 323.582031 -522.492188 336.054688 -527.796875 350.609375 -527.796875 C 365.585938 -527.796875 378.273438 -522.492188 388.671875 -511.890625 C 399.066406 -501.285156 404.265625 -488.703125 404.265625 -474.140625 Z M 263.890625 -474.140625 C 263.890625 -459.585938 258.691406 -447.109375 248.296875 -436.703125 C 237.898438 -426.304688 225.425781 -421.109375 210.875 -421.109375 C 195.894531 -421.109375 183.207031 -426.304688 172.8125 -436.703125 C 162.414062 -447.109375 157.21875 -459.585938 157.21875 -474.140625 C 157.21875 -488.703125 162.414062 -501.285156 172.8125 -511.890625 C 183.207031 -522.492188 195.894531 -527.796875 210.875 -527.796875 C 225.425781 -527.796875 237.898438 -522.492188 248.296875 -511.890625 C 258.691406 -501.285156 263.890625 -488.703125 263.890625 -474.140625 Z M 491.609375 0 C 491.609375 44.914062 484.332031 78.601562 469.78125 101.0625 C 453.144531 127.269531 425.273438 140.375 386.171875 140.375 C 347.492188 140.375 319.628906 127.476562 302.578125 101.6875 C 288.023438 78.8125 280.75 44.914062 280.75 0 L 0 0 L 0 -69.875 L 111.046875 -69.875 L 111.046875 -81.109375 C 111.046875 -102.316406 105.640625 -122.488281 94.828125 -141.625 C 87.335938 -154.507812 79.019531 -164.695312 69.875 -172.1875 L 69.875 -192.78125 C 77.78125 -192.78125 88.382812 -198.082031 101.6875 -208.6875 C 115 -219.289062 124.984375 -231.554688 131.640625 -245.484375 C 138.296875 -259.421875 146.195312 -271.378906 155.34375 -281.359375 C 158.257812 -284.273438 161.796875 -287.8125 165.953125 -291.96875 L 180.921875 -291.96875 L 180.921875 -69.875 L 280.75 -69.875 L 280.75 -145.984375 C 280.75 -167.191406 275.546875 -187.15625 265.140625 -205.875 C 257.660156 -219.1875 249.34375 -229.585938 240.1875 -237.078125 L 240.1875 -257.65625 C 247.675781 -257.65625 258.175781 -262.957031 271.6875 -273.5625 C 285.207031 -284.164062 295.191406 -296.4375 301.640625 -310.375 C 308.085938 -324.3125 315.882812 -336.269531 325.03125 -346.25 C 327.945312 -349.15625 331.691406 -352.484375 336.265625 -356.234375 L 350.609375 -356.234375 L 350.609375 0 C 350.609375 23.289062 353.207031 40.757812 358.40625 52.40625 C 363.613281 64.050781 372.867188 69.875 386.171875 69.875 C 399.066406 69.875 408.113281 63.945312 413.3125 52.09375 C 418.507812 40.238281 421.109375 22.875 421.109375 0 L 421.109375 -215.859375 C 421.109375 -234.160156 417.675781 -251.210938 410.8125 -267.015625 C 403.957031 -282.816406 393.875 -296.125 380.5625 -306.9375 L 380.5625 -328.15625 C 388.050781 -328.15625 398.550781 -333.457031 412.0625 -344.0625 C 425.582031 -354.664062 435.566406 -366.832031 442.015625 -380.5625 C 448.460938 -394.289062 456.257812 -406.144531 465.40625 -416.125 C 468.320312 -419.03125 472.066406 -422.566406 476.640625 -426.734375 L 491.609375 -426.734375 Z M 491.609375 0 "/></g></g></g></svg>