<svg xmlns="http://www.w3.org/2000/svg" xmlns:xlink="http://www.w3.org/1999/xlink" width="1000" zoomAndPan="magnify" viewBox="0 0 750 374.999991" height="500" preserveAspectRatio="xMidYMid meet" version="1.0"><defs><g/></defs><g fill="#ffffff" fill-opacity="1"><g transform="translate(415.920948, 176.067713)"><g/></g></g><g fill="#ffffff" fill-opacity="1"><g transform="translate(446.821342, 183.318235)"><g><path d="M 65.1875 -34.484375 L 70.625 -33.21875 L 56.421875 27.265625 C 54.960938 33.503906 52.210938 39.046875 48.171875 43.890625 C 44.140625 48.742188 39.3125 52.484375 33.6875 55.109375 C 28.070312 57.742188 22.046875 59.035156 15.609375 58.984375 L -36.53125 58 L -24.703125 7.640625 L 42.359375 8.953125 C 46.140625 9.054688 49.453125 7.957031 52.296875 5.65625 C 55.140625 3.363281 56.988281 0.410156 57.84375 -3.203125 Z M 65.1875 -34.484375 "/></g></g></g><g fill="#ffffff" fill-opacity="1"><g transform="translate(514.718513, 159.145468)"><g><path d="M 70.71875 -45.4375 L 51.203125 -45.671875 L 54.140625 -58.21875 C 54.703125 -60.59375 55.941406 -62.507812 57.859375 -63.96875 C 59.785156 -65.425781 62 -66.125 64.5 -66.0625 L 70.984375 -65.921875 L 68.875 -56.9375 L 56.65625 -57.03125 C 56.019531 -57.175781 55.613281 -56.875 55.4375 -56.125 C 55.257812 -55.375 55.609375 -54.898438 56.484375 -54.703125 L 72.828125 -54.421875 Z M 70.71875 -45.4375 "/></g></g></g><g fill="#ffffff" fill-opacity="1"><g transform="translate(515.723615, 199.485585)"><g><path d="M -11.59375 91.5 L 0.21875 41.125 L 63.546875 42.375 C 67.222656 42.445312 70.515625 41.335938 73.421875 39.046875 C 76.328125 36.765625 78.203125 33.816406 79.046875 30.203125 L 80.5 24.03125 L 26.78125 23.0625 C 20.75 22.96875 16.035156 20.742188 12.640625 16.390625 C 9.253906 12.046875 8.25 6.9375 9.625 1.0625 L 25.53125 -66.71875 C 26.113281 -69.21875 27.457031 -71.300781 29.5625 -72.96875 C 31.664062 -74.644531 34.03125 -75.441406 36.65625 -75.359375 L 67.671875 -74.609375 C 74.765625 -74.515625 81.035156 -72.476562 86.484375 -68.5 C 91.941406 -64.519531 95.921875 -59.4375 98.421875 -53.25 C 100.929688 -47.070312 101.367188 -40.488281 99.734375 -33.5 L 98.015625 -26.203125 L 115.71875 -25.984375 L 103.90625 24.375 L 86.203125 24.15625 L 77.640625 60.671875 C 76.171875 66.921875 73.414062 72.46875 69.375 77.3125 C 65.332031 82.164062 60.503906 85.910156 54.890625 88.546875 C 49.273438 91.179688 43.242188 92.460938 36.796875 92.390625 Z M 22.125 -27.8125 L 92.359375 -26.53125 L 94.15625 -34.203125 L 23.921875 -35.46875 Z M 22.125 -27.8125 "/></g></g></g><g fill="#ffffff" fill-opacity="1"><g transform="translate(619.646635, 223.870262)"><g><path d="M 90.75 -59.296875 L 76.609375 0.984375 L 0 0 L -5.875 -0.1875 L 5.90625 -50.375 L 24.875 -50.46875 L 36.734375 -101.015625 L 58.765625 -100.609375 C 65.984375 -100.492188 72.285156 -98.453125 77.671875 -94.484375 C 83.066406 -90.515625 87.003906 -85.40625 89.484375 -79.15625 C 91.972656 -72.90625 92.394531 -66.285156 90.75 -59.296875 Z M 32.21875 -58.234375 L 30.421875 -50.546875 L 82.890625 -49.3125 L 84.734375 -57.171875 Z M 32.21875 -58.234375 "/></g></g></g><g fill="#ffffff" fill-opacity="1"><g transform="translate(143.242526, 135.979848)"><g><path d="M 50.703125 -39.28125 L 63.609375 -50.453125 L 74.65625 -37.8125 L 61.890625 -26.375 Z M 50.703125 -39.28125 "/></g></g></g><g fill="#ffffff" fill-opacity="1"><g transform="translate(59.10683, 195.656412)"><g><path d="M 183.890625 -36.0625 L 177.421875 -8.53125 L 191.375 -8.234375 L 179.5625 42.125 L 110.90625 40.84375 C 107.25 40.769531 104.335938 39.328125 102.171875 36.515625 C 100.003906 33.703125 99.328125 30.550781 100.140625 27.0625 L 100.1875 26.859375 L 17.8125 25.109375 C 14.269531 25.085938 11.410156 23.664062 9.234375 20.84375 C 7.054688 18.019531 6.378906 14.859375 7.203125 11.359375 L 24.78125 -63.53125 L 30.03125 -62.296875 L 24.53125 -38.890625 C 23.71875 -35.398438 24.394531 -32.242188 26.5625 -29.421875 C 28.726562 -26.609375 31.648438 -25.164062 35.328125 -25.09375 L 100.1875 -23.703125 L 110.90625 -69.390625 C 111.488281 -71.878906 112.828125 -73.929688 114.921875 -75.546875 C 117.015625 -77.171875 119.367188 -77.945312 121.984375 -77.875 L 151.84375 -77.171875 C 159.0625 -77.054688 165.363281 -75.015625 170.75 -71.046875 C 176.144531 -67.085938 180.09375 -62.015625 182.59375 -55.828125 C 185.09375 -49.640625 185.523438 -43.050781 183.890625 -36.0625 Z M 107.03125 -28.4375 C 106.738281 -27.1875 106.972656 -26.070312 107.734375 -25.09375 C 108.492188 -24.125 109.460938 -23.632812 110.640625 -23.625 L 171.953125 -22.28125 C 173.910156 -22.21875 175.140625 -23.242188 175.640625 -25.359375 C 175.929688 -26.609375 175.722656 -27.675781 175.015625 -28.5625 C 174.304688 -29.457031 173.296875 -29.925781 171.984375 -29.96875 L 110.84375 -31.296875 C 108.769531 -31.390625 107.5 -30.4375 107.03125 -28.4375 Z M 107.03125 -28.4375 "/></g></g></g><g fill="#ffffff" fill-opacity="1"><g transform="translate(257.157636, 183.452681)"><g><path d="M 83.734375 -42.78125 L 70.828125 -31.578125 L 59.765625 -44.25 L 72.53125 -55.6875 Z M 59.71875 -12.859375 L 48.28125 -25.609375 L 61 -36.859375 L 70.71875 -26.09375 L 81.6875 -35.765625 L 93.1875 -23.375 L 80.4375 -11.9375 L 70.578125 -22.953125 Z M 59.71875 -12.859375 "/></g></g></g><g fill="#ffffff" fill-opacity="1"><g transform="translate(238.678319, 237.791378)"><g><path d="M 5.90625 -50.375 L 11.8125 -50.359375 L 154.28125 -47.171875 L 138.25 21.171875 L 132.8125 19.90625 L 136.765625 3.0625 L 0 0 L -5.875 -0.1875 Z M 5.90625 -50.375 "/></g></g></g></svg>