<svg xmlns="http://www.w3.org/2000/svg" xmlns:xlink="http://www.w3.org/1999/xlink" width="2000" zoomAndPan="magnify" viewBox="0 0 1500 899.99999" height="1200" preserveAspectRatio="xMidYMid meet" version="1.0"><defs><g/><clipPath id="a8a46855a6"><path d="M 438 368 L 577 368 L 577 514 L 438 514 Z M 438 368 " clip-rule="nonzero"/></clipPath><clipPath id="2e087b3a56"><path d="M 421.453125 476.253906 L 530.664062 351.265625 L 593.15625 405.871094 L 483.945312 530.859375 Z M 421.453125 476.253906 " clip-rule="nonzero"/></clipPath><clipPath id="7599a57dce"><path d="M 503.363281 382.511719 C 518.441406 365.257812 544.652344 363.492188 561.910156 378.570312 C 579.167969 393.648438 580.933594 419.863281 565.855469 437.117188 L 511.25 499.613281 C 496.171875 516.867188 469.957031 518.632812 452.699219 503.554688 C 435.441406 488.476562 433.675781 462.261719 448.757812 445.007812 Z M 503.363281 382.511719 " clip-rule="nonzero"/></clipPath><clipPath id="e15aaa35a8"><path d="M 421.453125 476.253906 L 530.664062 351.265625 L 593.15625 405.871094 L 483.945312 530.859375 Z M 421.453125 476.253906 " clip-rule="nonzero"/></clipPath><clipPath id="ef6579a163"><path d="M 421.453125 476.253906 L 530.664062 351.265625 L 593.15625 405.871094 L 483.945312 530.859375 Z M 421.453125 476.253906 " clip-rule="nonzero"/></clipPath><radialGradient gradientTransform="matrix(0.657985, -0.753031, 0.753031, 0.657985, 421.453464, 476.252695)" gradientUnits="userSpaceOnUse" r="185.56835" cx="0" id="6f06c111fb" cy="0" fx="0" fy="0"><stop stop-opacity="1" stop-color="rgb(6.286621%, 56.967163%, 27.912903%)" offset="0"/><stop stop-opacity="1" stop-color="rgb(6.262207%, 57.106018%, 28.141785%)" offset="0.00390625"/><stop stop-opacity="1" stop-color="rgb(6.237793%, 57.243347%, 28.370667%)" offset="0.0078125"/><stop stop-opacity="1" stop-color="rgb(6.213379%, 57.382202%, 28.599548%)" offset="0.0117188"/><stop stop-opacity="1" stop-color="rgb(6.188965%, 57.519531%, 28.826904%)" offset="0.015625"/><stop stop-opacity="1" stop-color="rgb(6.164551%, 57.65686%, 29.055786%)" offset="0.0195312"/><stop stop-opacity="1" stop-color="rgb(6.138611%, 57.795715%, 29.284668%)" offset="0.0234375"/><stop stop-opacity="1" stop-color="rgb(6.114197%, 57.933044%, 29.51355%)" offset="0.0273438"/><stop stop-opacity="1" stop-color="rgb(6.089783%, 58.070374%, 29.740906%)" offset="0.03125"/><stop stop-opacity="1" stop-color="rgb(6.065369%, 58.209229%, 29.969788%)" offset="0.0351562"/><stop stop-opacity="1" stop-color="rgb(6.040955%, 58.346558%, 30.198669%)" offset="0.0390625"/><stop stop-opacity="1" stop-color="rgb(6.016541%, 58.485413%, 30.427551%)" offset="0.0429688"/><stop stop-opacity="1" stop-color="rgb(5.992126%, 58.622742%, 30.654907%)" offset="0.046875"/><stop stop-opacity="1" stop-color="rgb(5.966187%, 58.760071%, 30.883789%)" offset="0.0507812"/><stop stop-opacity="1" stop-color="rgb(5.941772%, 58.898926%, 31.112671%)" offset="0.0546875"/><stop stop-opacity="1" stop-color="rgb(5.917358%, 59.036255%, 31.341553%)" offset="0.0585938"/><stop stop-opacity="1" stop-color="rgb(5.892944%, 59.173584%, 31.568909%)" offset="0.0625"/><stop stop-opacity="1" stop-color="rgb(5.86853%, 59.312439%, 31.797791%)" offset="0.0664062"/><stop stop-opacity="1" stop-color="rgb(5.844116%, 59.449768%, 32.026672%)" offset="0.0703125"/><stop stop-opacity="1" stop-color="rgb(5.819702%, 59.587097%, 32.255554%)" offset="0.0742188"/><stop stop-opacity="1" stop-color="rgb(5.795288%, 59.725952%, 32.48291%)" offset="0.078125"/><stop stop-opacity="1" stop-color="rgb(5.769348%, 59.863281%, 32.711792%)" offset="0.0820312"/><stop stop-opacity="1" stop-color="rgb(5.744934%, 60.002136%, 32.940674%)" offset="0.0859375"/><stop stop-opacity="1" stop-color="rgb(5.72052%, 60.139465%, 33.169556%)" offset="0.0898438"/><stop stop-opacity="1" stop-color="rgb(5.696106%, 60.276794%, 33.398438%)" offset="0.09375"/><stop stop-opacity="1" stop-color="rgb(5.671692%, 60.415649%, 33.625793%)" offset="0.0976562"/><stop stop-opacity="1" stop-color="rgb(5.647278%, 60.552979%, 33.854675%)" offset="0.101562"/><stop stop-opacity="1" stop-color="rgb(5.622864%, 60.690308%, 34.083557%)" offset="0.105469"/><stop stop-opacity="1" stop-color="rgb(5.59845%, 60.829163%, 34.312439%)" offset="0.109375"/><stop stop-opacity="1" stop-color="rgb(5.57251%, 60.966492%, 34.539795%)" offset="0.113281"/><stop stop-opacity="1" stop-color="rgb(5.548096%, 61.105347%, 34.768677%)" offset="0.117188"/><stop stop-opacity="1" stop-color="rgb(5.523682%, 61.242676%, 34.997559%)" offset="0.121094"/><stop stop-opacity="1" stop-color="rgb(5.499268%, 61.380005%, 35.22644%)" offset="0.125"/><stop stop-opacity="1" stop-color="rgb(5.474854%, 61.51886%, 35.453796%)" offset="0.128906"/><stop stop-opacity="1" stop-color="rgb(5.450439%, 61.656189%, 35.682678%)" offset="0.132812"/><stop stop-opacity="1" stop-color="rgb(5.426025%, 61.793518%, 35.91156%)" offset="0.136719"/><stop stop-opacity="1" stop-color="rgb(5.401611%, 61.932373%, 36.140442%)" offset="0.140625"/><stop stop-opacity="1" stop-color="rgb(5.375671%, 62.069702%, 36.367798%)" offset="0.144531"/><stop stop-opacity="1" stop-color="rgb(5.351257%, 62.207031%, 36.59668%)" offset="0.148438"/><stop stop-opacity="1" stop-color="rgb(5.326843%, 62.345886%, 36.825562%)" offset="0.152344"/><stop stop-opacity="1" stop-color="rgb(5.302429%, 62.483215%, 37.054443%)" offset="0.15625"/><stop stop-opacity="1" stop-color="rgb(5.278015%, 62.62207%, 37.281799%)" offset="0.160156"/><stop stop-opacity="1" stop-color="rgb(5.253601%, 62.759399%, 37.510681%)" offset="0.164062"/><stop stop-opacity="1" stop-color="rgb(5.229187%, 62.896729%, 37.739563%)" offset="0.167969"/><stop stop-opacity="1" stop-color="rgb(5.204773%, 63.035583%, 37.968445%)" offset="0.171875"/><stop stop-opacity="1" stop-color="rgb(5.178833%, 63.172913%, 38.195801%)" offset="0.175781"/><stop stop-opacity="1" stop-color="rgb(5.154419%, 63.310242%, 38.424683%)" offset="0.179688"/><stop stop-opacity="1" stop-color="rgb(5.130005%, 63.449097%, 38.653564%)" offset="0.183594"/><stop stop-opacity="1" stop-color="rgb(5.105591%, 63.586426%, 38.882446%)" offset="0.1875"/><stop stop-opacity="1" stop-color="rgb(5.081177%, 63.725281%, 39.111328%)" offset="0.191406"/><stop stop-opacity="1" stop-color="rgb(5.056763%, 63.86261%, 39.338684%)" offset="0.195312"/><stop stop-opacity="1" stop-color="rgb(5.032349%, 63.999939%, 39.567566%)" offset="0.199219"/><stop stop-opacity="1" stop-color="rgb(5.006409%, 64.138794%, 39.796448%)" offset="0.203125"/><stop stop-opacity="1" stop-color="rgb(4.981995%, 64.276123%, 40.02533%)" offset="0.207031"/><stop stop-opacity="1" stop-color="rgb(4.957581%, 64.413452%, 40.252686%)" offset="0.210938"/><stop stop-opacity="1" stop-color="rgb(4.933167%, 64.552307%, 40.481567%)" offset="0.214844"/><stop stop-opacity="1" stop-color="rgb(4.908752%, 64.689636%, 40.710449%)" offset="0.21875"/><stop stop-opacity="1" stop-color="rgb(4.884338%, 64.826965%, 40.939331%)" offset="0.222656"/><stop stop-opacity="1" stop-color="rgb(4.859924%, 64.96582%, 41.166687%)" offset="0.226562"/><stop stop-opacity="1" stop-color="rgb(4.83551%, 65.103149%, 41.395569%)" offset="0.230469"/><stop stop-opacity="1" stop-color="rgb(4.80957%, 65.242004%, 41.624451%)" offset="0.234375"/><stop stop-opacity="1" stop-color="rgb(4.785156%, 65.379333%, 41.853333%)" offset="0.238281"/><stop stop-opacity="1" stop-color="rgb(4.760742%, 65.516663%, 42.080688%)" offset="0.242188"/><stop stop-opacity="1" stop-color="rgb(4.736328%, 65.655518%, 42.30957%)" offset="0.246094"/><stop stop-opacity="1" stop-color="rgb(4.711914%, 65.792847%, 42.538452%)" offset="0.25"/><stop stop-opacity="1" stop-color="rgb(4.6875%, 65.930176%, 42.767334%)" offset="0.253906"/><stop stop-opacity="1" stop-color="rgb(4.663086%, 66.069031%, 42.99469%)" offset="0.257812"/><stop stop-opacity="1" stop-color="rgb(4.638672%, 66.20636%, 43.223572%)" offset="0.261719"/><stop stop-opacity="1" stop-color="rgb(4.612732%, 66.345215%, 43.452454%)" offset="0.265625"/><stop stop-opacity="1" stop-color="rgb(4.588318%, 66.482544%, 43.681335%)" offset="0.269531"/><stop stop-opacity="1" stop-color="rgb(4.563904%, 66.619873%, 43.908691%)" offset="0.273438"/><stop stop-opacity="1" stop-color="rgb(4.53949%, 66.758728%, 44.137573%)" offset="0.277344"/><stop stop-opacity="1" stop-color="rgb(4.515076%, 66.896057%, 44.366455%)" offset="0.28125"/><stop stop-opacity="1" stop-color="rgb(4.490662%, 67.033386%, 44.595337%)" offset="0.285156"/><stop stop-opacity="1" stop-color="rgb(4.466248%, 67.172241%, 44.824219%)" offset="0.289062"/><stop stop-opacity="1" stop-color="rgb(4.441833%, 67.30957%, 45.051575%)" offset="0.292969"/><stop stop-opacity="1" stop-color="rgb(4.415894%, 67.446899%, 45.280457%)" offset="0.296875"/><stop stop-opacity="1" stop-color="rgb(4.391479%, 67.585754%, 45.509338%)" offset="0.300781"/><stop stop-opacity="1" stop-color="rgb(4.367065%, 67.723083%, 45.73822%)" offset="0.304688"/><stop stop-opacity="1" stop-color="rgb(4.342651%, 67.861938%, 45.965576%)" offset="0.308594"/><stop stop-opacity="1" stop-color="rgb(4.318237%, 67.999268%, 46.194458%)" offset="0.3125"/><stop stop-opacity="1" stop-color="rgb(4.293823%, 68.136597%, 46.42334%)" offset="0.316406"/><stop stop-opacity="1" stop-color="rgb(4.269409%, 68.275452%, 46.652222%)" offset="0.320312"/><stop stop-opacity="1" stop-color="rgb(4.244995%, 68.412781%, 46.879578%)" offset="0.324219"/><stop stop-opacity="1" stop-color="rgb(4.219055%, 68.55011%, 47.108459%)" offset="0.328125"/><stop stop-opacity="1" stop-color="rgb(4.194641%, 68.688965%, 47.337341%)" offset="0.332031"/><stop stop-opacity="1" stop-color="rgb(4.170227%, 68.826294%, 47.566223%)" offset="0.335938"/><stop stop-opacity="1" stop-color="rgb(4.145813%, 68.965149%, 47.793579%)" offset="0.339844"/><stop stop-opacity="1" stop-color="rgb(4.121399%, 69.102478%, 48.022461%)" offset="0.34375"/><stop stop-opacity="1" stop-color="rgb(4.096985%, 69.239807%, 48.251343%)" offset="0.347656"/><stop stop-opacity="1" stop-color="rgb(4.072571%, 69.378662%, 48.480225%)" offset="0.351562"/><stop stop-opacity="1" stop-color="rgb(4.046631%, 69.515991%, 48.707581%)" offset="0.355469"/><stop stop-opacity="1" stop-color="rgb(4.022217%, 69.65332%, 48.936462%)" offset="0.359375"/><stop stop-opacity="1" stop-color="rgb(3.997803%, 69.792175%, 49.165344%)" offset="0.363281"/><stop stop-opacity="1" stop-color="rgb(3.973389%, 69.929504%, 49.394226%)" offset="0.367188"/><stop stop-opacity="1" stop-color="rgb(3.948975%, 70.066833%, 49.621582%)" offset="0.371094"/><stop stop-opacity="1" stop-color="rgb(3.924561%, 70.205688%, 49.850464%)" offset="0.375"/><stop stop-opacity="1" stop-color="rgb(3.900146%, 70.343018%, 50.079346%)" offset="0.378906"/><stop stop-opacity="1" stop-color="rgb(3.875732%, 70.481873%, 50.308228%)" offset="0.382812"/><stop stop-opacity="1" stop-color="rgb(3.849792%, 70.619202%, 50.537109%)" offset="0.386719"/><stop stop-opacity="1" stop-color="rgb(3.825378%, 70.756531%, 50.764465%)" offset="0.390625"/><stop stop-opacity="1" stop-color="rgb(3.800964%, 70.895386%, 50.993347%)" offset="0.394531"/><stop stop-opacity="1" stop-color="rgb(3.77655%, 71.032715%, 51.222229%)" offset="0.398438"/><stop stop-opacity="1" stop-color="rgb(3.752136%, 71.170044%, 51.451111%)" offset="0.402344"/><stop stop-opacity="1" stop-color="rgb(3.727722%, 71.308899%, 51.678467%)" offset="0.40625"/><stop stop-opacity="1" stop-color="rgb(3.703308%, 71.446228%, 51.907349%)" offset="0.410156"/><stop stop-opacity="1" stop-color="rgb(3.678894%, 71.583557%, 52.13623%)" offset="0.414062"/><stop stop-opacity="1" stop-color="rgb(3.652954%, 71.722412%, 52.365112%)" offset="0.417969"/><stop stop-opacity="1" stop-color="rgb(3.62854%, 71.859741%, 52.592468%)" offset="0.421875"/><stop stop-opacity="1" stop-color="rgb(3.604126%, 71.998596%, 52.82135%)" offset="0.425781"/><stop stop-opacity="1" stop-color="rgb(3.579712%, 72.135925%, 53.050232%)" offset="0.429688"/><stop stop-opacity="1" stop-color="rgb(3.555298%, 72.273254%, 53.279114%)" offset="0.433594"/><stop stop-opacity="1" stop-color="rgb(3.530884%, 72.412109%, 53.50647%)" offset="0.4375"/><stop stop-opacity="1" stop-color="rgb(3.50647%, 72.549438%, 53.735352%)" offset="0.441406"/><stop stop-opacity="1" stop-color="rgb(3.482056%, 72.686768%, 53.964233%)" offset="0.445312"/><stop stop-opacity="1" stop-color="rgb(3.456116%, 72.825623%, 54.193115%)" offset="0.449219"/><stop stop-opacity="1" stop-color="rgb(3.431702%, 72.962952%, 54.420471%)" offset="0.453125"/><stop stop-opacity="1" stop-color="rgb(3.407288%, 73.101807%, 54.649353%)" offset="0.457031"/><stop stop-opacity="1" stop-color="rgb(3.382874%, 73.239136%, 54.878235%)" offset="0.460938"/><stop stop-opacity="1" stop-color="rgb(3.358459%, 73.376465%, 55.107117%)" offset="0.464844"/><stop stop-opacity="1" stop-color="rgb(3.334045%, 73.51532%, 55.334473%)" offset="0.46875"/><stop stop-opacity="1" stop-color="rgb(3.309631%, 73.652649%, 55.563354%)" offset="0.472656"/><stop stop-opacity="1" stop-color="rgb(3.285217%, 73.789978%, 55.792236%)" offset="0.476562"/><stop stop-opacity="1" stop-color="rgb(3.259277%, 73.928833%, 56.021118%)" offset="0.480469"/><stop stop-opacity="1" stop-color="rgb(3.234863%, 74.066162%, 56.25%)" offset="0.484375"/><stop stop-opacity="1" stop-color="rgb(3.210449%, 74.203491%, 56.477356%)" offset="0.488281"/><stop stop-opacity="1" stop-color="rgb(3.186035%, 74.342346%, 56.706238%)" offset="0.492188"/><stop stop-opacity="1" stop-color="rgb(3.161621%, 74.479675%, 56.93512%)" offset="0.496094"/><stop stop-opacity="1" stop-color="rgb(3.137207%, 74.61853%, 57.164001%)" offset="0.5"/><stop stop-opacity="1" stop-color="rgb(3.112793%, 74.755859%, 57.391357%)" offset="0.503906"/><stop stop-opacity="1" stop-color="rgb(3.088379%, 74.893188%, 57.620239%)" offset="0.507812"/><stop stop-opacity="1" stop-color="rgb(3.062439%, 75.032043%, 57.849121%)" offset="0.511719"/><stop stop-opacity="1" stop-color="rgb(3.038025%, 75.169373%, 58.078003%)" offset="0.515625"/><stop stop-opacity="1" stop-color="rgb(3.013611%, 75.306702%, 58.305359%)" offset="0.519531"/><stop stop-opacity="1" stop-color="rgb(2.989197%, 75.445557%, 58.534241%)" offset="0.523438"/><stop stop-opacity="1" stop-color="rgb(2.964783%, 75.582886%, 58.763123%)" offset="0.527344"/><stop stop-opacity="1" stop-color="rgb(2.940369%, 75.721741%, 58.992004%)" offset="0.53125"/><stop stop-opacity="1" stop-color="rgb(2.915955%, 75.85907%, 59.21936%)" offset="0.535156"/><stop stop-opacity="1" stop-color="rgb(2.890015%, 75.996399%, 59.448242%)" offset="0.539062"/><stop stop-opacity="1" stop-color="rgb(2.865601%, 76.135254%, 59.677124%)" offset="0.542969"/><stop stop-opacity="1" stop-color="rgb(2.841187%, 76.272583%, 59.906006%)" offset="0.546875"/><stop stop-opacity="1" stop-color="rgb(2.816772%, 76.409912%, 60.133362%)" offset="0.550781"/><stop stop-opacity="1" stop-color="rgb(2.792358%, 76.548767%, 60.362244%)" offset="0.554688"/><stop stop-opacity="1" stop-color="rgb(2.767944%, 76.686096%, 60.591125%)" offset="0.558594"/><stop stop-opacity="1" stop-color="rgb(2.74353%, 76.823425%, 60.820007%)" offset="0.5625"/><stop stop-opacity="1" stop-color="rgb(2.719116%, 76.96228%, 61.047363%)" offset="0.566406"/><stop stop-opacity="1" stop-color="rgb(2.693176%, 77.099609%, 61.276245%)" offset="0.570312"/><stop stop-opacity="1" stop-color="rgb(2.668762%, 77.238464%, 61.505127%)" offset="0.574219"/><stop stop-opacity="1" stop-color="rgb(2.644348%, 77.375793%, 61.734009%)" offset="0.578125"/><stop stop-opacity="1" stop-color="rgb(2.619934%, 77.513123%, 61.962891%)" offset="0.582031"/><stop stop-opacity="1" stop-color="rgb(2.59552%, 77.651978%, 62.190247%)" offset="0.585938"/><stop stop-opacity="1" stop-color="rgb(2.571106%, 77.789307%, 62.419128%)" offset="0.589844"/><stop stop-opacity="1" stop-color="rgb(2.546692%, 77.926636%, 62.64801%)" offset="0.59375"/><stop stop-opacity="1" stop-color="rgb(2.522278%, 78.065491%, 62.876892%)" offset="0.597656"/><stop stop-opacity="1" stop-color="rgb(2.496338%, 78.20282%, 63.104248%)" offset="0.601562"/><stop stop-opacity="1" stop-color="rgb(2.471924%, 78.341675%, 63.33313%)" offset="0.605469"/><stop stop-opacity="1" stop-color="rgb(2.44751%, 78.479004%, 63.562012%)" offset="0.609375"/><stop stop-opacity="1" stop-color="rgb(2.423096%, 78.616333%, 63.790894%)" offset="0.613281"/><stop stop-opacity="1" stop-color="rgb(2.398682%, 78.755188%, 64.01825%)" offset="0.617188"/><stop stop-opacity="1" stop-color="rgb(2.374268%, 78.892517%, 64.247131%)" offset="0.621094"/><stop stop-opacity="1" stop-color="rgb(2.349854%, 79.029846%, 64.476013%)" offset="0.625"/><stop stop-opacity="1" stop-color="rgb(2.325439%, 79.168701%, 64.704895%)" offset="0.628906"/><stop stop-opacity="1" stop-color="rgb(2.2995%, 79.30603%, 64.932251%)" offset="0.632812"/><stop stop-opacity="1" stop-color="rgb(2.275085%, 79.443359%, 65.161133%)" offset="0.636719"/><stop stop-opacity="1" stop-color="rgb(2.250671%, 79.582214%, 65.390015%)" offset="0.640625"/><stop stop-opacity="1" stop-color="rgb(2.226257%, 79.719543%, 65.618896%)" offset="0.644531"/><stop stop-opacity="1" stop-color="rgb(2.201843%, 79.858398%, 65.846252%)" offset="0.648438"/><stop stop-opacity="1" stop-color="rgb(2.177429%, 79.995728%, 66.075134%)" offset="0.652344"/><stop stop-opacity="1" stop-color="rgb(2.153015%, 80.133057%, 66.304016%)" offset="0.65625"/><stop stop-opacity="1" stop-color="rgb(2.128601%, 80.271912%, 66.532898%)" offset="0.660156"/><stop stop-opacity="1" stop-color="rgb(2.102661%, 80.409241%, 66.760254%)" offset="0.664062"/><stop stop-opacity="1" stop-color="rgb(2.078247%, 80.54657%, 66.989136%)" offset="0.667969"/><stop stop-opacity="1" stop-color="rgb(2.053833%, 80.685425%, 67.218018%)" offset="0.671875"/><stop stop-opacity="1" stop-color="rgb(2.029419%, 80.822754%, 67.446899%)" offset="0.675781"/><stop stop-opacity="1" stop-color="rgb(2.005005%, 80.961609%, 67.675781%)" offset="0.679688"/><stop stop-opacity="1" stop-color="rgb(1.980591%, 81.098938%, 67.903137%)" offset="0.683594"/><stop stop-opacity="1" stop-color="rgb(1.956177%, 81.236267%, 68.132019%)" offset="0.6875"/><stop stop-opacity="1" stop-color="rgb(1.930237%, 81.375122%, 68.360901%)" offset="0.691406"/><stop stop-opacity="1" stop-color="rgb(1.905823%, 81.512451%, 68.589783%)" offset="0.695312"/><stop stop-opacity="1" stop-color="rgb(1.881409%, 81.64978%, 68.817139%)" offset="0.699219"/><stop stop-opacity="1" stop-color="rgb(1.856995%, 81.788635%, 69.046021%)" offset="0.703125"/><stop stop-opacity="1" stop-color="rgb(1.832581%, 81.925964%, 69.274902%)" offset="0.707031"/><stop stop-opacity="1" stop-color="rgb(1.808167%, 82.063293%, 69.503784%)" offset="0.710938"/><stop stop-opacity="1" stop-color="rgb(1.783752%, 82.202148%, 69.73114%)" offset="0.714844"/><stop stop-opacity="1" stop-color="rgb(1.759338%, 82.339478%, 69.960022%)" offset="0.71875"/><stop stop-opacity="1" stop-color="rgb(1.733398%, 82.478333%, 70.188904%)" offset="0.722656"/><stop stop-opacity="1" stop-color="rgb(1.708984%, 82.615662%, 70.417786%)" offset="0.726562"/><stop stop-opacity="1" stop-color="rgb(1.68457%, 82.752991%, 70.645142%)" offset="0.730469"/><stop stop-opacity="1" stop-color="rgb(1.660156%, 82.891846%, 70.874023%)" offset="0.734375"/><stop stop-opacity="1" stop-color="rgb(1.635742%, 83.029175%, 71.102905%)" offset="0.738281"/><stop stop-opacity="1" stop-color="rgb(1.611328%, 83.166504%, 71.331787%)" offset="0.742188"/><stop stop-opacity="1" stop-color="rgb(1.586914%, 83.305359%, 71.559143%)" offset="0.746094"/><stop stop-opacity="1" stop-color="rgb(1.5625%, 83.442688%, 71.788025%)" offset="0.75"/><stop stop-opacity="1" stop-color="rgb(1.53656%, 83.581543%, 72.016907%)" offset="0.753906"/><stop stop-opacity="1" stop-color="rgb(1.512146%, 83.718872%, 72.245789%)" offset="0.757812"/><stop stop-opacity="1" stop-color="rgb(1.487732%, 83.856201%, 72.473145%)" offset="0.761719"/><stop stop-opacity="1" stop-color="rgb(1.463318%, 83.995056%, 72.702026%)" offset="0.765625"/><stop stop-opacity="1" stop-color="rgb(1.438904%, 84.132385%, 72.930908%)" offset="0.769531"/><stop stop-opacity="1" stop-color="rgb(1.41449%, 84.269714%, 73.15979%)" offset="0.773438"/><stop stop-opacity="1" stop-color="rgb(1.390076%, 84.408569%, 73.388672%)" offset="0.777344"/><stop stop-opacity="1" stop-color="rgb(1.365662%, 84.545898%, 73.616028%)" offset="0.78125"/><stop stop-opacity="1" stop-color="rgb(1.339722%, 84.683228%, 73.84491%)" offset="0.785156"/><stop stop-opacity="1" stop-color="rgb(1.315308%, 84.822083%, 74.073792%)" offset="0.789062"/><stop stop-opacity="1" stop-color="rgb(1.290894%, 84.959412%, 74.302673%)" offset="0.792969"/><stop stop-opacity="1" stop-color="rgb(1.266479%, 85.098267%, 74.530029%)" offset="0.796875"/><stop stop-opacity="1" stop-color="rgb(1.242065%, 85.235596%, 74.758911%)" offset="0.800781"/><stop stop-opacity="1" stop-color="rgb(1.217651%, 85.372925%, 74.987793%)" offset="0.804688"/><stop stop-opacity="1" stop-color="rgb(1.193237%, 85.51178%, 75.216675%)" offset="0.808594"/><stop stop-opacity="1" stop-color="rgb(1.168823%, 85.649109%, 75.444031%)" offset="0.8125"/><stop stop-opacity="1" stop-color="rgb(1.142883%, 85.786438%, 75.672913%)" offset="0.816406"/><stop stop-opacity="1" stop-color="rgb(1.118469%, 85.925293%, 75.901794%)" offset="0.820312"/><stop stop-opacity="1" stop-color="rgb(1.094055%, 86.062622%, 76.130676%)" offset="0.824219"/><stop stop-opacity="1" stop-color="rgb(1.069641%, 86.201477%, 76.358032%)" offset="0.828125"/><stop stop-opacity="1" stop-color="rgb(1.045227%, 86.338806%, 76.586914%)" offset="0.832031"/><stop stop-opacity="1" stop-color="rgb(1.020813%, 86.476135%, 76.815796%)" offset="0.835938"/><stop stop-opacity="1" stop-color="rgb(0.996399%, 86.61499%, 77.044678%)" offset="0.839844"/><stop stop-opacity="1" stop-color="rgb(0.970459%, 86.752319%, 77.272034%)" offset="0.84375"/><stop stop-opacity="1" stop-color="rgb(0.946045%, 86.889648%, 77.500916%)" offset="0.847656"/><stop stop-opacity="1" stop-color="rgb(0.921631%, 87.028503%, 77.729797%)" offset="0.851562"/><stop stop-opacity="1" stop-color="rgb(0.897217%, 87.165833%, 77.958679%)" offset="0.855469"/><stop stop-opacity="1" stop-color="rgb(0.872803%, 87.303162%, 78.186035%)" offset="0.859375"/><stop stop-opacity="1" stop-color="rgb(0.848389%, 87.442017%, 78.414917%)" offset="0.863281"/><stop stop-opacity="1" stop-color="rgb(0.823975%, 87.579346%, 78.643799%)" offset="0.867188"/><stop stop-opacity="1" stop-color="rgb(0.799561%, 87.718201%, 78.872681%)" offset="0.871094"/><stop stop-opacity="1" stop-color="rgb(0.773621%, 87.85553%, 79.101562%)" offset="0.875"/><stop stop-opacity="1" stop-color="rgb(0.749207%, 87.992859%, 79.328918%)" offset="0.878906"/><stop stop-opacity="1" stop-color="rgb(0.724792%, 88.131714%, 79.5578%)" offset="0.882812"/><stop stop-opacity="1" stop-color="rgb(0.700378%, 88.269043%, 79.786682%)" offset="0.886719"/><stop stop-opacity="1" stop-color="rgb(0.675964%, 88.406372%, 80.015564%)" offset="0.890625"/><stop stop-opacity="1" stop-color="rgb(0.65155%, 88.545227%, 80.24292%)" offset="0.894531"/><stop stop-opacity="1" stop-color="rgb(0.627136%, 88.682556%, 80.471802%)" offset="0.898438"/><stop stop-opacity="1" stop-color="rgb(0.602722%, 88.819885%, 80.700684%)" offset="0.902344"/><stop stop-opacity="1" stop-color="rgb(0.576782%, 88.95874%, 80.929565%)" offset="0.90625"/><stop stop-opacity="1" stop-color="rgb(0.552368%, 89.096069%, 81.156921%)" offset="0.910156"/><stop stop-opacity="1" stop-color="rgb(0.527954%, 89.234924%, 81.385803%)" offset="0.914062"/><stop stop-opacity="1" stop-color="rgb(0.50354%, 89.372253%, 81.614685%)" offset="0.917969"/><stop stop-opacity="1" stop-color="rgb(0.479126%, 89.509583%, 81.843567%)" offset="0.921875"/><stop stop-opacity="1" stop-color="rgb(0.454712%, 89.648438%, 82.070923%)" offset="0.925781"/><stop stop-opacity="1" stop-color="rgb(0.430298%, 89.785767%, 82.299805%)" offset="0.929688"/><stop stop-opacity="1" stop-color="rgb(0.405884%, 89.923096%, 82.528687%)" offset="0.933594"/><stop stop-opacity="1" stop-color="rgb(0.379944%, 90.061951%, 82.757568%)" offset="0.9375"/><stop stop-opacity="1" stop-color="rgb(0.35553%, 90.19928%, 82.984924%)" offset="0.941406"/><stop stop-opacity="1" stop-color="rgb(0.331116%, 90.338135%, 83.213806%)" offset="0.945312"/><stop stop-opacity="1" stop-color="rgb(0.306702%, 90.475464%, 83.442688%)" offset="0.949219"/><stop stop-opacity="1" stop-color="rgb(0.282288%, 90.612793%, 83.67157%)" offset="0.953125"/><stop stop-opacity="1" stop-color="rgb(0.257874%, 90.751648%, 83.898926%)" offset="0.957031"/><stop stop-opacity="1" stop-color="rgb(0.233459%, 90.888977%, 84.127808%)" offset="0.960938"/><stop stop-opacity="1" stop-color="rgb(0.209045%, 91.026306%, 84.356689%)" offset="0.964844"/><stop stop-opacity="1" stop-color="rgb(0.183105%, 91.165161%, 84.585571%)" offset="0.96875"/><stop stop-opacity="1" stop-color="rgb(0.158691%, 91.30249%, 84.814453%)" offset="0.972656"/><stop stop-opacity="1" stop-color="rgb(0.134277%, 91.439819%, 85.041809%)" offset="0.976562"/><stop stop-opacity="1" stop-color="rgb(0.109863%, 91.578674%, 85.270691%)" offset="0.980469"/><stop stop-opacity="1" stop-color="rgb(0.0854492%, 91.716003%, 85.499573%)" offset="0.984375"/><stop stop-opacity="1" stop-color="rgb(0.0610352%, 91.854858%, 85.728455%)" offset="0.988281"/><stop stop-opacity="1" stop-color="rgb(0.0366211%, 91.992188%, 85.955811%)" offset="0.992188"/><stop stop-opacity="1" stop-color="rgb(0.012207%, 92.129517%, 86.184692%)" offset="0.996094"/><stop stop-opacity="1" stop-color="rgb(0%, 92.199707%, 86.299133%)" offset="1"/></radialGradient></defs><g fill="#ffffff" fill-opacity="1"><g transform="translate(322.318466, 540.189955)"><g><path d="M 374.09375 -61.546875 C 377.09375 -61.546875 379.851562 -60.375 382.375 -58.03125 C 384.90625 -55.695312 387.109375 -52.9375 388.984375 -49.75 C 390.859375 -46.5625 392.3125 -43.140625 393.34375 -39.484375 C 394.375 -35.835938 394.890625 -32.796875 394.890625 -30.359375 C 394.890625 -27.734375 394.421875 -24.640625 393.484375 -21.078125 C 392.546875 -17.515625 391.234375 -14.1875 389.546875 -11.09375 C 387.859375 -8.007812 385.703125 -5.390625 383.078125 -3.234375 C 380.460938 -1.078125 377.46875 0 374.09375 0 C 367.90625 0 362.328125 -0.1875 357.359375 -0.5625 C 352.398438 -0.9375 347.671875 -1.734375 343.171875 -2.953125 C 338.671875 -4.171875 334.359375 -5.945312 330.234375 -8.28125 C 326.117188 -10.625 322 -13.859375 317.875 -17.984375 C 317.3125 -16.296875 316.890625 -15.078125 316.609375 -14.328125 C 316.328125 -13.578125 316.09375 -12.875 315.90625 -12.21875 C 315.71875 -11.570312 315.4375 -10.828125 315.0625 -9.984375 C 314.6875 -9.140625 314.125 -7.96875 313.375 -6.46875 C 307.195312 5.894531 299 17.789062 288.78125 29.21875 C 278.570312 40.65625 266.441406 50.632812 252.390625 59.15625 C 238.335938 67.6875 222.316406 74.195312 204.328125 78.6875 C 186.335938 83.1875 166.289062 84.6875 144.1875 83.1875 C 117.945312 81.5 95.363281 75.832031 76.4375 66.1875 C 57.519531 56.539062 42.109375 44.175781 30.203125 29.09375 C 18.304688 14.007812 9.96875 -3.039062 5.1875 -22.0625 C 0.414062 -41.082031 -0.84375 -60.800781 1.40625 -81.21875 C 2.53125 -91.90625 4.773438 -102.726562 8.140625 -113.6875 C 11.515625 -124.644531 16.15625 -135.273438 22.0625 -145.578125 C 27.96875 -155.890625 35.132812 -165.585938 43.5625 -174.671875 C 52 -183.765625 61.976562 -191.773438 73.5 -198.703125 C 85.019531 -205.640625 98.085938 -211.164062 112.703125 -215.28125 C 127.316406 -219.40625 143.617188 -221.75 161.609375 -222.3125 C 144.367188 -214.820312 129.425781 -205.734375 116.78125 -195.046875 C 104.132812 -184.367188 93.734375 -172.847656 85.578125 -160.484375 C 77.429688 -148.117188 71.390625 -135.191406 67.453125 -121.703125 C 63.515625 -108.210938 61.640625 -95 61.828125 -82.0625 L 61.828125 -80.390625 C 61.828125 -65.765625 64.546875 -52.082031 69.984375 -39.34375 C 75.421875 -26.601562 82.820312 -15.453125 92.1875 -5.890625 C 101.550781 3.660156 112.554688 11.195312 125.203125 16.71875 C 137.859375 22.25 151.398438 25.015625 165.828125 25.015625 C 180.066406 25.015625 193.460938 22.296875 206.015625 16.859375 C 218.566406 11.429688 229.570312 4.035156 239.03125 -5.328125 C 248.5 -14.703125 255.992188 -25.664062 261.515625 -38.21875 C 267.046875 -50.78125 269.90625 -64.273438 270.09375 -78.703125 C 270.09375 -78.890625 270 -81.226562 269.8125 -85.71875 C 269.625 -90.21875 269.4375 -95.320312 269.25 -101.03125 C 269.0625 -106.75 268.875 -112.1875 268.6875 -117.34375 C 268.5 -122.5 268.5 -125.820312 268.6875 -127.3125 C 269.0625 -135.9375 270.1875 -144.882812 272.0625 -154.15625 C 273.9375 -163.4375 277.257812 -171.914062 282.03125 -179.59375 C 286.8125 -187.28125 293.414062 -193.601562 301.84375 -198.5625 C 310.28125 -203.53125 321.242188 -206.015625 334.734375 -206.015625 C 332.304688 -201.703125 330.109375 -195.140625 328.140625 -186.328125 C 326.171875 -177.523438 324.90625 -167.785156 324.34375 -157.109375 C 323.78125 -146.429688 324.0625 -135.46875 325.1875 -124.21875 C 326.3125 -112.976562 328.742188 -102.722656 332.484375 -93.453125 C 336.234375 -84.179688 341.476562 -76.546875 348.21875 -70.546875 C 354.96875 -64.546875 363.59375 -61.546875 374.09375 -61.546875 Z M 127.03125 -81.78125 C 127.03125 -87.03125 128.015625 -91.992188 129.984375 -96.671875 C 131.953125 -101.359375 134.671875 -105.4375 138.140625 -108.90625 C 141.609375 -112.375 145.679688 -115.09375 150.359375 -117.0625 C 155.046875 -119.03125 160.109375 -120.015625 165.546875 -120.015625 C 170.785156 -120.015625 175.75 -119.03125 180.4375 -117.0625 C 185.125 -115.09375 189.195312 -112.375 192.65625 -108.90625 C 196.125 -105.4375 198.84375 -101.359375 200.8125 -96.671875 C 202.78125 -91.992188 203.765625 -87.03125 203.765625 -81.78125 C 203.765625 -76.351562 202.78125 -71.296875 200.8125 -66.609375 C 198.84375 -61.921875 196.125 -57.84375 192.65625 -54.375 C 189.195312 -50.914062 185.125 -48.203125 180.4375 -46.234375 C 175.75 -44.265625 170.785156 -43.28125 165.546875 -43.28125 C 160.109375 -43.28125 155.046875 -44.265625 150.359375 -46.234375 C 145.679688 -48.203125 141.609375 -50.914062 138.140625 -54.375 C 134.671875 -57.84375 131.953125 -61.921875 129.984375 -66.609375 C 128.015625 -71.296875 127.03125 -76.351562 127.03125 -81.78125 Z M 127.03125 -81.78125 "/></g></g></g><g fill="#ffffff" fill-opacity="1"><g transform="translate(642.237744, 540.189955)"><g><path d="M 161.609375 -443.515625 C 161.609375 -431.148438 158.234375 -420.65625 151.484375 -412.03125 C 144.367188 -402.851562 134.722656 -398.265625 122.546875 -398.265625 C 102.867188 -398.265625 87.878906 -405.570312 77.578125 -420.1875 C 66.328125 -393.382812 48.804688 -379.984375 25.015625 -379.984375 C -1.210938 -379.984375 -14.328125 -394.976562 -14.328125 -424.96875 C -14.328125 -438.269531 -8.519531 -457.191406 3.09375 -481.734375 L 27.546875 -469.09375 C 20.796875 -451.476562 17.421875 -440.984375 17.421875 -437.609375 C 17.421875 -424.867188 21.828125 -418.5 30.640625 -418.5 C 43.566406 -418.5 52 -425.148438 55.9375 -438.453125 C 58.175781 -446.128906 59.015625 -458.304688 58.453125 -474.984375 C 64.828125 -478.359375 75.226562 -483.796875 89.65625 -491.296875 C 89.65625 -454.753906 98.085938 -436.484375 114.953125 -436.484375 C 123.941406 -436.484375 128.0625 -442.007812 127.3125 -453.0625 C 126.9375 -459.4375 125.160156 -465.15625 121.984375 -470.21875 C 120.296875 -472.832031 117.296875 -477.515625 112.984375 -484.265625 L 137.71875 -502.53125 C 144.46875 -493.726562 150.367188 -482.582031 155.421875 -469.09375 C 159.546875 -457.65625 161.609375 -449.128906 161.609375 -443.515625 Z M 161.609375 -443.515625 "/></g></g><g transform="translate(642.237744, 540.189955)"><g><path d="M 327.15625 -61.546875 C 327.53125 -61.546875 328.421875 -60.84375 329.828125 -59.4375 C 331.234375 -58.039062 332.679688 -56.078125 334.171875 -53.546875 C 335.671875 -51.015625 336.984375 -47.921875 338.109375 -44.265625 C 339.234375 -40.609375 339.796875 -36.535156 339.796875 -32.046875 C 339.796875 -26.046875 339.421875 -21.265625 338.671875 -17.703125 C 337.921875 -14.140625 336.890625 -11.28125 335.578125 -9.125 C 334.273438 -6.976562 332.875 -5.25 331.375 -3.9375 C 329.875 -2.625 328.46875 -1.3125 327.15625 0 C 319.28125 0 312.25 -0.9375 306.0625 -2.8125 C 299.882812 -4.6875 294.40625 -7.070312 289.625 -9.96875 C 284.851562 -12.875 280.734375 -16.109375 277.265625 -19.671875 C 273.796875 -23.234375 271.03125 -26.703125 268.96875 -30.078125 C 264.664062 -25.203125 259.84375 -20.84375 254.5 -17 C 249.15625 -13.164062 243.625 -9.9375 237.90625 -7.3125 C 232.195312 -4.6875 226.484375 -2.71875 220.765625 -1.40625 C 215.054688 -0.09375 209.671875 0.5625 204.609375 0.5625 C 201.609375 0.5625 196.6875 0.5625 189.84375 0.5625 C 183.007812 0.5625 174.953125 0.5625 165.671875 0.5625 C 156.398438 0.5625 146.191406 0.515625 135.046875 0.421875 C 123.898438 0.328125 112.609375 0.28125 101.171875 0.28125 C 89.742188 0.28125 78.550781 0.234375 67.59375 0.140625 C 56.632812 0.046875 46.5625 0 37.375 0 C 28.195312 0 20.328125 0 13.765625 0 C 7.210938 0 2.625 0 0 0 C -3.375 0 -6.179688 -1.5 -8.421875 -4.5 C -10.671875 -7.5 -12.359375 -11.289062 -13.484375 -15.875 C -14.609375 -20.46875 -15.125 -25.429688 -15.03125 -30.765625 C -14.9375 -36.109375 -14.328125 -41.078125 -13.203125 -45.671875 C -12.078125 -50.265625 -10.390625 -54.054688 -8.140625 -57.046875 C -5.898438 -60.046875 -3.1875 -61.546875 0 -61.546875 C 0.9375 -61.546875 4.117188 -61.546875 9.546875 -61.546875 C 14.984375 -61.546875 21.960938 -61.546875 30.484375 -61.546875 C 39.015625 -61.546875 48.570312 -61.546875 59.15625 -61.546875 C 69.75 -61.546875 80.570312 -61.5 91.625 -61.40625 C 102.675781 -61.3125 113.585938 -61.265625 124.359375 -61.265625 C 135.140625 -61.265625 144.882812 -61.265625 153.59375 -61.265625 C 162.3125 -61.265625 169.664062 -61.265625 175.65625 -61.265625 C 181.65625 -61.265625 185.40625 -61.265625 186.90625 -61.265625 C 194.957031 -61.265625 201.890625 -61.6875 207.703125 -62.53125 C 213.515625 -63.375 218.476562 -64.78125 222.59375 -66.75 C 226.71875 -68.71875 230.046875 -71.296875 232.578125 -74.484375 C 235.109375 -77.671875 237.125 -81.507812 238.625 -86 C 239.75 -89.5625 240.265625 -94.289062 240.171875 -100.1875 C 240.078125 -106.09375 238.578125 -112.226562 235.671875 -118.59375 C 232.765625 -124.96875 228.21875 -131.203125 222.03125 -137.296875 C 215.851562 -143.390625 207.28125 -148.492188 196.3125 -152.609375 C 185.351562 -156.734375 171.675781 -159.40625 155.28125 -160.625 C 138.882812 -161.84375 119.070312 -160.859375 95.84375 -157.671875 C 92.09375 -159.921875 88.25 -162.6875 84.3125 -165.96875 C 80.382812 -169.25 76.921875 -172.851562 73.921875 -176.78125 C 70.921875 -180.71875 68.859375 -184.882812 67.734375 -189.28125 C 66.609375 -193.6875 67.078125 -198.234375 69.140625 -202.921875 C 70.453125 -206.484375 72.796875 -209.203125 76.171875 -211.078125 C 94.347656 -220.816406 111.675781 -232.429688 128.15625 -245.921875 C 144.644531 -259.410156 160.054688 -274.210938 174.390625 -290.328125 C 188.722656 -306.441406 201.789062 -323.539062 213.59375 -341.625 C 225.40625 -359.707031 235.804688 -378.023438 244.796875 -396.578125 C 248.359375 -404.066406 251.453125 -411.320312 254.078125 -418.34375 C 256.703125 -425.375 258.859375 -432.265625 260.546875 -439.015625 C 265.222656 -428.898438 269.15625 -418.828125 272.34375 -408.796875 C 275.53125 -398.773438 277.5 -388.796875 278.25 -378.859375 C 279 -368.929688 278.34375 -359.09375 276.28125 -349.34375 C 274.21875 -339.601562 270.378906 -329.863281 264.765625 -320.125 C 259.328125 -310.945312 253.1875 -301.953125 246.34375 -293.140625 C 239.507812 -284.335938 232.25 -275.671875 224.5625 -267.140625 C 216.882812 -258.617188 208.875 -250.1875 200.53125 -241.84375 C 192.195312 -233.507812 184 -225.128906 175.9375 -216.703125 C 177.0625 -216.515625 180.664062 -215.953125 186.75 -215.015625 C 192.84375 -214.078125 200.101562 -212.109375 208.53125 -209.109375 C 216.96875 -206.109375 225.914062 -201.9375 235.375 -196.59375 C 244.84375 -191.257812 253.601562 -184 261.65625 -174.8125 C 269.71875 -165.632812 276.367188 -154.394531 281.609375 -141.09375 C 286.859375 -127.789062 289.484375 -111.769531 289.484375 -93.03125 C 290.046875 -84.226562 293.65625 -76.78125 300.3125 -70.6875 C 306.96875 -64.59375 315.914062 -61.546875 327.15625 -61.546875 Z M 327.15625 -61.546875 "/></g></g></g><g fill="#ffffff" fill-opacity="1"><g transform="translate(915.227948, 540.189955)"><g><path d="M 159.640625 -222.03125 C 173.503906 -222.03125 185.820312 -220.015625 196.59375 -215.984375 C 207.375 -211.960938 216.882812 -206.71875 225.125 -200.25 C 233.375 -193.789062 240.398438 -186.484375 246.203125 -178.328125 C 252.015625 -170.179688 256.835938 -161.9375 260.671875 -153.59375 C 264.515625 -145.257812 267.46875 -137.203125 269.53125 -129.421875 C 271.59375 -121.648438 273 -114.953125 273.75 -109.328125 C 275.625 -95.835938 275.578125 -83.753906 273.609375 -73.078125 C 271.640625 -62.398438 268.40625 -53.03125 263.90625 -44.96875 C 259.414062 -36.914062 254.078125 -30.03125 247.890625 -24.3125 C 241.710938 -18.59375 235.25 -13.953125 228.5 -10.390625 C 221.757812 -6.835938 215.15625 -4.21875 208.6875 -2.53125 C 202.21875 -0.84375 196.550781 0 191.6875 0 C 177.257812 0 164.234375 -1.21875 152.609375 -3.65625 C 140.992188 -6.09375 130.5 -9.226562 121.125 -13.0625 C 111.757812 -16.90625 103.46875 -21.265625 96.25 -26.140625 C 89.039062 -31.015625 82.722656 -35.882812 77.296875 -40.75 C 74.296875 -32.320312 70.453125 -25.4375 65.765625 -20.09375 C 61.078125 -14.75 55.5 -10.578125 49.03125 -7.578125 C 42.570312 -4.585938 35.21875 -2.578125 26.96875 -1.546875 C 18.726562 -0.515625 9.738281 0 0 0 C -2.4375 -2.25 -4.40625 -5.382812 -5.90625 -9.40625 C -7.40625 -13.4375 -8.15625 -19.578125 -8.15625 -27.828125 C -8.15625 -31.765625 -7.828125 -35.601562 -7.171875 -39.34375 C -6.515625 -43.09375 -5.765625 -46.515625 -4.921875 -49.609375 C -4.078125 -52.703125 -3.1875 -55.320312 -2.25 -57.46875 C -1.3125 -59.625 -0.5625 -60.984375 0 -61.546875 C 6.9375 -61.734375 13.070312 -63.515625 18.40625 -66.890625 C 23.75 -70.265625 28.429688 -74.617188 32.453125 -79.953125 C 36.484375 -85.296875 40 -91.335938 43 -98.078125 C 46 -104.828125 48.765625 -111.617188 51.296875 -118.453125 C 53.828125 -125.296875 56.164062 -131.90625 58.3125 -138.28125 C 60.46875 -144.65625 62.671875 -150.179688 64.921875 -154.859375 C 75.597656 -176.597656 89.273438 -193.226562 105.953125 -204.75 C 122.628906 -216.269531 140.523438 -222.03125 159.640625 -222.03125 Z M 212.484375 -73.359375 C 216.046875 -77.859375 218.195312 -83.148438 218.9375 -89.234375 C 219.6875 -95.328125 219.3125 -101.554688 217.8125 -107.921875 C 216.320312 -114.296875 213.9375 -120.523438 210.65625 -126.609375 C 207.375 -132.703125 203.484375 -138.132812 198.984375 -142.90625 C 194.492188 -147.6875 189.53125 -151.578125 184.09375 -154.578125 C 178.65625 -157.578125 173.128906 -159.078125 167.515625 -159.078125 C 157.203125 -159.078125 148.390625 -157.0625 141.078125 -153.03125 C 133.773438 -149.007812 127.5 -143.90625 122.25 -137.71875 C 117.007812 -131.53125 112.65625 -124.640625 109.1875 -117.046875 C 105.71875 -109.460938 102.769531 -102.113281 100.34375 -95 C 108.769531 -88.0625 118.226562 -81.78125 128.71875 -76.15625 C 139.21875 -70.539062 149.664062 -66.421875 160.0625 -63.796875 C 170.457031 -61.171875 180.289062 -60.421875 189.5625 -61.546875 C 198.84375 -62.671875 206.484375 -66.609375 212.484375 -73.359375 Z M 212.484375 -73.359375 "/></g></g></g><g fill="#ffffff" fill-opacity="1"><g transform="translate(625.834112, 641.226807)"><g><path d="M 56.53125 -7.1875 L 56.53125 0 L 55.0625 0 C 49.457031 0 45.457031 -1.6875 43.0625 -5.0625 C 39.957031 -1.195312 35.816406 0.734375 30.640625 0.734375 C 27.804688 0.734375 25.273438 0.132812 23.046875 -1.0625 L 16.171875 -1.0625 C 14.535156 -1.0625 13.53125 -0.488281 13.15625 0.65625 C 12.988281 1.25 12.878906 2.609375 12.828125 4.734375 L 12.828125 15.03125 C 12.828125 19.332031 12.203125 22.21875 10.953125 23.6875 L 3.921875 23.6875 C 4.578125 22.550781 5.015625 21.394531 5.234375 20.21875 C 5.453125 19.050781 5.5625 17.296875 5.5625 14.953125 L 5.5625 1.953125 C 5.5625 -1.085938 6.1875 -3.484375 7.4375 -5.234375 C 8.90625 -7.023438 10.972656 -8.03125 13.640625 -8.25 C 14.128906 -8.300781 14.972656 -8.328125 16.171875 -8.328125 C 14.753906 -11.160156 14.046875 -14.457031 14.046875 -18.21875 C 14.046875 -23.9375 15.679688 -28.539062 18.953125 -32.03125 C 22.003906 -35.1875 25.898438 -36.765625 30.640625 -36.765625 C 36.085938 -36.765625 40.335938 -34.722656 43.390625 -30.640625 C 45.890625 -27.316406 47.140625 -23.175781 47.140625 -18.21875 L 47.140625 -13.890625 C 47.140625 -11.816406 47.789062 -10.179688 49.09375 -8.984375 C 50.40625 -7.785156 52.234375 -7.1875 54.578125 -7.1875 Z M 30.640625 -6.453125 C 33.796875 -6.453125 36.21875 -7.734375 37.90625 -10.296875 C 39.269531 -12.472656 39.953125 -15.332031 39.953125 -18.875 C 39.953125 -23.28125 38.972656 -26.820312 37.015625 -29.5 C 35.328125 -31.78125 33.203125 -32.921875 30.640625 -32.921875 C 27.703125 -32.921875 25.359375 -31.425781 23.609375 -28.4375 C 22.085938 -25.875 21.328125 -22.6875 21.328125 -18.875 C 21.328125 -14.789062 22.222656 -11.660156 24.015625 -9.484375 C 25.648438 -7.460938 27.859375 -6.453125 30.640625 -6.453125 Z M 30.640625 -6.453125 "/></g></g></g><g fill="#ffffff" fill-opacity="1"><g transform="translate(680.768987, 641.226807)"><g><path d="M 29.734375 0 L 26.875 0 C 21.644531 0 17.78125 -1.441406 15.28125 -4.328125 C 12.664062 -1.441406 8.769531 0 3.59375 0 L 0 0 L 0 -7.265625 L 4.171875 -7.265625 C 6.515625 -7.265625 8.335938 -7.863281 9.640625 -9.0625 C 10.953125 -10.207031 11.609375 -11.84375 11.609375 -13.96875 L 11.609375 -46.984375 C 11.609375 -51.285156 12.234375 -54.171875 13.484375 -55.640625 L 20.5 -55.640625 C 19.851562 -54.492188 19.421875 -53.332031 19.203125 -52.15625 C 18.984375 -50.988281 18.875 -49.234375 18.875 -46.890625 L 18.875 -13.96875 C 18.875 -11.84375 19.515625 -10.191406 20.796875 -9.015625 C 22.078125 -7.847656 23.890625 -7.265625 26.234375 -7.265625 L 29.734375 -7.265625 Z M 29.734375 0 "/></g></g></g><g fill="#ffffff" fill-opacity="1"><g transform="translate(708.930213, 641.226807)"><g><path d="M 30.71875 -36.765625 C 36.820312 -36.765625 41.78125 -34.992188 45.59375 -31.453125 C 48.914062 -28.460938 50.578125 -24.8125 50.578125 -20.5 C 50.578125 -15.269531 48.070312 -10.859375 43.0625 -7.265625 L 59.71875 -7.265625 L 59.71875 0 L 40.203125 0 C 38.179688 0 36.625 -0.117188 35.53125 -0.359375 C 34.445312 -0.609375 33.414062 -1.0625 32.4375 -1.71875 C 31.507812 -1.0625 30.515625 -0.609375 29.453125 -0.359375 C 28.390625 -0.117188 26.820312 0 24.75 0 L 0 0 L 0 -7.265625 L 26.390625 -7.265625 C 26.222656 -7.648438 26.140625 -8.035156 26.140625 -8.421875 C 25.648438 -12.773438 23.878906 -16.203125 20.828125 -18.703125 C 18.648438 -20.453125 16.445312 -21.328125 14.21875 -21.328125 C 13.945312 -21.328125 13.703125 -21.300781 13.484375 -21.25 C 12.441406 -21.082031 11.675781 -20.5625 11.1875 -19.6875 L 7.59375 -23.453125 C 13.53125 -32.328125 21.238281 -36.765625 30.71875 -36.765625 Z M 30.71875 -32.921875 C 28 -32.921875 25.441406 -32.320312 23.046875 -31.125 C 20.046875 -29.769531 17.457031 -27.675781 15.28125 -24.84375 C 15.769531 -24.894531 16.257812 -24.921875 16.75 -24.921875 C 21.375 -24.921875 25.320312 -23.203125 28.59375 -19.765625 C 31.59375 -16.660156 33.203125 -12.878906 33.421875 -8.421875 C 36.628906 -10.546875 38.859375 -12.257812 40.109375 -13.5625 C 42.296875 -15.90625 43.390625 -18.382812 43.390625 -21 C 43.390625 -24.976562 42.023438 -28.054688 39.296875 -30.234375 C 37.015625 -32.023438 34.15625 -32.921875 30.71875 -32.921875 Z M 30.71875 -32.921875 "/></g></g></g><g fill="#ffffff" fill-opacity="1"><g transform="translate(767.048571, 641.226807)"><g><path d="M 5.0625 -45.265625 C 3.863281 -45.265625 2.84375 -45.6875 2 -46.53125 C 1.15625 -47.375 0.734375 -48.394531 0.734375 -49.59375 C 0.734375 -50.738281 1.15625 -51.734375 2 -52.578125 C 2.84375 -53.421875 3.863281 -53.84375 5.0625 -53.84375 C 6.207031 -53.84375 7.203125 -53.421875 8.046875 -52.578125 C 8.890625 -51.734375 9.3125 -50.738281 9.3125 -49.59375 C 9.3125 -48.394531 8.890625 -47.375 8.046875 -46.53125 C 7.203125 -45.6875 6.207031 -45.265625 5.0625 -45.265625 Z M 16.578125 -45.265625 C 15.378906 -45.265625 14.359375 -45.6875 13.515625 -46.53125 C 12.671875 -47.375 12.25 -48.394531 12.25 -49.59375 C 12.25 -50.738281 12.671875 -51.734375 13.515625 -52.578125 C 14.359375 -53.421875 15.378906 -53.84375 16.578125 -53.84375 C 17.722656 -53.84375 18.71875 -53.421875 19.5625 -52.578125 C 20.40625 -51.734375 20.828125 -50.738281 20.828125 -49.59375 C 20.828125 -48.394531 20.40625 -47.375 19.5625 -46.53125 C 18.71875 -45.6875 17.722656 -45.265625 16.578125 -45.265625 Z M 29.65625 -7.265625 L 29.65625 0 L 26.875 0 C 21.707031 0 17.84375 -1.390625 15.28125 -4.171875 C 12.613281 -1.390625 8.71875 0 3.59375 0 L 0 0 L 0 -7.265625 L 4.171875 -7.265625 C 6.515625 -7.265625 8.335938 -7.863281 9.640625 -9.0625 C 10.953125 -10.207031 11.609375 -11.84375 11.609375 -13.96875 L 11.609375 -27.703125 C 11.609375 -31.941406 12.234375 -34.828125 13.484375 -36.359375 L 20.5 -36.359375 C 19.851562 -35.210938 19.421875 -34.050781 19.203125 -32.875 C 18.984375 -31.707031 18.875 -29.953125 18.875 -27.609375 L 18.875 -13.96875 C 18.875 -11.84375 19.515625 -10.191406 20.796875 -9.015625 C 22.078125 -7.847656 23.890625 -7.265625 26.234375 -7.265625 Z M 29.65625 -7.265625 "/></g></g></g><g fill="#ffffff" fill-opacity="1"><g transform="translate(795.209798, 641.226807)"><g><path d="M 13.484375 -55.640625 L 20.5 -55.640625 C 19.851562 -54.492188 19.421875 -53.332031 19.203125 -52.15625 C 18.984375 -50.988281 18.875 -49.234375 18.875 -46.890625 L 18.875 -15.03125 C 18.875 -10.34375 17.675781 -6.722656 15.28125 -4.171875 C 12.664062 -1.390625 8.769531 0 3.59375 0 L 0 0 L 0 -7.265625 L 4.171875 -7.265625 C 6.515625 -7.265625 8.335938 -7.863281 9.640625 -9.0625 C 10.953125 -10.207031 11.609375 -11.84375 11.609375 -13.96875 L 11.609375 -46.984375 C 11.609375 -51.285156 12.234375 -54.171875 13.484375 -55.640625 Z M 13.484375 -55.640625 "/></g></g></g><g fill="#ffffff" fill-opacity="1"><g transform="translate(819.534568, 641.226807)"><g><path d="M 12.828125 -8.65625 C 12.828125 -4.351562 12.203125 -1.46875 10.953125 0 L 3.921875 0 C 4.578125 -1.144531 5.015625 -2.300781 5.234375 -3.46875 C 5.453125 -4.644531 5.5625 -6.40625 5.5625 -8.75 L 5.5625 -46.984375 C 5.5625 -51.335938 6.1875 -54.222656 7.4375 -55.640625 L 14.46875 -55.640625 C 13.8125 -54.492188 13.375 -53.363281 13.15625 -52.25 C 12.9375 -51.132812 12.828125 -49.347656 12.828125 -46.890625 Z M 12.828125 -8.65625 "/></g></g></g><g fill="#ffffff" fill-opacity="1"><g transform="translate(837.818982, 641.226807)"><g/></g></g><g fill="#ffffff" fill-opacity="1"><g transform="translate(858.225663, 641.226807)"><g><path d="M 16.421875 -45.515625 C 15.222656 -45.515625 14.203125 -45.9375 13.359375 -46.78125 C 12.515625 -47.625 12.09375 -48.644531 12.09375 -49.84375 C 12.09375 -50.988281 12.515625 -51.984375 13.359375 -52.828125 C 14.203125 -53.671875 15.222656 -54.09375 16.421875 -54.09375 C 17.566406 -54.09375 18.5625 -53.671875 19.40625 -52.828125 C 20.25 -51.984375 20.671875 -50.988281 20.671875 -49.84375 C 20.671875 -48.644531 20.25 -47.625 19.40625 -46.78125 C 18.5625 -45.9375 17.566406 -45.515625 16.421875 -45.515625 Z M 27.859375 -45.515625 C 26.710938 -45.515625 25.71875 -45.9375 24.875 -46.78125 C 24.03125 -47.625 23.609375 -48.644531 23.609375 -49.84375 C 23.609375 -50.988281 24.03125 -51.984375 24.875 -52.828125 C 25.71875 -53.671875 26.710938 -54.09375 27.859375 -54.09375 C 29.054688 -54.09375 30.078125 -53.671875 30.921875 -52.828125 C 31.765625 -51.984375 32.1875 -50.988281 32.1875 -49.84375 C 32.1875 -48.644531 31.765625 -47.625 30.921875 -46.78125 C 30.078125 -45.9375 29.054688 -45.515625 27.859375 -45.515625 Z M 31.203125 -36.359375 L 38.234375 -36.359375 C 37.578125 -35.210938 37.140625 -34.050781 36.921875 -32.875 C 36.710938 -31.707031 36.609375 -29.953125 36.609375 -27.609375 L 36.609375 -13.96875 C 36.609375 -9.34375 35.410156 -5.722656 33.015625 -3.109375 C 30.453125 -0.328125 26.582031 1.0625 21.40625 1.0625 C 16.070312 1.0625 11.769531 -0.816406 8.5 -4.578125 C 5.394531 -7.898438 3.84375 -12.363281 3.84375 -17.96875 C 3.84375 -23.75 5.722656 -28.460938 9.484375 -32.109375 C 12.742188 -35.210938 16.632812 -36.765625 21.15625 -36.765625 C 24.75 -36.765625 27.75 -35.785156 30.15625 -33.828125 C 30.363281 -34.804688 30.710938 -35.648438 31.203125 -36.359375 Z M 29.40625 -12.90625 L 29.40625 -26.390625 C 29.40625 -28.128906 28.671875 -29.679688 27.203125 -31.046875 C 25.785156 -32.296875 24.046875 -32.921875 21.984375 -32.921875 C 18.660156 -32.921875 15.960938 -31.476562 13.890625 -28.59375 C 12.035156 -25.976562 11.109375 -22.765625 11.109375 -18.953125 C 11.109375 -14.753906 12.195312 -11.515625 14.375 -9.234375 C 16.28125 -7.210938 18.816406 -6.203125 21.984375 -6.203125 C 24.316406 -6.203125 26.140625 -6.800781 27.453125 -8 C 28.753906 -9.144531 29.40625 -10.78125 29.40625 -12.90625 Z M 29.40625 -12.90625 "/></g></g></g><g fill="#ffffff" fill-opacity="1"><g transform="translate(900.345138, 641.226807)"><g><path d="M 53.359375 -7.265625 L 53.359375 0 L 51.875 0 C 46.4375 0 42.410156 -1.609375 39.796875 -4.828125 C 37.015625 -1.609375 32.925781 0 27.53125 0 L 12.171875 0 C 9.828125 0 8.066406 0.109375 6.890625 0.328125 C 5.722656 0.546875 4.570312 0.984375 3.4375 1.640625 L 3.4375 -5.390625 C 4.851562 -6.640625 7.738281 -7.265625 12.09375 -7.265625 L 27.046875 -7.265625 C 30.472656 -7.265625 33.0625 -8.4375 34.8125 -10.78125 C 36.113281 -12.46875 36.765625 -14.539062 36.765625 -17 C 36.765625 -22.445312 35.128906 -26.613281 31.859375 -29.5 C 29.410156 -31.726562 26.414062 -32.867188 22.875 -32.921875 C 18.351562 -33.035156 14.515625 -31.429688 11.359375 -28.109375 L 9.234375 -33.015625 C 13.535156 -35.515625 18.054688 -36.765625 22.796875 -36.765625 C 29.546875 -36.765625 34.9375 -34.53125 38.96875 -30.0625 C 42.289062 -26.363281 43.953125 -21.898438 43.953125 -16.671875 L 43.953125 -16.34375 L 44.03125 -16.34375 L 44.03125 -13.96875 C 44.03125 -11.84375 44.671875 -10.191406 45.953125 -9.015625 C 47.234375 -7.847656 49.046875 -7.265625 51.390625 -7.265625 Z M 53.359375 -7.265625 "/></g></g></g><g fill="#ffffff" fill-opacity="1"><g transform="translate(952.096529, 641.226807)"><g><path d="M 13.484375 -36.359375 L 20.5 -36.359375 C 19.851562 -35.210938 19.421875 -34.050781 19.203125 -32.875 C 18.984375 -31.707031 18.875 -29.953125 18.875 -27.609375 L 18.875 -15.03125 C 18.875 -10.34375 17.675781 -6.722656 15.28125 -4.171875 C 12.664062 -1.390625 8.769531 0 3.59375 0 L 0 0 L 0 -7.265625 L 4.171875 -7.265625 C 6.515625 -7.265625 8.335938 -7.863281 9.640625 -9.0625 C 10.953125 -10.207031 11.609375 -11.84375 11.609375 -13.96875 L 11.609375 -27.703125 C 11.609375 -31.941406 12.234375 -34.828125 13.484375 -36.359375 Z M 13.234375 18.296875 C 12.085938 18.296875 11.09375 17.875 10.25 17.03125 C 9.40625 16.1875 8.984375 15.164062 8.984375 13.96875 C 8.984375 12.820312 9.40625 11.828125 10.25 10.984375 C 11.09375 10.140625 12.085938 9.71875 13.234375 9.71875 C 14.429688 9.71875 15.453125 10.140625 16.296875 10.984375 C 17.140625 11.828125 17.5625 12.820312 17.5625 13.96875 C 17.5625 15.164062 17.140625 16.1875 16.296875 17.03125 C 15.453125 17.875 14.429688 18.296875 13.234375 18.296875 Z M 13.234375 18.296875 "/></g></g></g><g fill="#ffffff" fill-opacity="1"><g transform="translate(976.421299, 641.226807)"><g><path d="M 22.21875 -45.265625 C 21.070312 -45.265625 20.078125 -45.6875 19.234375 -46.53125 C 18.390625 -47.375 17.96875 -48.394531 17.96875 -49.59375 C 17.96875 -50.738281 18.390625 -51.734375 19.234375 -52.578125 C 20.078125 -53.421875 21.070312 -53.84375 22.21875 -53.84375 C 23.414062 -53.84375 24.4375 -53.421875 25.28125 -52.578125 C 26.125 -51.734375 26.546875 -50.738281 26.546875 -49.59375 C 26.546875 -48.394531 26.125 -47.375 25.28125 -46.53125 C 24.4375 -45.6875 23.414062 -45.265625 22.21875 -45.265625 Z M 19.203125 -36.359375 L 26.234375 -36.359375 C 25.578125 -35.210938 25.140625 -34.050781 24.921875 -32.875 C 24.703125 -31.707031 24.59375 -29.953125 24.59375 -27.609375 L 24.59375 2.53125 C 24.59375 5.582031 24.46875 7.894531 24.21875 9.46875 C 23.976562 11.050781 23.476562 12.550781 22.71875 13.96875 C 20.320312 18.925781 15.632812 21.40625 8.65625 21.40625 C 4.1875 21.40625 -0.00390625 20.125 -3.921875 17.5625 L -1.796875 12.75 C 1.085938 16.007812 4.546875 17.640625 8.578125 17.640625 C 11.796875 17.640625 14.25 16.144531 15.9375 13.15625 C 16.53125 12.125 16.921875 10.9375 17.109375 9.59375 C 17.304688 8.257812 17.40625 5.929688 17.40625 2.609375 L 17.328125 -27.703125 C 17.328125 -31.941406 17.953125 -34.828125 19.203125 -36.359375 Z M 19.203125 -36.359375 "/></g></g></g><g clip-path="url(#a8a46855a6)"><g clip-path="url(#2e087b3a56)"><g clip-path="url(#7599a57dce)"><g clip-path="url(#e15aaa35a8)"><g clip-path="url(#ef6579a163)"><path fill="url(#6f06c111fb)" d="M 356.804688 451.464844 L 517.179688 591.597656 L 657.804688 430.660156 L 497.429688 290.527344 Z M 356.804688 451.464844 " fill-rule="nonzero"/></g></g></g></g></g></svg>