<svg xmlns="http://www.w3.org/2000/svg" xmlns:xlink="http://www.w3.org/1999/xlink" width="1200" zoomAndPan="magnify" viewBox="0 0 900 645.000003" height="860" preserveAspectRatio="xMidYMid meet" version="1.0"><path fill="#ffffff" d="M 870.28125 385.8125 L 852.414062 237.503906 C 847.605469 197.570312 813.515625 167.449219 773.113281 167.449219 L 602.457031 167.449219 C 562.054688 167.449219 527.964844 197.570312 523.164062 237.503906 L 505.3125 385.8125 C 502.59375 408.371094 509.710938 431.058594 524.867188 448.046875 C 540.003906 465.050781 561.78125 474.785156 584.601562 474.785156 L 790.984375 474.785156 C 813.785156 474.785156 835.566406 465.050781 850.71875 448.046875 C 865.855469 431.058594 872.992188 408.371094 870.277344 385.8125 Z M 821.332031 422.273438 C 813.226562 431.367188 802.03125 436.371094 789.832031 436.371094 L 585.761719 436.371094 C 573.546875 436.371094 562.351562 431.367188 554.261719 422.273438 C 546.152344 413.175781 542.5 401.519531 543.949219 389.445312 L 561.59375 242.796875 C 564.125 221.75 582.109375 205.863281 603.40625 205.863281 L 772.15625 205.863281 C 793.457031 205.863281 811.433594 221.757812 813.964844 242.796875 L 831.632812 389.445312 C 833.082031 401.519531 829.417969 413.175781 821.324219 422.273438 Z M 821.332031 422.273438 " fill-opacity="1" fill-rule="nonzero"/><path fill="#ffffff" d="M 687.914062 253.105469 L 687.550781 253.105469 C 687.453125 253.105469 687.351562 253.105469 687.261719 253.105469 C 654.859375 253.257812 630.839844 283.976562 638.890625 315.222656 C 643.148438 331.765625 654.789062 352.390625 679.960938 385.382812 C 683.867188 390.5 691.660156 390.367188 695.34375 385.085938 C 707.839844 367.15625 732.082031 331.390625 736.054688 318.332031 C 745.472656 287.375 723.773438 254.855469 691.316406 253.183594 C 690.3125 253.132812 689.304688 253.105469 688.273438 253.105469 L 687.90625 253.105469 " fill-opacity="1" fill-rule="nonzero"/><path fill="#ffffff" d="M 69.144531 328.5 C 64.027344 328.5 59.835938 332.671875 59.835938 337.765625 C 59.835938 342.859375 64.027344 347.03125 69.144531 347.03125 C 74.261719 347.03125 78.449219 343.011719 78.449219 337.765625 C 78.449219 332.515625 74.261719 328.5 69.144531 328.5 Z M 69.144531 328.5 " fill-opacity="1" fill-rule="nonzero"/><path fill="#ffffff" d="M 91.480469 328.5 C 86.207031 328.5 82.015625 332.671875 82.015625 337.765625 C 82.015625 343.171875 86.207031 347.03125 91.480469 347.03125 C 96.757812 347.03125 100.636719 342.859375 100.636719 337.765625 C 100.636719 332.671875 96.605469 328.5 91.480469 328.5 Z M 91.480469 328.5 " fill-opacity="1" fill-rule="nonzero"/><path fill="#ffffff" d="M 414.496094 243.265625 C 397.121094 243.265625 383.007812 255.777344 377.578125 278.792969 C 374.632812 285.898438 344.402344 287.136719 338.816406 287.136719 C 328.574219 287.136719 322.527344 286.207031 319.117188 283.429688 L 328.269531 283.429688 L 330.285156 257.785156 L 313.6875 257.785156 C 303.757812 257.785156 300.65625 257.167969 288.246094 250.835938 C 279.710938 246.511719 270.402344 239.871094 255.507812 239.871094 C 239.839844 239.871094 227.894531 248.519531 224.015625 254.390625 L 231.304688 271.382812 C 235.648438 268.605469 242.632812 264.585938 253.023438 264.585938 C 264.660156 264.585938 273.96875 268.597656 282.503906 272.152344 C 283.894531 272.769531 285.140625 273.386719 286.378906 273.851562 C 257.679688 286.671875 237.355469 287.136719 220.132812 287.136719 L 210.277344 287.136719 L 209.15625 287.59375 L 208.867188 287.511719 L 210.277344 287.136719 L 183.34375 287.136719 C 174.5 287.136719 168.609375 284.820312 168.609375 274.316406 L 168.609375 205.667969 L 147.976562 205.667969 L 147.976562 258.238281 L 91.015625 258.238281 L 91.015625 282.183594 L 115.992188 282.183594 C 114.132812 288.824219 102.496094 295.46875 80.15625 295.46875 C 57.820312 295.46875 46.183594 286.507812 46.183594 267.816406 C 46.183594 259.320312 48.972656 246.808594 53.011719 237.234375 L 36.253906 231.210938 C 30.828125 242.644531 26.171875 257.46875 26.171875 273.382812 C 26.171875 302.113281 44.628906 321.421875 77.054688 321.421875 C 113.511719 321.421875 132.125 303.507812 132.28125 284.199219 L 148.058594 284.199219 C 148.949219 304.3125 161.480469 313.089844 182.253906 313.089844 L 219.042969 313.089844 C 248.117188 313.074219 267.195312 309.027344 302.035156 283.433594 L 305.914062 283.433594 C 306.6875 301.660156 312.742188 313.089844 337.5625 313.089844 C 346.40625 313.089844 378.1875 308.917969 382.0625 299.652344 C 386.40625 307.371094 395.558594 313.859375 410.921875 313.859375 C 433.570312 313.859375 445.828125 299.339844 445.828125 280.648438 C 445.828125 258.5625 432.953125 243.265625 414.492188 243.265625 Z M 207.707031 312.710938 L 207.730469 312.710938 L 208.066406 312.800781 L 207.699219 312.710938 Z M 412.171875 288.058594 C 401.3125 288.058594 394.949219 285.28125 392 282.339844 C 396.191406 273.074219 403.792969 268.59375 412.480469 268.59375 C 421.945312 268.59375 429.234375 274.613281 429.234375 280.796875 C 429.234375 285.121094 422.566406 288.054688 412.167969 288.054688 Z M 412.171875 288.058594 " fill-opacity="1" fill-rule="nonzero"/><path fill="#ffffff" d="M 115.390625 382.601562 L 115.390625 411.96875 L 100.011719 411.96875 L 100.011719 383.378906 C 100.011719 375.527344 97.382812 371.746094 91.835938 371.746094 C 85.898438 371.746094 81.910156 376.007812 78.402344 384.828125 L 78.402344 411.964844 L 63.023438 411.964844 L 63.023438 383.371094 C 63.023438 375.519531 60.6875 371.738281 55.332031 371.738281 C 49.292969 371.738281 45.011719 376 41.414062 384.820312 L 41.414062 411.957031 L 26.027344 411.957031 L 26.027344 360.300781 L 41.40625 360.300781 L 41.40625 368.734375 C 45.886719 362.335938 51.917969 358.945312 60.09375 358.945312 C 68.269531 358.945312 74.210938 362.53125 76.835938 370.964844 C 81.414062 363.015625 87.347656 358.945312 96.304688 358.945312 C 107.59375 358.945312 115.382812 365.632812 115.382812 382.597656 Z M 115.390625 382.601562 " fill-opacity="1" fill-rule="nonzero"/><path fill="#ffffff" d="M 168.914062 360.3125 L 184.292969 360.3125 L 184.292969 411.96875 L 168.914062 411.96875 L 168.914062 403.4375 C 164.730469 409.644531 158.789062 413.226562 151.101562 413.226562 C 138.0625 413.226562 125.503906 404.015625 125.503906 386.089844 C 125.503906 368.164062 137.476562 358.761719 151.101562 358.761719 C 158.691406 358.761719 164.632812 361.574219 168.914062 367.195312 Z M 168.914062 385.898438 C 166.09375 376.300781 160.449219 371.457031 154.027344 371.457031 C 147.113281 371.457031 141.761719 376.589844 141.761719 385.898438 C 141.761719 395.203125 147.214844 400.53125 154.121094 400.53125 C 161.03125 400.53125 166.386719 394.621094 168.914062 385.898438 Z M 168.914062 385.898438 " fill-opacity="1" fill-rule="nonzero"/><path fill="#ffffff" d="M 251.363281 382.117188 L 251.363281 411.96875 L 235.984375 411.96875 L 235.984375 382.898438 C 235.984375 375.046875 233.550781 371.558594 227.515625 371.558594 C 221.476562 371.558594 216.707031 375.726562 212.914062 384.542969 L 212.914062 411.96875 L 197.535156 411.96875 L 197.535156 343.832031 L 212.914062 343.832031 L 212.914062 368.835938 C 217.683594 362.4375 224.011719 358.851562 231.601562 358.851562 C 243.671875 358.851562 251.363281 364.957031 251.363281 382.109375 Z M 251.363281 382.117188 " fill-opacity="1" fill-rule="nonzero"/><path fill="#ffffff" d="M 304.898438 360.3125 L 320.273438 360.3125 L 320.273438 411.96875 L 304.898438 411.96875 L 304.898438 403.4375 C 300.710938 409.644531 294.769531 413.226562 287.085938 413.226562 C 274.042969 413.226562 261.484375 404.015625 261.484375 386.089844 C 261.484375 368.164062 273.457031 358.761719 287.085938 358.761719 C 294.675781 358.761719 300.617188 361.574219 304.898438 367.195312 Z M 304.898438 385.898438 C 302.078125 376.300781 296.429688 371.457031 290.007812 371.457031 C 283.09375 371.457031 277.742188 376.589844 277.742188 385.898438 C 277.742188 395.203125 283.195312 400.53125 290.105469 400.53125 C 297.011719 400.53125 302.367188 394.621094 304.898438 385.898438 Z M 304.898438 385.898438 " fill-opacity="1" fill-rule="nonzero"/><path fill="#ffffff" d="M 333.507812 343.832031 L 348.886719 343.832031 L 348.886719 411.96875 L 333.507812 411.96875 Z M 333.507812 343.832031 " fill-opacity="1" fill-rule="nonzero"/><path fill="#ffffff" d="M 362.121094 343.832031 L 377.5 343.832031 L 377.5 411.96875 L 362.121094 411.96875 Z M 362.121094 343.832031 " fill-opacity="1" fill-rule="nonzero"/><path fill="#ffffff" d="M 428.800781 360.308594 L 445.835938 360.308594 L 411.285156 436.042969 L 394.929688 436.042969 L 406.992188 412.066406 L 385.09375 360.308594 L 403.097656 360.308594 L 415.265625 395.492188 L 428.796875 360.308594 Z M 428.800781 360.308594 " fill-opacity="1" fill-rule="nonzero"/></svg>