<svg xmlns="http://www.w3.org/2000/svg" xmlns:xlink="http://www.w3.org/1999/xlink" width="1200" zoomAndPan="magnify" viewBox="0 0 900 645.000003" height="860" preserveAspectRatio="xMidYMid meet" version="1.0"><defs><clipPath id="65f23b2168"><path d="M 47 200 L 187 200 L 187 363.5 L 47 363.5 Z M 47 200 " clip-rule="nonzero"/></clipPath></defs><path fill="#ffffff" d="M 394.796875 297.28125 C 396.53125 292.828125 397.398438 287.660156 397.398438 281.789062 C 397.398438 275.914062 396.515625 270.746094 394.746094 266.292969 C 392.976562 261.835938 390.546875 258.089844 387.46875 255.054688 C 384.386719 252.015625 380.78125 249.742188 376.652344 248.222656 C 372.519531 246.703125 368.128906 245.941406 363.472656 245.941406 C 358.949219 245.941406 354.636719 246.703125 350.542969 248.222656 C 346.445312 249.742188 342.835938 252.015625 339.726562 255.054688 C 336.609375 258.089844 334.132812 261.835938 332.300781 266.292969 C 330.464844 270.746094 329.546875 275.914062 329.546875 281.789062 C 329.546875 287.660156 330.433594 292.828125 332.203125 297.28125 C 333.972656 301.738281 336.394531 305.46875 339.480469 308.46875 C 342.558594 311.476562 346.167969 313.734375 350.296875 315.253906 C 354.425781 316.773438 358.816406 317.53125 363.472656 317.53125 C 368.257812 317.53125 372.734375 316.773438 376.894531 315.253906 C 381.058594 313.734375 384.648438 311.476562 387.664062 308.46875 C 390.679688 305.46875 393.054688 301.738281 394.796875 297.28125 Z M 346.609375 290.894531 C 345.789062 288.1875 345.378906 285.152344 345.378906 281.789062 C 345.378906 278.488281 345.789062 275.46875 346.609375 272.726562 C 347.425781 269.988281 348.609375 267.644531 350.148438 265.699219 C 351.6875 263.75 353.574219 262.230469 355.804688 261.140625 C 358.03125 260.054688 360.585938 259.507812 363.472656 259.507812 C 366.292969 259.507812 368.832031 260.039062 371.097656 261.09375 C 373.355469 262.148438 375.257812 263.652344 376.796875 265.597656 C 378.335938 267.546875 379.519531 269.886719 380.339844 272.625 C 381.160156 275.367188 381.570312 278.417969 381.570312 281.789062 C 381.570312 285.152344 381.160156 288.1875 380.339844 290.894531 C 379.519531 293.605469 378.335938 295.929688 376.796875 297.875 C 375.257812 299.824219 373.355469 301.324219 371.097656 302.378906 C 368.832031 303.441406 366.292969 303.96875 363.472656 303.96875 C 360.585938 303.96875 358.03125 303.441406 355.804688 302.378906 C 353.574219 301.324219 351.6875 299.824219 350.148438 297.875 C 348.609375 295.929688 347.425781 293.605469 346.609375 290.894531 Z M 346.609375 290.894531 " fill-opacity="1" fill-rule="evenodd"/><path fill="#ffffff" d="M 435.976562 304.363281 C 438.136719 304.363281 439.925781 304.183594 441.335938 303.816406 C 442.742188 303.457031 443.875 302.960938 444.726562 302.332031 C 445.578125 301.707031 446.167969 300.964844 446.496094 300.105469 C 446.824219 299.25 446.988281 298.289062 446.988281 297.234375 C 446.988281 294.992188 445.9375 293.125 443.839844 291.640625 C 441.742188 290.152344 438.136719 288.554688 433.023438 286.835938 C 430.796875 286.046875 428.566406 285.136719 426.335938 284.113281 C 424.109375 283.09375 422.109375 281.804688 420.339844 280.253906 C 418.570312 278.703125 417.128906 276.820312 416.011719 274.605469 C 414.898438 272.398438 414.339844 269.707031 414.339844 266.539062 C 414.339844 263.371094 414.929688 260.515625 416.109375 257.972656 C 417.292969 255.433594 418.960938 253.273438 421.128906 251.488281 C 423.289062 249.703125 425.910156 248.339844 428.992188 247.378906 C 432.074219 246.421875 435.546875 245.941406 439.417969 245.941406 C 444.003906 245.941406 447.972656 246.441406 451.316406 247.429688 C 454.65625 248.417969 457.414062 249.507812 459.574219 250.695312 L 455.152344 262.875 C 453.25 261.886719 451.132812 261.011719 448.808594 260.25 C 446.480469 259.492188 443.679688 259.109375 440.402344 259.109375 C 436.726562 259.109375 434.089844 259.625 432.484375 260.648438 C 430.878906 261.671875 430.074219 263.238281 430.074219 265.351562 C 430.074219 266.605469 430.371094 267.664062 430.960938 268.519531 C 431.546875 269.378906 432.386719 270.152344 433.464844 270.847656 C 434.550781 271.539062 435.792969 272.167969 437.207031 272.726562 C 438.613281 273.289062 440.171875 273.863281 441.875 274.457031 C 445.414062 275.78125 448.496094 277.082031 451.121094 278.371094 C 453.742188 279.660156 455.921875 281.160156 457.660156 282.875 C 459.394531 284.59375 460.691406 286.605469 461.542969 288.917969 C 462.394531 291.230469 462.820312 294.035156 462.820312 297.332031 C 462.820312 303.734375 460.59375 308.703125 456.132812 312.234375 C 451.675781 315.765625 444.957031 317.53125 435.976562 317.53125 C 432.960938 317.53125 430.238281 317.351562 427.8125 316.988281 C 425.386719 316.621094 423.242188 316.175781 421.371094 315.648438 C 419.503906 315.121094 417.898438 314.5625 416.550781 313.96875 C 415.207031 313.371094 414.078125 312.8125 413.160156 312.28125 L 417.488281 300.007812 C 419.519531 301.128906 422.027344 302.136719 425.011719 303.023438 C 427.992188 303.917969 431.648438 304.363281 435.976562 304.363281 Z M 435.976562 304.363281 " fill-opacity="1" fill-rule="nonzero"/><path fill="#ffffff" d="M 530.40625 247.527344 L 530.40625 260.699219 L 509.855469 260.699219 L 509.855469 316.144531 L 494.515625 316.144531 L 494.515625 260.699219 L 473.960938 260.699219 L 473.960938 247.527344 Z M 530.40625 247.527344 " fill-opacity="1" fill-rule="nonzero"/><path fill="#ffffff" d="M 547.445312 316.148438 L 562.789062 316.148438 L 562.789062 247.527344 L 547.445312 247.527344 Z M 547.445312 316.148438 " fill-opacity="1" fill-rule="nonzero"/><path fill="#ffffff" d="M 631.457031 316.144531 C 627.066406 308.289062 622.316406 300.535156 617.199219 292.875 C 612.082031 285.21875 606.640625 277.992188 600.875 271.191406 L 600.875 316.144531 L 585.730469 316.144531 L 585.730469 247.527344 L 598.21875 247.527344 C 600.378906 249.707031 602.773438 252.378906 605.398438 255.546875 C 608.019531 258.71875 610.6875 262.101562 613.414062 265.699219 C 616.132812 269.296875 618.835938 273.023438 621.527344 276.886719 C 624.214844 280.746094 626.734375 284.457031 629.097656 288.023438 L 629.097656 247.527344 L 644.339844 247.527344 L 644.339844 316.144531 Z M 631.457031 316.144531 " fill-opacity="1" fill-rule="nonzero"/><path fill="#ffffff" d="M 700.515625 259.410156 C 693.375 259.410156 688.210938 261.40625 685.03125 265.402344 C 681.847656 269.394531 680.261719 274.855469 680.261719 281.789062 C 680.261719 285.152344 680.65625 288.207031 681.4375 290.945312 C 682.230469 293.683594 683.410156 296.042969 684.980469 298.023438 C 686.554688 300.003906 688.519531 301.539062 690.882812 302.628906 C 693.242188 303.71875 695.992188 304.261719 699.140625 304.261719 C 700.84375 304.261719 702.304688 304.230469 703.519531 304.164062 C 704.730469 304.101562 705.792969 303.96875 706.710938 303.769531 L 706.710938 279.90625 L 722.054688 279.90625 L 722.054688 313.867188 C 720.21875 314.597656 717.269531 315.371094 713.203125 316.191406 C 709.136719 317.015625 704.125 317.433594 698.160156 317.433594 C 693.046875 317.433594 688.40625 316.640625 684.246094 315.058594 C 680.078125 313.46875 676.519531 311.160156 673.574219 308.125 C 670.628906 305.089844 668.347656 301.359375 666.742188 296.9375 C 665.132812 292.515625 664.332031 287.464844 664.332031 281.789062 C 664.332031 276.042969 665.21875 270.960938 666.988281 266.539062 C 668.757812 262.117188 671.175781 258.367188 674.261719 255.300781 C 677.34375 252.230469 680.960938 249.90625 685.128906 248.320312 C 689.292969 246.734375 693.734375 245.941406 698.449219 245.941406 C 701.664062 245.941406 704.566406 246.160156 707.15625 246.585938 C 709.742188 247.015625 711.972656 247.511719 713.84375 248.074219 C 715.707031 248.632812 717.253906 249.210938 718.464844 249.804688 C 719.679688 250.398438 720.542969 250.863281 721.070312 251.191406 L 716.644531 263.566406 C 714.550781 262.445312 712.136719 261.472656 709.417969 260.648438 C 706.695312 259.824219 703.734375 259.410156 700.515625 259.410156 Z M 700.515625 259.410156 " fill-opacity="1" fill-rule="nonzero"/><path fill="#ffffff" d="M 743.519531 316.144531 L 743.519531 247.527344 L 789.542969 247.527344 L 789.542969 260.5 L 758.863281 260.5 L 758.863281 273.964844 L 786.101562 273.964844 L 786.101562 286.640625 L 758.863281 286.640625 L 758.863281 303.175781 L 791.804688 303.175781 L 791.804688 316.144531 Z M 743.519531 316.144531 " fill-opacity="1" fill-rule="nonzero"/><path fill="#ffffff" d="M 853.785156 252.230469 C 848.347656 248.566406 840.507812 246.734375 830.28125 246.734375 C 827.464844 246.734375 824.265625 246.867188 820.695312 247.132812 C 817.125 247.394531 813.660156 247.859375 810.324219 248.515625 L 810.324219 316.144531 L 825.660156 316.144531 L 825.660156 291.089844 L 833.234375 291.089844 C 834.550781 292.679688 835.867188 294.441406 837.183594 296.394531 C 838.5 298.339844 839.835938 300.398438 841.179688 302.578125 C 842.53125 304.757812 843.84375 307.003906 845.128906 309.3125 C 846.40625 311.625 847.679688 313.898438 848.929688 316.144531 L 866.074219 316.144531 C 864.898438 313.636719 863.621094 311.078125 862.242188 308.46875 C 860.863281 305.863281 859.441406 303.355469 857.964844 300.949219 C 856.492188 298.539062 854.996094 296.226562 853.488281 294.015625 C 851.980469 291.804688 850.542969 289.839844 849.164062 288.125 C 853.296875 286.410156 856.457031 284.046875 858.652344 281.046875 C 860.855469 278.042969 861.945312 274.128906 861.945312 269.3125 C 861.945312 261.585938 859.222656 255.894531 853.785156 252.230469 Z M 828.167969 260.003906 C 829.054688 259.9375 830.050781 259.90625 831.167969 259.90625 C 836.085938 259.90625 839.804688 260.613281 842.328125 262.03125 C 844.855469 263.453125 846.117188 265.84375 846.117188 269.210938 C 846.117188 272.710938 844.871094 275.1875 842.378906 276.636719 C 839.886719 278.09375 835.757812 278.816406 829.988281 278.816406 L 825.660156 278.816406 L 825.660156 260.199219 C 826.449219 260.136719 827.285156 260.070312 828.167969 260.003906 Z M 828.167969 260.003906 " fill-opacity="1" fill-rule="evenodd"/><path fill="#ffffff" d="M 293.617188 248.085938 L 309.050781 248.085938 L 309.050781 316.457031 L 293.617188 316.457031 L 293.617188 287.453125 L 267.699219 287.453125 L 267.699219 316.457031 L 252.265625 316.457031 L 252.265625 248.085938 L 267.699219 248.085938 L 267.699219 274.230469 L 293.617188 274.230469 Z M 293.617188 248.085938 " fill-opacity="1" fill-rule="nonzero"/><g clip-path="url(#65f23b2168)"><path fill="#ffffff" d="M 146.945312 200.230469 L 146.945312 249.125 L 186.449219 272.230469 L 186.449219 220.367188 Z M 47.140625 200.230469 L 47.140625 276.964844 L 175.621094 276.964844 L 136.53125 255.476562 L 85.609375 255.453125 L 85.609375 220.882812 Z M 146.945312 342.910156 L 146.945312 308.636719 L 95.628906 308.601562 C 95.675781 308.832031 55.890625 286.773438 55.890625 286.773438 L 186.449219 287.390625 L 186.449219 364.121094 Z M 47.140625 292.769531 L 47.140625 342.910156 L 85.609375 363.046875 L 85.609375 315.328125 Z M 47.140625 292.769531 " fill-opacity="1" fill-rule="evenodd"/></g></svg>